<svg width="40" height="38" viewBox="0 0 40 38" fill="none" xmlns="http://www.w3.org/2000/svg">
<g clip-path="url(#clip0_8_187)">
<path d="M32.0318 15.2001C31.0085 15.1963 30.03 15.3755 29.1296 15.7045L24.2746 8.2735C24.14 8.06751 23.9523 7.89755 23.7293 7.7797C23.5063 7.66185 23.2553 7.6 23.0001 7.60001H19.0001C18.4478 7.60001 18.0001 8.02531 18.0001 8.55001V9.50001C18.0001 10.0247 18.4478 10.45 19.0001 10.45H22.1656L23.0966 11.875H16.0001V10.925C16.0001 10.4003 15.5525 9.97501 15.0001 9.97501H9.53395C8.69389 9.97501 7.98539 10.6281 8.00045 11.426C8.01495 12.2004 8.6802 12.825 9.50014 12.825H12.5455L10.707 15.6465C9.86739 15.3597 8.96295 15.2022 8.01995 15.2C3.63089 15.1899 0.0257646 18.5851 0.0001396 22.7546C-0.0257979 26.9728 3.56595 30.4 8.00014 30.4C11.7278 30.4 14.86 27.9779 15.7481 24.7H19.0001C19.2556 24.7 19.5069 24.638 19.7301 24.5199C19.9533 24.4018 20.141 24.2315 20.2755 24.0251L25.6481 15.7801L26.5818 17.2091C24.9908 18.6013 23.9952 20.5983 24.0001 22.8163C24.0091 26.9032 27.6188 30.3599 31.9206 30.3996C36.3335 30.4403 39.932 27.0863 39.9991 22.9186C40.067 18.7065 36.4662 15.2165 32.0318 15.2001ZM11.6719 19.5802C12.2798 20.2054 12.714 20.9851 12.8995 21.85H10.1929L11.6719 19.5802ZM8.00014 27.55C5.24314 27.55 3.00014 25.4192 3.00014 22.8C3.00014 20.1809 5.24314 18.05 8.00014 18.05C8.36695 18.05 8.72426 18.0888 9.06883 18.1604L6.22476 22.525C5.6072 23.4725 6.32583 24.7 7.50014 24.7H12.5814C11.8083 26.3759 10.0463 27.55 8.00014 27.55ZM18.1645 21.85H15.938C15.6905 19.9645 14.7158 18.2938 13.2891 17.0985L14.8357 14.725H22.8074L18.1645 21.85ZM31.7306 27.5432C29.1658 27.4147 27.1025 25.424 27.0039 22.9859C26.9531 21.7319 27.4185 20.5802 28.2123 19.7047L30.9894 23.9551C31.2806 24.4009 31.8971 24.5379 32.3664 24.2612L33.216 23.7603C33.6853 23.4836 33.8296 22.8979 33.5383 22.4521L30.759 18.1983C31.1645 18.0997 31.5815 18.0499 32.0001 18.0501C34.7571 18.0501 37.0001 20.1809 37.0001 22.8001C37.0001 25.504 34.6094 27.6876 31.7306 27.5432Z" fill="black"/>
</g>
<defs>
<clipPath id="clip0_8_187">
<rect width="40" height="38" fill="white"/>
</clipPath>
</defs>
</svg>
