<svg width="31" height="31" viewBox="0 0 31 31" fill="none" xmlns="http://www.w3.org/2000/svg">
<g clip-path="url(#clip0_8_191)">
<path d="M29.5469 7.75H29.0625V4.84375C29.0625 2.13125 23.0562 0 15.5 0C7.94375 0 1.9375 2.13125 1.9375 4.84375V7.75H1.45312C0.650879 7.75 0 8.40027 0 9.20312V14.0469C0 14.8491 0.650879 15.5 1.45312 15.5H1.9375V25.1875C1.9375 26.2574 2.80514 27.125 3.875 27.125V29.0625C3.875 30.1324 4.74264 31 5.8125 31H7.75C8.81986 31 9.6875 30.1324 9.6875 29.0625V27.125H21.3125V29.0625C21.3125 30.1324 22.1801 31 23.25 31H25.1875C26.2574 31 27.125 30.1324 27.125 29.0625V27.125H27.5125C28.4812 27.125 29.0625 26.35 29.0625 25.575V15.5H29.5469C30.3491 15.5 31 14.8491 31 14.0469V9.20312C31 8.40027 30.3491 7.75 29.5469 7.75ZM6.78125 24.2188C5.71139 24.2188 4.84375 23.3511 4.84375 22.2812C4.84375 21.2114 5.71139 20.3438 6.78125 20.3438C7.85111 20.3438 8.71875 21.2114 8.71875 22.2812C8.71875 23.3511 7.85111 24.2188 6.78125 24.2188ZM7.75 17.4375C6.68014 17.4375 5.8125 16.5699 5.8125 15.5V7.75C5.8125 6.68014 6.68014 5.8125 7.75 5.8125H23.25C24.3199 5.8125 25.1875 6.68014 25.1875 7.75V15.5C25.1875 16.5699 24.3199 17.4375 23.25 17.4375H7.75ZM24.2188 24.2188C23.1489 24.2188 22.2812 23.3511 22.2812 22.2812C22.2812 21.2114 23.1489 20.3438 24.2188 20.3438C25.2886 20.3438 26.1562 21.2114 26.1562 22.2812C26.1562 23.3511 25.2886 24.2188 24.2188 24.2188Z" fill="black"/>
</g>
<defs>
<clipPath id="clip0_8_191">
<rect width="31" height="31" fill="white"/>
</clipPath>
</defs>
</svg>
