<svg width="39" height="36" viewBox="0 0 39 36" fill="none" xmlns="http://www.w3.org/2000/svg">
<path d="M34.6323 14.9295L33.7761 12.9537L32.258 9.45C30.9547 6.44273 27.8462 4.5 24.3369 4.5H14.6631C11.1546 4.5 8.04527 6.44273 6.74197 9.45L5.22387 12.9537L4.3677 14.9295C2.53043 15.5742 1.21875 17.2027 1.21875 19.125V22.5C1.21875 23.6334 1.68797 24.6565 2.4375 25.4482V29.25C2.4375 30.4924 3.52904 31.5 4.875 31.5H7.3125C8.65846 31.5 9.75 30.4924 9.75 29.25V27H29.25V29.25C29.25 30.4924 30.3415 31.5 31.6875 31.5H34.125C35.471 31.5 36.5625 30.4924 36.5625 29.25V25.4482C37.312 24.6572 37.7812 23.6341 37.7812 22.5V19.125C37.7812 17.2027 36.4696 15.5742 34.6323 14.9295ZM11.2681 11.1213C11.8234 9.84023 13.1678 9 14.6631 9H24.3369C25.8322 9 27.1766 9.84023 27.7319 11.1213L29.25 14.625H9.75L11.2681 11.1213ZM7.3125 22.4859C5.85 22.4859 4.875 21.5887 4.875 20.243C4.875 18.8972 5.85 18 7.3125 18C8.775 18 10.9688 20.0187 10.9688 21.3645C10.9688 22.7102 8.775 22.4859 7.3125 22.4859ZM31.6875 22.4859C30.225 22.4859 28.0312 22.7102 28.0312 21.3645C28.0312 20.0187 30.225 18 31.6875 18C33.15 18 34.125 18.8972 34.125 20.243C34.125 21.5887 33.15 22.4859 31.6875 22.4859Z" fill="black"/>
</svg>
