<svg width="83" height="75" viewBox="0 0 83 75" fill="none" xmlns="http://www.w3.org/2000/svg">
<path d="M41.8144 0C50.0704 8.96413e-08 58.1358 2.25921 64.9641 6.48448L59.1767 14.2384C54.0554 11.0694 48.0064 9.375 41.8144 9.375V0Z" fill="#16A799"/>
<path d="M66.0267 7.16453C72.7053 11.5837 77.7711 17.7285 80.5668 24.8016L70.8787 27.9762C68.782 22.6714 64.9826 18.0628 59.9736 14.7484L66.0267 7.16453Z" fill="#16A799"/>
<path d="M80.9238 25.7438C83.512 32.882 83.6843 40.5637 81.4184 47.7922L71.5174 45.2191C73.2169 39.7978 73.0876 34.0365 71.1464 28.6828L80.9238 25.7438Z" fill="#16A799"/>
<path d="M81.0583 48.8784C78.5533 56.0412 73.7418 62.3531 67.2481 66.9953L60.8897 59.6214C65.7599 56.1398 69.3685 51.4059 71.2473 46.0338L81.0583 48.8784Z" fill="#16A799"/>
<path d="M65.5981 67.7022C58.9488 72.1579 50.9822 74.6913 42.7321 74.9736L42.3455 65.6052C48.5331 65.3935 54.508 63.4934 59.495 60.1516L65.5981 67.7022Z" fill="#BCCCBF"/>
<path d="M41.8144 75C33.5584 75 25.493 72.7408 18.6646 68.5155L24.4521 60.7616C29.5733 63.9306 35.6224 65.625 41.8144 65.625V75Z" fill="#BCCCBF"/>
<path d="M17.8221 67.98C11.1116 63.601 6.00145 57.4867 3.15467 50.4306L12.8196 47.1979C14.9547 52.49 18.7873 57.0757 23.8201 60.36L17.8221 67.98Z" fill="#BCCCBF"/>
<path d="M2.73034 49.3258C0.126773 42.1923 -0.0620669 34.5109 2.18832 27.2783L12.0948 29.8338C10.407 35.2581 10.5487 41.0192 12.5014 46.3694L2.73034 49.3258Z" fill="#BCCCBF"/>
<path d="M2.53942 26.2107C5.02486 19.0423 9.81907 12.7194 16.3 8.06256L22.6786 15.4219C17.8179 18.9146 14.2222 23.6567 12.3582 29.033L2.53942 26.2107Z" fill="#BCCCBF"/>
<path d="M17.3766 7.31478C24.0222 2.85441 31.9866 0.315522 40.2365 0.0275303L40.631 9.39565C34.4436 9.61164 28.4702 11.5158 23.4861 14.8611L17.3766 7.31478Z" fill="#BCCCBF"/>
<path d="M24.5164 41.1197V39.3033L29.5184 32.1282H31.2383V34.6424H30.2204L27.0671 39.1861V39.2713H34.1751V41.1197H24.5164ZM30.2672 43.0373V40.5657L30.314 39.7614V32.1282H32.6892V43.0373H30.2672Z" fill="black"/>
<path d="M40.5607 43.277C39.5544 43.2734 38.6886 43.0479 37.9632 42.6005C37.2416 42.1531 36.6859 41.505 36.2959 40.6562C35.9097 39.8075 35.7186 38.7866 35.7225 37.5934C35.7225 36.4038 35.9156 35.3899 36.3017 34.5518C36.6917 33.7138 37.2475 33.0763 37.969 32.6396C38.6944 32.1992 39.5583 31.979 40.5607 31.979C41.563 31.979 42.4249 32.1992 43.1465 32.6396C43.8719 33.0799 44.4296 33.7191 44.8196 34.5572C45.2097 35.3917 45.4027 36.4038 45.3988 37.5934C45.3988 38.7901 45.2038 39.8129 44.8138 40.6616C44.4277 41.5103 43.8738 42.1584 43.1523 42.6058C42.4308 43.0533 41.5669 43.277 40.5607 43.277ZM40.5607 41.3647C41.2471 41.3647 41.7951 41.0504 42.2046 40.4219C42.6141 39.7933 42.8169 38.8505 42.813 37.5934C42.813 36.766 42.7194 36.0771 42.5322 35.5266C42.3489 34.9762 42.0876 34.5625 41.7483 34.2855C41.4129 34.0085 41.017 33.87 40.5607 33.87C39.8781 33.87 39.3321 34.1808 38.9226 34.8022C38.5131 35.4237 38.3064 36.354 38.3025 37.5934C38.3025 38.4315 38.3941 39.131 38.5774 39.6921C38.7646 40.2496 39.0279 40.6687 39.3672 40.9492C39.7065 41.2262 40.1044 41.3647 40.5607 41.3647Z" fill="black"/>
<path d="M53.7632 40.9918V40.4165C53.7632 39.9798 53.8646 39.5785 54.0674 39.2127C54.2741 38.8434 54.5725 38.5487 54.9625 38.3285C55.3564 38.1048 55.8361 37.9929 56.4016 37.9929C56.9749 37.9929 57.4566 38.103 57.8466 38.3232C58.2405 38.5433 58.537 38.8381 58.7359 39.2074C58.9387 39.5732 59.0401 39.9762 59.0401 40.4165V40.9918C59.0401 41.4286 58.9387 41.8317 58.7359 42.201C58.5331 42.5668 58.2347 42.8597 57.8408 43.0799C57.4469 43.3036 56.9671 43.4155 56.4016 43.4155C55.8283 43.4155 55.3466 43.3036 54.9566 43.0799C54.5666 42.8597 54.2702 42.5668 54.0674 42.201C53.8646 41.8317 53.7632 41.4286 53.7632 40.9918ZM55.4656 40.4165V40.9918C55.4656 41.244 55.5319 41.4819 55.6645 41.7056C55.801 41.9293 56.0467 42.0412 56.4016 42.0412C56.7565 42.0412 56.9983 41.9311 57.1271 41.7109C57.2597 41.4908 57.326 41.2511 57.326 40.9918V40.4165C57.326 40.1573 57.2636 39.9158 57.1388 39.6921C57.014 39.4684 56.7682 39.3565 56.4016 39.3565C56.0506 39.3565 55.8069 39.4684 55.6703 39.6921C55.5338 39.9158 55.4656 40.1573 55.4656 40.4165ZM47.6146 34.7489V34.1737C47.6146 33.7333 47.7179 33.3303 47.9246 32.9645C48.1314 32.5952 48.4297 32.3004 48.8197 32.0803C49.2136 31.8601 49.6895 31.75 50.2472 31.75C50.8244 31.75 51.308 31.8601 51.698 32.0803C52.0881 32.3004 52.3845 32.5952 52.5873 32.9645C52.7901 33.3303 52.8915 33.7333 52.8915 34.1737V34.7489C52.8915 35.1893 52.7881 35.5923 52.5814 35.9581C52.3786 36.3239 52.0803 36.6168 51.6863 36.837C51.2963 37.0536 50.8166 37.1619 50.2472 37.1619C49.6778 37.1619 49.1961 37.0518 48.8022 36.8317C48.4122 36.608 48.1158 36.315 47.9129 35.9528C47.714 35.587 47.6146 35.1857 47.6146 34.7489ZM49.3287 34.1737V34.7489C49.3287 35.0082 49.395 35.2479 49.5276 35.468C49.6641 35.6882 49.904 35.7983 50.2472 35.7983C50.606 35.7983 50.8498 35.6882 50.9785 35.468C51.1111 35.2479 51.1774 35.0082 51.1774 34.7489V34.1737C51.1774 33.9144 51.115 33.6729 50.9902 33.4492C50.8654 33.2255 50.6177 33.1136 50.2472 33.1136C49.9001 33.1136 49.6602 33.2273 49.5276 33.4545C49.395 33.6818 49.3287 33.9215 49.3287 34.1737ZM48.3868 43.0373L56.6239 32.1282H58.1567L49.9196 43.0373H48.3868Z" fill="black"/>
</svg>
