<svg width="345" height="182" viewBox="0 0 345 182" fill="none" xmlns="http://www.w3.org/2000/svg">
<rect width="345" height="182" rx="19" fill="#F5E7E0"/>
<path d="M27.1 30.2C25.6333 30.2 24.3733 29.9067 23.32 29.32C22.28 28.72 21.48 27.88 20.92 26.8C20.36 25.7067 20.08 24.42 20.08 22.94C20.08 21.8333 20.24 20.84 20.56 19.96C20.88 19.0667 21.34 18.3067 21.94 17.68C22.54 17.04 23.2733 16.5533 24.14 16.22C25.02 15.8733 26.0067 15.7 27.1 15.7C27.8333 15.7 28.5533 15.7933 29.26 15.98C29.9667 16.1667 30.5867 16.4333 31.12 16.78C31.4 16.9533 31.5867 17.1667 31.68 17.42C31.7733 17.66 31.7933 17.9 31.74 18.14C31.6867 18.3667 31.5733 18.56 31.4 18.72C31.24 18.88 31.0333 18.9733 30.78 19C30.54 19.0133 30.2733 18.9267 29.98 18.74C29.5667 18.4733 29.12 18.28 28.64 18.16C28.16 18.04 27.6733 17.98 27.18 17.98C26.2333 17.98 25.4333 18.1733 24.78 18.56C24.1267 18.9467 23.6333 19.5067 23.3 20.24C22.9667 20.9733 22.8 21.8733 22.8 22.94C22.8 23.9933 22.9667 24.8933 23.3 25.64C23.6333 26.3867 24.1267 26.9533 24.78 27.34C25.4333 27.7267 26.2333 27.92 27.18 27.92C27.6867 27.92 28.1867 27.86 28.68 27.74C29.1733 27.6067 29.64 27.4067 30.08 27.14C30.3733 26.9667 30.6333 26.8933 30.86 26.92C31.1 26.9333 31.3 27.0133 31.46 27.16C31.62 27.3067 31.7267 27.4933 31.78 27.72C31.8333 27.9333 31.82 28.16 31.74 28.4C31.66 28.6267 31.5 28.8267 31.26 29C30.7267 29.3867 30.0867 29.6867 29.34 29.9C28.6067 30.1 27.86 30.2 27.1 30.2ZM37.6506 30.2C36.6373 30.2 35.7573 29.9933 35.0106 29.58C34.264 29.1667 33.684 28.58 33.2706 27.82C32.8573 27.0467 32.6506 26.14 32.6506 25.1C32.6506 24.3133 32.764 23.6133 32.9906 23C33.2306 22.3733 33.5706 21.84 34.0106 21.4C34.4506 20.9467 34.9773 20.6067 35.5906 20.38C36.204 20.14 36.8906 20.02 37.6506 20.02C38.664 20.02 39.544 20.2267 40.2906 20.64C41.0373 21.0533 41.6173 21.64 42.0306 22.4C42.444 23.16 42.6506 24.06 42.6506 25.1C42.6506 25.8867 42.5306 26.5933 42.2906 27.22C42.064 27.8467 41.7306 28.3867 41.2906 28.84C40.8506 29.28 40.324 29.62 39.7106 29.86C39.0973 30.0867 38.4106 30.2 37.6506 30.2ZM37.6506 28.3C38.144 28.3 38.5773 28.18 38.9506 27.94C39.324 27.7 39.6106 27.3467 39.8106 26.88C40.024 26.4 40.1306 25.8067 40.1306 25.1C40.1306 24.0333 39.904 23.24 39.4506 22.72C38.9973 22.1867 38.3973 21.92 37.6506 21.92C37.1573 21.92 36.724 22.04 36.3506 22.28C35.9773 22.5067 35.684 22.86 35.4706 23.34C35.2706 23.8067 35.1706 24.3933 35.1706 25.1C35.1706 26.1533 35.3973 26.9533 35.8506 27.5C36.304 28.0333 36.904 28.3 37.6506 28.3ZM45.9941 30.16C45.5941 30.16 45.2874 30.0533 45.0741 29.84C44.8607 29.6133 44.7541 29.2933 44.7541 28.88V21.32C44.7541 20.9067 44.8607 20.5933 45.0741 20.38C45.2874 20.1667 45.5874 20.06 45.9741 20.06C46.3607 20.06 46.6607 20.1667 46.8741 20.38C47.0874 20.5933 47.1941 20.9067 47.1941 21.32V22.78L46.9741 22.18C47.2407 21.5133 47.6541 20.9867 48.2141 20.6C48.7741 20.2133 49.4407 20.02 50.2141 20.02C51.0007 20.02 51.6474 20.2067 52.1541 20.58C52.6607 20.9533 53.0141 21.5267 53.2141 22.3H52.9341C53.2007 21.5933 53.6407 21.04 54.2541 20.64C54.8674 20.2267 55.5741 20.02 56.3741 20.02C57.1207 20.02 57.7341 20.1667 58.2141 20.46C58.7074 20.7533 59.0741 21.2 59.3141 21.8C59.5541 22.3867 59.6741 23.1333 59.6741 24.04V28.88C59.6741 29.2933 59.5607 29.6133 59.3341 29.84C59.1207 30.0533 58.8141 30.16 58.4141 30.16C58.0141 30.16 57.7074 30.0533 57.4941 29.84C57.2807 29.6133 57.1741 29.2933 57.1741 28.88V24.14C57.1741 23.3933 57.0474 22.8467 56.7941 22.5C56.5541 22.1533 56.1407 21.98 55.5541 21.98C54.9007 21.98 54.3874 22.2133 54.0141 22.68C53.6407 23.1333 53.4541 23.7667 53.4541 24.58V28.88C53.4541 29.2933 53.3474 29.6133 53.1341 29.84C52.9207 30.0533 52.6141 30.16 52.2141 30.16C51.8141 30.16 51.5007 30.0533 51.2741 29.84C51.0607 29.6133 50.9541 29.2933 50.9541 28.88V24.14C50.9541 23.3933 50.8274 22.8467 50.5741 22.5C50.3341 22.1533 49.9274 21.98 49.3541 21.98C48.7007 21.98 48.1874 22.2133 47.8141 22.68C47.4407 23.1333 47.2541 23.7667 47.2541 24.58V28.88C47.2541 29.7333 46.8341 30.16 45.9941 30.16ZM63.5331 30.16C63.1331 30.16 62.8265 30.0533 62.6131 29.84C62.3998 29.6133 62.2931 29.2933 62.2931 28.88V21.32C62.2931 20.9067 62.3998 20.5933 62.6131 20.38C62.8265 20.1667 63.1265 20.06 63.5131 20.06C63.8998 20.06 64.1998 20.1667 64.4131 20.38C64.6265 20.5933 64.7331 20.9067 64.7331 21.32V22.78L64.5131 22.18C64.7798 21.5133 65.1931 20.9867 65.7531 20.6C66.3131 20.2133 66.9798 20.02 67.7531 20.02C68.5398 20.02 69.1865 20.2067 69.6931 20.58C70.1998 20.9533 70.5531 21.5267 70.7531 22.3H70.4731C70.7398 21.5933 71.1798 21.04 71.7931 20.64C72.4065 20.2267 73.1131 20.02 73.9131 20.02C74.6598 20.02 75.2731 20.1667 75.7531 20.46C76.2465 20.7533 76.6131 21.2 76.8531 21.8C77.0931 22.3867 77.2131 23.1333 77.2131 24.04V28.88C77.2131 29.2933 77.0998 29.6133 76.8731 29.84C76.6598 30.0533 76.3531 30.16 75.9531 30.16C75.5531 30.16 75.2465 30.0533 75.0331 29.84C74.8198 29.6133 74.7131 29.2933 74.7131 28.88V24.14C74.7131 23.3933 74.5865 22.8467 74.3331 22.5C74.0931 22.1533 73.6798 21.98 73.0931 21.98C72.4398 21.98 71.9265 22.2133 71.5531 22.68C71.1798 23.1333 70.9931 23.7667 70.9931 24.58V28.88C70.9931 29.2933 70.8865 29.6133 70.6731 29.84C70.4598 30.0533 70.1531 30.16 69.7531 30.16C69.3531 30.16 69.0398 30.0533 68.8131 29.84C68.5998 29.6133 68.4931 29.2933 68.4931 28.88V24.14C68.4931 23.3933 68.3665 22.8467 68.1131 22.5C67.8731 22.1533 67.4665 21.98 66.8931 21.98C66.2398 21.98 65.7265 22.2133 65.3531 22.68C64.9798 23.1333 64.7931 23.7667 64.7931 24.58V28.88C64.7931 29.7333 64.3731 30.16 63.5331 30.16ZM83.3322 30.2C82.5189 30.2 81.8455 30.0533 81.3122 29.76C80.7789 29.4533 80.3789 29 80.1122 28.4C79.8589 27.8 79.7322 27.0533 79.7322 26.16V21.32C79.7322 20.8933 79.8389 20.58 80.0522 20.38C80.2655 20.1667 80.5722 20.06 80.9722 20.06C81.3722 20.06 81.6789 20.1667 81.8922 20.38C82.1189 20.58 82.2322 20.8933 82.2322 21.32V26.2C82.2322 26.8933 82.3722 27.4067 82.6522 27.74C82.9322 28.0733 83.3789 28.24 83.9922 28.24C84.6589 28.24 85.2055 28.0133 85.6322 27.56C86.0589 27.0933 86.2722 26.48 86.2722 25.72V21.32C86.2722 20.8933 86.3789 20.58 86.5922 20.38C86.8055 20.1667 87.1122 20.06 87.5122 20.06C87.9122 20.06 88.2189 20.1667 88.4322 20.38C88.6589 20.58 88.7722 20.8933 88.7722 21.32V28.88C88.7722 29.7333 88.3655 30.16 87.5522 30.16C87.1655 30.16 86.8655 30.0533 86.6522 29.84C86.4389 29.6133 86.3322 29.2933 86.3322 28.88V27.36L86.6122 27.96C86.3322 28.68 85.9055 29.2333 85.3322 29.62C84.7722 30.0067 84.1055 30.2 83.3322 30.2ZM92.6142 30.16C92.2142 30.16 91.9076 30.0533 91.6942 29.84C91.4809 29.6133 91.3742 29.2933 91.3742 28.88V21.32C91.3742 20.9067 91.4809 20.5933 91.6942 20.38C91.9076 20.1667 92.2076 20.06 92.5942 20.06C92.9809 20.06 93.2809 20.1667 93.4942 20.38C93.7076 20.5933 93.8142 20.9067 93.8142 21.32V22.68L93.5942 22.18C93.8876 21.4733 94.3409 20.94 94.9542 20.58C95.5809 20.2067 96.2876 20.02 97.0742 20.02C97.8609 20.02 98.5076 20.1667 99.0142 20.46C99.5209 20.7533 99.9009 21.2 100.154 21.8C100.408 22.3867 100.534 23.1333 100.534 24.04V28.88C100.534 29.2933 100.428 29.6133 100.214 29.84C100.001 30.0533 99.6942 30.16 99.2942 30.16C98.8942 30.16 98.5809 30.0533 98.3542 29.84C98.1409 29.6133 98.0342 29.2933 98.0342 28.88V24.16C98.0342 23.4 97.8876 22.8467 97.5942 22.5C97.3142 22.1533 96.8742 21.98 96.2742 21.98C95.5409 21.98 94.9542 22.2133 94.5142 22.68C94.0876 23.1333 93.8742 23.74 93.8742 24.5V28.88C93.8742 29.7333 93.4542 30.16 92.6142 30.16ZM104.313 30.14C103.913 30.14 103.607 30.02 103.393 29.78C103.18 29.54 103.073 29.2067 103.073 28.78V21.44C103.073 21 103.18 20.6667 103.393 20.44C103.607 20.2 103.913 20.08 104.313 20.08C104.713 20.08 105.02 20.2 105.233 20.44C105.46 20.6667 105.573 21 105.573 21.44V28.78C105.573 29.2067 105.467 29.54 105.253 29.78C105.04 30.02 104.727 30.14 104.313 30.14ZM104.313 18.22C103.847 18.22 103.48 18.1067 103.213 17.88C102.96 17.64 102.833 17.3133 102.833 16.9C102.833 16.4733 102.96 16.1467 103.213 15.92C103.48 15.6933 103.847 15.58 104.313 15.58C104.793 15.58 105.16 15.6933 105.413 15.92C105.667 16.1467 105.793 16.4733 105.793 16.9C105.793 17.3133 105.667 17.64 105.413 17.88C105.16 18.1067 104.793 18.22 104.313 18.22ZM112.651 30.2C111.784 30.2 111.058 30.0533 110.471 29.76C109.898 29.4667 109.471 29.04 109.191 28.48C108.911 27.9067 108.771 27.2 108.771 26.36V22.1H107.731C107.411 22.1 107.164 22.02 106.991 21.86C106.818 21.6867 106.731 21.4533 106.731 21.16C106.731 20.8533 106.818 20.62 106.991 20.46C107.164 20.3 107.411 20.22 107.731 20.22H108.771V18.4C108.771 17.9867 108.878 17.6733 109.091 17.46C109.318 17.2467 109.631 17.14 110.031 17.14C110.431 17.14 110.738 17.2467 110.951 17.46C111.164 17.6733 111.271 17.9867 111.271 18.4V20.22H113.391C113.711 20.22 113.958 20.3 114.131 20.46C114.304 20.62 114.391 20.8533 114.391 21.16C114.391 21.4533 114.304 21.6867 114.131 21.86C113.958 22.02 113.711 22.1 113.391 22.1H111.271V26.22C111.271 26.86 111.411 27.34 111.691 27.66C111.971 27.98 112.424 28.14 113.051 28.14C113.278 28.14 113.478 28.12 113.651 28.08C113.824 28.04 113.978 28.0133 114.111 28C114.271 27.9867 114.404 28.04 114.511 28.16C114.618 28.2667 114.671 28.4933 114.671 28.84C114.671 29.1067 114.624 29.3467 114.531 29.56C114.451 29.76 114.298 29.9 114.071 29.98C113.898 30.0333 113.671 30.08 113.391 30.12C113.111 30.1733 112.864 30.2 112.651 30.2ZM118.483 33.76C118.19 33.76 117.95 33.68 117.763 33.52C117.576 33.3733 117.463 33.1733 117.423 32.92C117.396 32.6667 117.443 32.4 117.563 32.12L118.923 29.1V30.14L115.283 21.72C115.163 21.4267 115.123 21.1533 115.163 20.9C115.203 20.6467 115.323 20.4467 115.523 20.3C115.736 20.14 116.023 20.06 116.383 20.06C116.69 20.06 116.936 20.1333 117.123 20.28C117.31 20.4133 117.476 20.6733 117.623 21.06L120.323 27.8H119.723L122.483 21.04C122.63 20.6667 122.803 20.4133 123.003 20.28C123.203 20.1333 123.47 20.06 123.803 20.06C124.096 20.06 124.33 20.14 124.503 20.3C124.676 20.4467 124.783 20.6467 124.823 20.9C124.863 21.14 124.816 21.4067 124.683 21.7L119.823 32.8C119.65 33.1733 119.463 33.4267 119.263 33.56C119.063 33.6933 118.803 33.76 118.483 33.76ZM133.48 30.16C133.067 30.16 132.747 30.0467 132.52 29.82C132.307 29.58 132.2 29.2533 132.2 28.84V17.06C132.2 16.6333 132.307 16.3067 132.52 16.08C132.747 15.8533 133.067 15.74 133.48 15.74C133.893 15.74 134.207 15.8533 134.42 16.08C134.647 16.3067 134.76 16.6333 134.76 17.06V21.78H142.02V17.06C142.02 16.6333 142.127 16.3067 142.34 16.08C142.567 15.8533 142.887 15.74 143.3 15.74C143.713 15.74 144.027 15.8533 144.24 16.08C144.467 16.3067 144.58 16.6333 144.58 17.06V28.84C144.58 29.2533 144.467 29.58 144.24 29.82C144.027 30.0467 143.713 30.16 143.3 30.16C142.887 30.16 142.567 30.0467 142.34 29.82C142.127 29.58 142.02 29.2533 142.02 28.84V23.92H134.76V28.84C134.76 29.2533 134.653 29.58 134.44 29.82C134.227 30.0467 133.907 30.16 133.48 30.16ZM148.669 30.14C148.269 30.14 147.962 30.02 147.749 29.78C147.536 29.54 147.429 29.2067 147.429 28.78V21.44C147.429 21 147.536 20.6667 147.749 20.44C147.962 20.2 148.269 20.08 148.669 20.08C149.069 20.08 149.376 20.2 149.589 20.44C149.816 20.6667 149.929 21 149.929 21.44V28.78C149.929 29.2067 149.822 29.54 149.609 29.78C149.396 30.02 149.082 30.14 148.669 30.14ZM148.669 18.22C148.202 18.22 147.836 18.1067 147.569 17.88C147.316 17.64 147.189 17.3133 147.189 16.9C147.189 16.4733 147.316 16.1467 147.569 15.92C147.836 15.6933 148.202 15.58 148.669 15.58C149.149 15.58 149.516 15.6933 149.769 15.92C150.022 16.1467 150.149 16.4733 150.149 16.9C150.149 17.3133 150.022 17.64 149.769 17.88C149.516 18.1067 149.149 18.22 148.669 18.22ZM157.087 33.8C156.367 33.8 155.667 33.7333 154.987 33.6C154.32 33.4667 153.713 33.26 153.167 32.98C152.913 32.8467 152.74 32.6867 152.647 32.5C152.567 32.3133 152.54 32.12 152.567 31.92C152.607 31.7333 152.687 31.5667 152.807 31.42C152.94 31.2733 153.1 31.1733 153.287 31.12C153.473 31.0667 153.667 31.0933 153.867 31.2C154.453 31.4933 155.007 31.68 155.527 31.76C156.06 31.8533 156.513 31.9 156.887 31.9C157.78 31.9 158.447 31.68 158.887 31.24C159.34 30.8133 159.567 30.1733 159.567 29.32V27.52H159.747C159.547 28.2 159.127 28.7467 158.487 29.16C157.86 29.56 157.147 29.76 156.347 29.76C155.467 29.76 154.7 29.56 154.047 29.16C153.393 28.7467 152.887 28.1733 152.527 27.44C152.167 26.7067 151.987 25.8533 151.987 24.88C151.987 24.1467 152.087 23.4867 152.287 22.9C152.5 22.3 152.793 21.7867 153.167 21.36C153.553 20.9333 154.013 20.6067 154.547 20.38C155.093 20.14 155.693 20.02 156.347 20.02C157.173 20.02 157.893 20.2267 158.507 20.64C159.133 21.04 159.54 21.5733 159.727 22.24L159.527 22.74V21.32C159.527 20.9067 159.633 20.5933 159.847 20.38C160.073 20.1667 160.38 20.06 160.767 20.06C161.167 20.06 161.473 20.1667 161.687 20.38C161.9 20.5933 162.007 20.9067 162.007 21.32V29.02C162.007 30.6067 161.587 31.8 160.747 32.6C159.907 33.4 158.687 33.8 157.087 33.8ZM157.027 27.86C157.547 27.86 157.993 27.74 158.367 27.5C158.74 27.26 159.027 26.92 159.227 26.48C159.44 26.0267 159.547 25.4933 159.547 24.88C159.547 23.96 159.32 23.24 158.867 22.72C158.413 22.1867 157.8 21.92 157.027 21.92C156.507 21.92 156.06 22.04 155.687 22.28C155.313 22.52 155.02 22.86 154.807 23.3C154.607 23.74 154.507 24.2667 154.507 24.88C154.507 25.8 154.733 26.5267 155.187 27.06C155.64 27.5933 156.253 27.86 157.027 27.86ZM165.837 30.16C165.437 30.16 165.13 30.0533 164.917 29.84C164.704 29.6133 164.597 29.2933 164.597 28.88V17C164.597 16.5867 164.704 16.2733 164.917 16.06C165.13 15.8467 165.437 15.74 165.837 15.74C166.237 15.74 166.544 15.8467 166.757 16.06C166.984 16.2733 167.097 16.5867 167.097 17V22.18H166.817C167.11 21.4733 167.564 20.94 168.177 20.58C168.804 20.2067 169.51 20.02 170.297 20.02C171.084 20.02 171.73 20.1667 172.237 20.46C172.744 20.7533 173.124 21.2 173.377 21.8C173.63 22.3867 173.757 23.1333 173.757 24.04V28.88C173.757 29.2933 173.65 29.6133 173.437 29.84C173.224 30.0533 172.917 30.16 172.517 30.16C172.117 30.16 171.804 30.0533 171.577 29.84C171.364 29.6133 171.257 29.2933 171.257 28.88V24.16C171.257 23.4 171.11 22.8467 170.817 22.5C170.537 22.1533 170.097 21.98 169.497 21.98C168.764 21.98 168.177 22.2133 167.737 22.68C167.31 23.1333 167.097 23.74 167.097 24.5V28.88C167.097 29.7333 166.677 30.16 165.837 30.16ZM179.636 30.2C178.529 30.2 177.696 29.8867 177.136 29.26C176.576 28.62 176.296 27.6867 176.296 26.46V17C176.296 16.5867 176.403 16.2733 176.616 16.06C176.829 15.8467 177.136 15.74 177.536 15.74C177.936 15.74 178.243 15.8467 178.456 16.06C178.683 16.2733 178.796 16.5867 178.796 17V26.34C178.796 26.9533 178.923 27.4067 179.176 27.7C179.443 27.9933 179.816 28.14 180.296 28.14C180.403 28.14 180.503 28.14 180.596 28.14C180.689 28.1267 180.783 28.1133 180.876 28.1C181.063 28.0733 181.189 28.1267 181.256 28.26C181.323 28.38 181.356 28.6333 181.356 29.02C181.356 29.3533 181.289 29.6133 181.156 29.8C181.023 29.9867 180.803 30.1 180.496 30.14C180.363 30.1533 180.223 30.1667 180.076 30.18C179.929 30.1933 179.783 30.2 179.636 30.2ZM183.923 30.14C183.523 30.14 183.216 30.02 183.003 29.78C182.789 29.54 182.683 29.2067 182.683 28.78V21.44C182.683 21 182.789 20.6667 183.003 20.44C183.216 20.2 183.523 20.08 183.923 20.08C184.323 20.08 184.629 20.2 184.843 20.44C185.069 20.6667 185.183 21 185.183 21.44V28.78C185.183 29.2067 185.076 29.54 184.863 29.78C184.649 30.02 184.336 30.14 183.923 30.14ZM183.923 18.22C183.456 18.22 183.089 18.1067 182.823 17.88C182.569 17.64 182.443 17.3133 182.443 16.9C182.443 16.4733 182.569 16.1467 182.823 15.92C183.089 15.6933 183.456 15.58 183.923 15.58C184.403 15.58 184.769 15.6933 185.023 15.92C185.276 16.1467 185.403 16.4733 185.403 16.9C185.403 17.3133 185.276 17.64 185.023 17.88C184.769 18.1067 184.403 18.22 183.923 18.22ZM192.34 33.8C191.62 33.8 190.92 33.7333 190.24 33.6C189.574 33.4667 188.967 33.26 188.42 32.98C188.167 32.8467 187.994 32.6867 187.9 32.5C187.82 32.3133 187.794 32.12 187.82 31.92C187.86 31.7333 187.94 31.5667 188.06 31.42C188.194 31.2733 188.354 31.1733 188.54 31.12C188.727 31.0667 188.92 31.0933 189.12 31.2C189.707 31.4933 190.26 31.68 190.78 31.76C191.314 31.8533 191.767 31.9 192.14 31.9C193.034 31.9 193.7 31.68 194.14 31.24C194.594 30.8133 194.82 30.1733 194.82 29.32V27.52H195C194.8 28.2 194.38 28.7467 193.74 29.16C193.114 29.56 192.4 29.76 191.6 29.76C190.72 29.76 189.954 29.56 189.3 29.16C188.647 28.7467 188.14 28.1733 187.78 27.44C187.42 26.7067 187.24 25.8533 187.24 24.88C187.24 24.1467 187.34 23.4867 187.54 22.9C187.754 22.3 188.047 21.7867 188.42 21.36C188.807 20.9333 189.267 20.6067 189.8 20.38C190.347 20.14 190.947 20.02 191.6 20.02C192.427 20.02 193.147 20.2267 193.76 20.64C194.387 21.04 194.794 21.5733 194.98 22.24L194.78 22.74V21.32C194.78 20.9067 194.887 20.5933 195.1 20.38C195.327 20.1667 195.634 20.06 196.02 20.06C196.42 20.06 196.727 20.1667 196.94 20.38C197.154 20.5933 197.26 20.9067 197.26 21.32V29.02C197.26 30.6067 196.84 31.8 196 32.6C195.16 33.4 193.94 33.8 192.34 33.8ZM192.28 27.86C192.8 27.86 193.247 27.74 193.62 27.5C193.994 27.26 194.28 26.92 194.48 26.48C194.694 26.0267 194.8 25.4933 194.8 24.88C194.8 23.96 194.574 23.24 194.12 22.72C193.667 22.1867 193.054 21.92 192.28 21.92C191.76 21.92 191.314 22.04 190.94 22.28C190.567 22.52 190.274 22.86 190.06 23.3C189.86 23.74 189.76 24.2667 189.76 24.88C189.76 25.8 189.987 26.5267 190.44 27.06C190.894 27.5933 191.507 27.86 192.28 27.86ZM201.091 30.16C200.691 30.16 200.384 30.0533 200.171 29.84C199.957 29.6133 199.851 29.2933 199.851 28.88V17C199.851 16.5867 199.957 16.2733 200.171 16.06C200.384 15.8467 200.691 15.74 201.091 15.74C201.491 15.74 201.797 15.8467 202.011 16.06C202.237 16.2733 202.351 16.5867 202.351 17V22.18H202.071C202.364 21.4733 202.817 20.94 203.431 20.58C204.057 20.2067 204.764 20.02 205.551 20.02C206.337 20.02 206.984 20.1667 207.491 20.46C207.997 20.7533 208.377 21.2 208.631 21.8C208.884 22.3867 209.011 23.1333 209.011 24.04V28.88C209.011 29.2933 208.904 29.6133 208.691 29.84C208.477 30.0533 208.171 30.16 207.771 30.16C207.371 30.16 207.057 30.0533 206.831 29.84C206.617 29.6133 206.511 29.2933 206.511 28.88V24.16C206.511 23.4 206.364 22.8467 206.071 22.5C205.791 22.1533 205.351 21.98 204.751 21.98C204.017 21.98 203.431 22.2133 202.991 22.68C202.564 23.1333 202.351 23.74 202.351 24.5V28.88C202.351 29.7333 201.931 30.16 201.091 30.16ZM216.03 30.2C215.163 30.2 214.437 30.0533 213.85 29.76C213.277 29.4667 212.85 29.04 212.57 28.48C212.29 27.9067 212.15 27.2 212.15 26.36V22.1H211.11C210.79 22.1 210.543 22.02 210.37 21.86C210.197 21.6867 210.11 21.4533 210.11 21.16C210.11 20.8533 210.197 20.62 210.37 20.46C210.543 20.3 210.79 20.22 211.11 20.22H212.15V18.4C212.15 17.9867 212.257 17.6733 212.47 17.46C212.697 17.2467 213.01 17.14 213.41 17.14C213.81 17.14 214.117 17.2467 214.33 17.46C214.543 17.6733 214.65 17.9867 214.65 18.4V20.22H216.77C217.09 20.22 217.337 20.3 217.51 20.46C217.683 20.62 217.77 20.8533 217.77 21.16C217.77 21.4533 217.683 21.6867 217.51 21.86C217.337 22.02 217.09 22.1 216.77 22.1H214.65V26.22C214.65 26.86 214.79 27.34 215.07 27.66C215.35 27.98 215.803 28.14 216.43 28.14C216.657 28.14 216.857 28.12 217.03 28.08C217.203 28.04 217.357 28.0133 217.49 28C217.65 27.9867 217.783 28.04 217.89 28.16C217.997 28.2667 218.05 28.4933 218.05 28.84C218.05 29.1067 218.003 29.3467 217.91 29.56C217.83 29.76 217.677 29.9 217.45 29.98C217.277 30.0333 217.05 30.08 216.77 30.12C216.49 30.1733 216.243 30.2 216.03 30.2ZM222.806 30.2C222.232 30.2 221.626 30.14 220.986 30.02C220.346 29.9 219.772 29.6933 219.266 29.4C219.052 29.2667 218.899 29.1133 218.806 28.94C218.726 28.7533 218.692 28.5733 218.706 28.4C218.732 28.2133 218.799 28.0533 218.906 27.92C219.026 27.7867 219.172 27.7 219.346 27.66C219.532 27.62 219.732 27.6533 219.946 27.76C220.479 28.0133 220.979 28.1933 221.446 28.3C221.912 28.3933 222.372 28.44 222.826 28.44C223.466 28.44 223.939 28.3333 224.246 28.12C224.566 27.8933 224.726 27.6 224.726 27.24C224.726 26.9333 224.619 26.7 224.406 26.54C224.206 26.3667 223.899 26.24 223.486 26.16L221.486 25.78C220.659 25.62 220.026 25.32 219.586 24.88C219.159 24.4267 218.946 23.8467 218.946 23.14C218.946 22.5 219.119 21.9467 219.466 21.48C219.826 21.0133 220.319 20.6533 220.946 20.4C221.572 20.1467 222.292 20.02 223.106 20.02C223.692 20.02 224.239 20.0867 224.746 20.22C225.266 20.34 225.766 20.5333 226.246 20.8C226.446 20.9067 226.579 21.0467 226.646 21.22C226.726 21.3933 226.746 21.5733 226.706 21.76C226.666 21.9333 226.586 22.0933 226.466 22.24C226.346 22.3733 226.192 22.46 226.006 22.5C225.832 22.5267 225.632 22.4867 225.406 22.38C224.992 22.1667 224.592 22.0133 224.206 21.92C223.832 21.8267 223.472 21.78 223.126 21.78C222.472 21.78 221.986 21.8933 221.666 22.12C221.359 22.3467 221.206 22.6467 221.206 23.02C221.206 23.3 221.299 23.5333 221.486 23.72C221.672 23.9067 221.959 24.0333 222.346 24.1L224.346 24.48C225.212 24.64 225.866 24.9333 226.306 25.36C226.759 25.7867 226.986 26.36 226.986 27.08C226.986 28.0533 226.606 28.82 225.846 29.38C225.086 29.9267 224.072 30.2 222.806 30.2Z" fill="black"/>
<path d="M73.26 80.34V68.56C73.26 68.2533 73.5267 68.1 74.06 68.1C74.5933 68.1 74.86 68.2533 74.86 68.56V80.14C74.86 81.2333 74.4933 82.0333 73.76 82.54C73.0267 83.0467 72.1133 83.3 71.02 83.3C69.9267 83.3 69.0133 83.0467 68.28 82.54C67.56 82.0333 67.2 81.2333 67.2 80.14V77.7C67.2 77.3933 67.4667 77.24 68 77.24C68.5333 77.24 68.8 77.3933 68.8 77.7V80.34C68.8 81.38 69.54 81.9 71.02 81.9C72.5133 81.9 73.26 81.38 73.26 80.34ZM84.3186 83H81.9786C80.8053 83 79.9586 82.76 79.4386 82.28C78.9186 81.8 78.6586 80.9867 78.6586 79.84V79.68C78.6586 78.5467 78.8919 77.7667 79.3586 77.34C79.8253 76.9133 80.6586 76.64 81.8586 76.52L85.3186 76.18V73.96C85.3186 72.92 84.4119 72.4 82.5986 72.4H79.8586C79.5919 72.4 79.4586 72.1667 79.4586 71.7C79.4586 71.2333 79.5919 71 79.8586 71H82.5986C83.9053 71 84.9519 71.2533 85.7386 71.76C86.5253 72.2533 86.9186 73.0533 86.9186 74.16V80.06C86.9186 80.9267 87.0719 81.6133 87.3786 82.12C87.4719 82.28 87.5186 82.38 87.5186 82.42C87.5186 82.58 87.3919 82.7533 87.1386 82.94C86.8853 83.1133 86.6719 83.2 86.4986 83.2C86.2053 83.2 85.9319 82.9267 85.6786 82.38C85.4386 81.82 85.3186 81.1133 85.3186 80.26V77.58L81.9786 77.92C81.2586 78 80.7919 78.16 80.5786 78.4C80.3653 78.64 80.2586 79.0667 80.2586 79.68V79.84C80.2586 80.48 80.3653 80.9333 80.5786 81.2C80.8053 81.4667 81.2719 81.6 81.9786 81.6H84.3186C84.5853 81.6 84.7186 81.8333 84.7186 82.3C84.7186 82.7667 84.5853 83 84.3186 83ZM91.3094 82.64V73.86C91.3094 72.7667 91.6894 71.9667 92.4494 71.46C93.2227 70.9533 94.2894 70.7 95.6494 70.7C97.0094 70.7 98.0494 71.0533 98.7694 71.76C99.476 71.0533 100.509 70.7 101.869 70.7C104.776 70.7 106.229 71.7533 106.229 73.86V82.64C106.229 82.9467 105.963 83.1 105.429 83.1C104.896 83.1 104.629 82.9467 104.629 82.64V73.66C104.629 72.62 103.783 72.1 102.089 72.1C100.409 72.1 99.5694 72.6333 99.5694 73.7V82.64C99.5694 82.9467 99.3027 83.1 98.7694 83.1C98.236 83.1 97.9694 82.9467 97.9694 82.64V73.66C97.9694 72.62 97.1227 72.1 95.4294 72.1C93.7494 72.1 92.9094 72.62 92.9094 73.66V82.64C92.9094 82.9467 92.6427 83.1 92.1094 83.1C91.576 83.1 91.3094 82.9467 91.3094 82.64ZM119.186 73.82V74.42C119.186 75.5533 118.952 76.3333 118.486 76.76C118.019 77.1867 117.166 77.46 115.926 77.58L112.026 77.96V80.34C112.026 81.38 112.892 81.9 114.626 81.9C116.599 81.9 117.586 81.4467 117.586 80.54V79.78C117.586 79.4733 117.852 79.32 118.386 79.32C118.919 79.32 119.186 79.4733 119.186 79.78V80.34C119.186 82.3133 117.719 83.3 114.786 83.3C113.492 83.3 112.439 83.0467 111.626 82.54C110.826 82.0333 110.426 81.2333 110.426 80.14V73.86C110.426 72.7533 110.852 71.9533 111.706 71.46C112.559 70.9533 113.672 70.7 115.046 70.7C116.419 70.7 117.452 70.94 118.146 71.42C118.839 71.9 119.186 72.7 119.186 73.82ZM112.026 73.66V76.56L115.786 76.18C116.546 76.1 117.032 75.94 117.246 75.7C117.472 75.46 117.586 75.0333 117.586 74.42V73.66C117.586 72.62 116.659 72.1 114.806 72.1C112.952 72.1 112.026 72.62 112.026 73.66ZM130.08 74.46V73.68C130.08 72.6267 129.22 72.1 127.5 72.1C126.766 72.1 126.166 72.22 125.7 72.46C125.233 72.7 125 73.08 125 73.6V74.04C125 74.76 125.093 75.2333 125.28 75.46C125.466 75.6733 125.866 75.8533 126.48 76L128.22 76.44C129.873 76.8667 130.853 77.28 131.16 77.68C131.533 78.1733 131.72 78.8267 131.72 79.64V80.36C131.72 81.4 131.313 82.1533 130.5 82.62C129.7 83.0733 128.66 83.3 127.38 83.3C125.3 83.3 123.98 82.7733 123.42 81.72C123.193 81.28 123.08 80.7467 123.08 80.12V79.48C123.08 79.3067 123.14 79.1933 123.26 79.14C123.38 79.0733 123.586 79.04 123.88 79.04C124.4 79.04 124.66 79.2067 124.66 79.54V80.44C124.66 80.9733 124.893 81.3533 125.36 81.58C125.826 81.7933 126.506 81.9 127.4 81.9C129.226 81.9 130.14 81.4333 130.14 80.5V79.44C130.14 79.0267 129.98 78.7067 129.66 78.48C129.353 78.2533 128.82 78.04 128.06 77.84L126.3 77.4C125.113 77.1067 124.333 76.76 123.96 76.36C123.6 75.9467 123.42 75.1533 123.42 73.98V73.74C123.446 72.6733 123.826 71.9 124.56 71.42C125.293 70.94 126.26 70.7 127.46 70.7C130.26 70.7 131.66 71.74 131.66 73.82V74.52C131.66 74.8 131.393 74.94 130.86 74.94C130.34 74.94 130.08 74.78 130.08 74.46ZM150.119 74.46V73.68C150.119 72.6267 149.259 72.1 147.539 72.1C146.805 72.1 146.205 72.22 145.739 72.46C145.272 72.7 145.039 73.08 145.039 73.6V74.04C145.039 74.76 145.132 75.2333 145.319 75.46C145.505 75.6733 145.905 75.8533 146.519 76L148.259 76.44C149.912 76.8667 150.892 77.28 151.199 77.68C151.572 78.1733 151.759 78.8267 151.759 79.64V80.36C151.759 81.4 151.352 82.1533 150.539 82.62C149.739 83.0733 148.699 83.3 147.419 83.3C145.339 83.3 144.019 82.7733 143.459 81.72C143.232 81.28 143.119 80.7467 143.119 80.12V79.48C143.119 79.3067 143.179 79.1933 143.299 79.14C143.419 79.0733 143.625 79.04 143.919 79.04C144.439 79.04 144.699 79.2067 144.699 79.54V80.44C144.699 80.9733 144.932 81.3533 145.399 81.58C145.865 81.7933 146.545 81.9 147.439 81.9C149.265 81.9 150.179 81.4333 150.179 80.5V79.44C150.179 79.0267 150.019 78.7067 149.699 78.48C149.392 78.2533 148.859 78.04 148.099 77.84L146.339 77.4C145.152 77.1067 144.372 76.76 143.999 76.36C143.639 75.9467 143.459 75.1533 143.459 73.98V73.74C143.485 72.6733 143.865 71.9 144.599 71.42C145.332 70.94 146.299 70.7 147.499 70.7C150.299 70.7 151.699 71.74 151.699 73.82V74.52C151.699 74.8 151.432 74.94 150.899 74.94C150.379 74.94 150.119 74.78 150.119 74.46ZM161.115 83H158.775C157.602 83 156.755 82.76 156.235 82.28C155.715 81.8 155.455 80.9867 155.455 79.84V79.68C155.455 78.5467 155.689 77.7667 156.155 77.34C156.622 76.9133 157.455 76.64 158.655 76.52L162.115 76.18V73.96C162.115 72.92 161.209 72.4 159.395 72.4H156.655C156.389 72.4 156.255 72.1667 156.255 71.7C156.255 71.2333 156.389 71 156.655 71H159.395C160.702 71 161.749 71.2533 162.535 71.76C163.322 72.2533 163.715 73.0533 163.715 74.16V80.06C163.715 80.9267 163.869 81.6133 164.175 82.12C164.269 82.28 164.315 82.38 164.315 82.42C164.315 82.58 164.189 82.7533 163.935 82.94C163.682 83.1133 163.469 83.2 163.295 83.2C163.002 83.2 162.729 82.9267 162.475 82.38C162.235 81.82 162.115 81.1133 162.115 80.26V77.58L158.775 77.92C158.055 78 157.589 78.16 157.375 78.4C157.162 78.64 157.055 79.0667 157.055 79.68V79.84C157.055 80.48 157.162 80.9333 157.375 81.2C157.602 81.4667 158.069 81.6 158.775 81.6H161.115C161.382 81.6 161.515 81.8333 161.515 82.3C161.515 82.7667 161.382 83 161.115 83ZM174.246 82.66C173.806 83.0867 173.06 83.3 172.006 83.3C170.953 83.3 170.206 83.0867 169.766 82.66C169.326 82.2333 169.026 81.5333 168.866 80.56L167.386 71.72C167.346 71.44 167.326 71.2867 167.326 71.26C167.326 71.02 167.58 70.9 168.086 70.9C168.593 70.9 168.873 71.0533 168.926 71.36L170.426 80.34C170.52 80.9133 170.666 81.32 170.866 81.56C171.08 81.7867 171.46 81.9 172.006 81.9C172.553 81.9 172.926 81.7867 173.126 81.56C173.34 81.32 173.493 80.9133 173.586 80.34L175.086 71.36C175.14 71.0533 175.42 70.9 175.926 70.9C176.433 70.9 176.686 71.02 176.686 71.26C176.686 71.2867 176.666 71.44 176.626 71.72L175.146 80.56C174.986 81.5333 174.686 82.2333 174.246 82.66ZM188.873 73.82V74.42C188.873 75.5533 188.64 76.3333 188.173 76.76C187.707 77.1867 186.853 77.46 185.613 77.58L181.713 77.96V80.34C181.713 81.38 182.58 81.9 184.313 81.9C186.287 81.9 187.273 81.4467 187.273 80.54V79.78C187.273 79.4733 187.54 79.32 188.073 79.32C188.607 79.32 188.873 79.4733 188.873 79.78V80.34C188.873 82.3133 187.407 83.3 184.473 83.3C183.18 83.3 182.127 83.0467 181.313 82.54C180.513 82.0333 180.113 81.2333 180.113 80.14V73.86C180.113 72.7533 180.54 71.9533 181.393 71.46C182.247 70.9533 183.36 70.7 184.733 70.7C186.107 70.7 187.14 70.94 187.833 71.42C188.527 71.9 188.873 72.7 188.873 73.82ZM181.713 73.66V76.56L185.473 76.18C186.233 76.1 186.72 75.94 186.933 75.7C187.16 75.46 187.273 75.0333 187.273 74.42V73.66C187.273 72.62 186.347 72.1 184.493 72.1C182.64 72.1 181.713 72.62 181.713 73.66ZM201.527 67.46V80.14C201.527 81.2467 201.134 82.0533 200.347 82.56C199.561 83.0533 198.514 83.3 197.207 83.3C195.901 83.3 194.847 83.0533 194.047 82.56C193.261 82.0533 192.867 81.2467 192.867 80.14V74.16C192.867 73.0533 193.261 72.2533 194.047 71.76C194.834 71.2533 195.881 71 197.187 71H198.927C199.194 71 199.327 71.2333 199.327 71.7C199.327 72.1667 199.194 72.4 198.927 72.4H197.187C195.374 72.4 194.467 72.92 194.467 73.96V80.34C194.467 81.38 195.374 81.9 197.187 81.9C199.014 81.9 199.927 81.38 199.927 80.34V67.46C199.927 67.1533 200.194 67 200.727 67C201.261 67 201.527 67.1533 201.527 67.46ZM220.921 83H214.121C213.854 83 213.721 82.7667 213.721 82.3C213.721 81.8333 213.854 81.6 214.121 81.6H216.721V69.6H214.121C213.854 69.6 213.721 69.3667 213.721 68.9C213.721 68.4333 213.854 68.2 214.121 68.2H217.121C217.628 68.2 217.954 68.3067 218.101 68.52C218.248 68.72 218.321 69.0933 218.321 69.64V81.6H220.921C221.188 81.6 221.321 81.8333 221.321 82.3C221.321 82.7667 221.188 83 220.921 83ZM233.573 71.52V71.86C233.573 72.6333 233.147 73.54 232.293 74.58L226.493 81.6H233.173C233.44 81.6 233.573 81.8333 233.573 82.3C233.573 82.7667 233.44 83 233.173 83H224.713C224.447 83 224.313 82.7667 224.313 82.3C224.313 82.02 224.373 81.8067 224.493 81.66L230.853 73.96C231.253 73.4667 231.54 73.06 231.713 72.74C231.887 72.42 231.973 72.0933 231.973 71.76V71.52C231.973 70.84 231.853 70.3533 231.613 70.06C231.387 69.7533 230.987 69.6 230.413 69.6H225.573C225.307 69.6 225.173 69.3667 225.173 68.9C225.173 68.4333 225.307 68.2 225.573 68.2H230.413C231.56 68.2 232.373 68.4667 232.853 69C233.333 69.5333 233.573 70.3733 233.573 71.52ZM253.945 75.28V81.04C253.945 81.7867 253.659 82.3333 253.085 82.68C252.525 83.0267 251.779 83.2 250.845 83.2C248.805 83.2 247.785 82.48 247.785 81.04V75.28C247.785 74.5333 248.072 73.9933 248.645 73.66C249.232 73.3133 249.992 73.14 250.925 73.14C252.939 73.14 253.945 73.8533 253.945 75.28ZM249.085 75.14V81.18C249.085 81.74 249.679 82.02 250.865 82.02C252.065 82.02 252.665 81.74 252.665 81.18V75.14C252.665 74.58 252.065 74.3 250.865 74.3C249.679 74.3 249.085 74.58 249.085 75.14ZM242.665 70.16V75.92C242.665 76.6667 242.379 77.2133 241.805 77.56C241.245 77.9067 240.499 78.08 239.565 78.08C237.525 78.08 236.505 77.36 236.505 75.92V70.16C236.505 69.4133 236.792 68.8733 237.365 68.54C237.952 68.1933 238.712 68.02 239.645 68.02C241.659 68.02 242.665 68.7333 242.665 70.16ZM237.805 70.02V76.06C237.805 76.62 238.399 76.9 239.585 76.9C240.785 76.9 241.385 76.62 241.385 76.06V70.02C241.385 69.46 240.785 69.18 239.585 69.18C238.399 69.18 237.805 69.46 237.805 70.02ZM244.285 82.84C244.219 83.1467 244.005 83.3 243.645 83.3C243.285 83.3 243.105 83.1867 243.105 82.96L246.145 68.36C246.212 68.0533 246.425 67.9 246.785 67.9C247.145 67.9 247.325 68.0133 247.325 68.24L244.285 82.84ZM70.6 98.66V105.34C70.6 106.38 71.4533 106.9 73.16 106.9C74.8667 106.9 75.72 106.38 75.72 105.34V104.5C75.72 104.193 75.9867 104.04 76.52 104.04C77.0533 104.04 77.32 104.193 77.32 104.5V105.14C77.32 106.247 76.94 107.053 76.18 107.56C75.4333 108.053 74.4267 108.3 73.16 108.3C71.9067 108.3 70.9 108.053 70.14 107.56C69.38 107.053 69 106.247 69 105.14V98.86C69 97.7533 69.38 96.9533 70.14 96.46C70.9 95.9533 71.9067 95.7 73.16 95.7C74.4267 95.7 75.4333 95.9533 76.18 96.46C76.94 96.9533 77.32 97.7533 77.32 98.86V99.5C77.32 99.8067 77.0533 99.96 76.52 99.96C75.9867 99.96 75.72 99.8067 75.72 99.5V98.66C75.72 97.62 74.8667 97.1 73.16 97.1C71.4533 97.1 70.6 97.62 70.6 98.66ZM86.1741 108H83.8341C82.6607 108 81.8141 107.76 81.2941 107.28C80.7741 106.8 80.5141 105.987 80.5141 104.84V104.68C80.5141 103.547 80.7474 102.767 81.2141 102.34C81.6807 101.913 82.5141 101.64 83.7141 101.52L87.1741 101.18V98.96C87.1741 97.92 86.2674 97.4 84.4541 97.4H81.7141C81.4474 97.4 81.3141 97.1667 81.3141 96.7C81.3141 96.2333 81.4474 96 81.7141 96H84.4541C85.7607 96 86.8074 96.2533 87.5941 96.76C88.3807 97.2533 88.7741 98.0533 88.7741 99.16V105.06C88.7741 105.927 88.9274 106.613 89.2341 107.12C89.3274 107.28 89.3741 107.38 89.3741 107.42C89.3741 107.58 89.2474 107.753 88.9941 107.94C88.7407 108.113 88.5274 108.2 88.3541 108.2C88.0607 108.2 87.7874 107.927 87.5341 107.38C87.2941 106.82 87.1741 106.113 87.1741 105.26V102.58L83.8341 102.92C83.1141 103 82.6474 103.16 82.4341 103.4C82.2207 103.64 82.1141 104.067 82.1141 104.68V104.84C82.1141 105.48 82.2207 105.933 82.4341 106.2C82.6607 106.467 83.1274 106.6 83.8341 106.6H86.1741C86.4407 106.6 86.5741 106.833 86.5741 107.3C86.5741 107.767 86.4407 108 86.1741 108ZM98.4848 99.66V98.66C98.4848 97.62 97.8648 97.1 96.6248 97.1C95.3848 97.1 94.7648 97.62 94.7648 98.66V107.84C94.7648 108.147 94.4982 108.3 93.9648 108.3C93.4315 108.3 93.1648 108.147 93.1648 107.84V98.86C93.1648 97.7533 93.4782 96.9533 94.1048 96.46C94.7448 95.9533 95.5848 95.7 96.6248 95.7C98.9315 95.7 100.085 96.74 100.085 98.82V99.66C100.085 99.9667 99.8182 100.12 99.2848 100.12C98.7515 100.12 98.4848 99.9667 98.4848 99.66ZM107.017 97.4H105.277C105.01 97.4 104.877 97.1667 104.877 96.7C104.877 96.2333 105.01 96 105.277 96H107.017C108.323 96 109.37 96.2533 110.157 96.76C110.943 97.2533 111.337 98.0533 111.337 99.16V105.14C111.337 106.247 110.937 107.053 110.137 107.56C109.35 108.053 108.303 108.3 106.997 108.3C105.69 108.3 104.643 108.053 103.857 107.56C103.07 107.053 102.677 106.247 102.677 105.14V92.46C102.677 92.1533 102.943 92 103.477 92C104.01 92 104.277 92.1533 104.277 92.46V105.34C104.277 106.38 105.183 106.9 106.997 106.9C108.823 106.9 109.737 106.38 109.737 105.34V98.96C109.737 97.92 108.83 97.4 107.017 97.4ZM122.388 105.34V98.66C122.388 97.62 121.475 97.1 119.648 97.1C117.835 97.1 116.928 97.62 116.928 98.66V105.34C116.928 106.38 117.835 106.9 119.648 106.9C121.475 106.9 122.388 106.38 122.388 105.34ZM123.988 98.86V105.14C123.988 106.247 123.595 107.053 122.808 107.56C122.021 108.053 120.975 108.3 119.668 108.3C118.361 108.3 117.308 108.053 116.508 107.56C115.721 107.053 115.328 106.247 115.328 105.14V98.86C115.328 97.7533 115.721 96.9533 116.508 96.46C117.295 95.9533 118.341 95.7 119.648 95.7C120.955 95.7 122.001 95.9533 122.788 96.46C123.588 96.9533 123.988 97.7533 123.988 98.86ZM136.844 98.86V107.64C136.844 107.947 136.578 108.1 136.044 108.1C135.511 108.1 135.244 107.947 135.244 107.64V98.66C135.244 97.62 134.331 97.1 132.504 97.1C130.691 97.1 129.784 97.62 129.784 98.66V107.64C129.784 107.947 129.518 108.1 128.984 108.1C128.451 108.1 128.184 107.947 128.184 107.64V98.86C128.184 97.7533 128.578 96.9533 129.364 96.46C130.151 95.9533 131.198 95.7 132.504 95.7C133.811 95.7 134.858 95.9533 135.644 96.46C136.444 96.9533 136.844 97.7533 136.844 98.86ZM152.993 97.4H151.253C150.986 97.4 150.853 97.1667 150.853 96.7C150.853 96.2333 150.986 96 151.253 96H152.993C154.3 96 155.346 96.2533 156.133 96.76C156.92 97.2533 157.313 98.0533 157.313 99.16V105.14C157.313 106.247 156.913 107.053 156.113 107.56C155.326 108.053 154.28 108.3 152.973 108.3C151.666 108.3 150.62 108.053 149.833 107.56C149.046 107.053 148.653 106.247 148.653 105.14V92.46C148.653 92.1533 148.92 92 149.453 92C149.986 92 150.253 92.1533 150.253 92.46V105.34C150.253 106.38 151.16 106.9 152.973 106.9C154.8 106.9 155.713 106.38 155.713 105.34V98.96C155.713 97.92 154.806 97.4 152.993 97.4ZM164.165 113H162.725C162.458 113 162.325 112.767 162.325 112.3C162.325 111.833 162.458 111.6 162.725 111.6H164.165C164.911 111.6 165.425 111.487 165.705 111.26C165.985 111.047 166.178 110.64 166.285 110.04L166.565 108.3H165.405C164.351 108.3 163.605 108.087 163.165 107.66C162.725 107.233 162.425 106.533 162.265 105.56L160.805 96.76C160.751 96.4533 160.725 96.2867 160.725 96.26C160.725 96.02 160.978 95.9 161.485 95.9C161.991 95.9 162.271 96.0533 162.325 96.36L163.825 105.34C163.918 105.913 164.065 106.32 164.265 106.56C164.478 106.787 164.858 106.9 165.405 106.9H166.805L168.565 96.36C168.618 96.0533 168.885 95.9 169.365 95.9C169.845 95.9 170.085 96.02 170.085 96.26C170.085 96.2867 170.065 96.44 170.025 96.72L167.805 109.84C167.591 111.107 167.251 111.947 166.785 112.36C166.318 112.787 165.445 113 164.165 113ZM182.514 98.66V105.34C182.514 106.38 183.367 106.9 185.074 106.9C186.781 106.9 187.634 106.38 187.634 105.34V104.5C187.634 104.193 187.901 104.04 188.434 104.04C188.967 104.04 189.234 104.193 189.234 104.5V105.14C189.234 106.247 188.854 107.053 188.094 107.56C187.347 108.053 186.341 108.3 185.074 108.3C183.821 108.3 182.814 108.053 182.054 107.56C181.294 107.053 180.914 106.247 180.914 105.14V98.86C180.914 97.7533 181.294 96.9533 182.054 96.46C182.814 95.9533 183.821 95.7 185.074 95.7C186.341 95.7 187.347 95.9533 188.094 96.46C188.854 96.9533 189.234 97.7533 189.234 98.86V99.5C189.234 99.8067 188.967 99.96 188.434 99.96C187.901 99.96 187.634 99.8067 187.634 99.5V98.66C187.634 97.62 186.781 97.1 185.074 97.1C183.367 97.1 182.514 97.62 182.514 98.66ZM195.688 113H194.248C193.981 113 193.848 112.767 193.848 112.3C193.848 111.833 193.981 111.6 194.248 111.6H195.688C196.435 111.6 196.948 111.487 197.228 111.26C197.508 111.047 197.701 110.64 197.808 110.04L198.088 108.3H196.928C195.875 108.3 195.128 108.087 194.688 107.66C194.248 107.233 193.948 106.533 193.788 105.56L192.328 96.76C192.275 96.4533 192.248 96.2867 192.248 96.26C192.248 96.02 192.501 95.9 193.008 95.9C193.515 95.9 193.795 96.0533 193.848 96.36L195.348 105.34C195.441 105.913 195.588 106.32 195.788 106.56C196.001 106.787 196.381 106.9 196.928 106.9H198.328L200.088 96.36C200.141 96.0533 200.408 95.9 200.888 95.9C201.368 95.9 201.608 96.02 201.608 96.26C201.608 96.2867 201.588 96.44 201.548 96.72L199.328 109.84C199.115 111.107 198.775 111.947 198.308 112.36C197.841 112.787 196.968 113 195.688 113ZM206.635 98.66V105.34C206.635 106.38 207.488 106.9 209.195 106.9C210.902 106.9 211.755 106.38 211.755 105.34V104.5C211.755 104.193 212.022 104.04 212.555 104.04C213.088 104.04 213.355 104.193 213.355 104.5V105.14C213.355 106.247 212.975 107.053 212.215 107.56C211.468 108.053 210.462 108.3 209.195 108.3C207.942 108.3 206.935 108.053 206.175 107.56C205.415 107.053 205.035 106.247 205.035 105.14V98.86C205.035 97.7533 205.415 96.9533 206.175 96.46C206.935 95.9533 207.942 95.7 209.195 95.7C210.462 95.7 211.468 95.9533 212.215 96.46C212.975 96.9533 213.355 97.7533 213.355 98.86V99.5C213.355 99.8067 213.088 99.96 212.555 99.96C212.022 99.96 211.755 99.8067 211.755 99.5V98.66C211.755 97.62 210.902 97.1 209.195 97.1C207.488 97.1 206.635 97.62 206.635 98.66ZM218.749 92.46V105.66C218.749 106.087 218.849 106.487 219.049 106.86C219.249 107.22 219.349 107.407 219.349 107.42C219.349 107.58 219.223 107.753 218.969 107.94C218.716 108.113 218.503 108.2 218.329 108.2C218.049 108.2 217.783 107.96 217.529 107.48C217.276 106.987 217.149 106.447 217.149 105.86V92.46C217.149 92.1533 217.416 92 217.949 92C218.483 92 218.749 92.1533 218.749 92.46ZM224.745 96.36V105.66C224.745 106.087 224.845 106.487 225.045 106.86C225.245 107.22 225.345 107.407 225.345 107.42C225.345 107.58 225.219 107.753 224.965 107.94C224.712 108.113 224.499 108.2 224.325 108.2C224.045 108.2 223.779 107.96 223.525 107.48C223.272 106.987 223.145 106.447 223.145 105.86V96.36C223.145 96.0533 223.412 95.9 223.945 95.9C224.479 95.9 224.745 96.0533 224.745 96.36ZM224.805 92.1V93.84C224.805 94.1733 224.512 94.34 223.925 94.34C223.352 94.34 223.065 94.1733 223.065 93.84V92.1C223.065 91.7667 223.352 91.6 223.925 91.6C224.512 91.6 224.805 91.7667 224.805 92.1ZM237.801 98.86V107.64C237.801 107.947 237.535 108.1 237.001 108.1C236.468 108.1 236.201 107.947 236.201 107.64V98.66C236.201 97.62 235.288 97.1 233.461 97.1C231.648 97.1 230.741 97.62 230.741 98.66V107.64C230.741 107.947 230.475 108.1 229.941 108.1C229.408 108.1 229.141 107.947 229.141 107.64V98.86C229.141 97.7533 229.535 96.9533 230.321 96.46C231.108 95.9533 232.155 95.7 233.461 95.7C234.768 95.7 235.815 95.9533 236.601 96.46C237.401 96.9533 237.801 97.7533 237.801 98.86ZM250.668 99.16V105.6C250.668 105.907 250.401 106.06 249.868 106.06C249.334 106.06 249.068 105.907 249.068 105.6V98.96C249.068 97.9733 248.234 97.4533 246.568 97.4H246.348C244.521 97.4 243.608 97.92 243.608 98.96V104.48C243.608 105.253 243.721 105.8 243.948 106.12C244.188 106.44 244.594 106.6 245.168 106.6H246.748C248.014 106.6 248.981 106.847 249.648 107.34C250.328 107.833 250.668 108.64 250.668 109.76V109.84C250.668 110.96 250.328 111.767 249.648 112.26C248.981 112.753 248.014 113 246.748 113H242.208C241.941 113 241.808 112.767 241.808 112.3C241.808 111.833 241.941 111.6 242.208 111.6H246.748C247.534 111.6 248.114 111.48 248.488 111.24C248.874 111 249.068 110.6 249.068 110.04V109.56C249.068 109 248.874 108.6 248.488 108.36C248.114 108.12 247.534 108 246.748 108H245.168C244.021 108 243.208 107.727 242.728 107.18C242.248 106.62 242.008 105.72 242.008 104.48V99.16C242.008 98.0533 242.401 97.2533 243.188 96.76C243.988 96.2533 245.041 96 246.348 96H249.148C250.014 96 250.701 95.8533 251.208 95.56C251.368 95.4533 251.468 95.4 251.508 95.4C251.668 95.4 251.834 95.5267 252.008 95.78C252.194 96.0333 252.288 96.2467 252.288 96.42C252.288 96.66 252.088 96.8667 251.688 97.04C251.301 97.2133 250.781 97.3267 250.128 97.38C250.488 97.8733 250.668 98.4667 250.668 99.16ZM71.6 118.66V121H73.7C73.9667 121 74.1 121.233 74.1 121.7C74.1 122.167 73.9667 122.4 73.7 122.4H71.6V130.66C71.6 131.087 71.7 131.487 71.9 131.86C72.1 132.22 72.2 132.407 72.2 132.42C72.2 132.58 72.0733 132.753 71.82 132.94C71.5667 133.113 71.3533 133.2 71.18 133.2C70.9 133.2 70.6333 132.96 70.38 132.48C70.1267 131.987 70 131.447 70 130.86V122.4H68.4C68.1333 122.4 68 122.167 68 121.7C68 121.233 68.1333 121 68.4 121H70V118.66C70 118.353 70.2667 118.2 70.8 118.2C71.3333 118.2 71.6 118.353 71.6 118.66ZM85.7553 123.86V132.64C85.7553 132.947 85.4886 133.1 84.9553 133.1C84.422 133.1 84.1553 132.947 84.1553 132.64V123.66C84.1553 122.62 83.242 122.1 81.4153 122.1C79.602 122.1 78.6953 122.62 78.6953 123.66V132.64C78.6953 132.947 78.4286 133.1 77.8953 133.1C77.362 133.1 77.0953 132.947 77.0953 132.64V117.46C77.0953 117.153 77.362 117 77.8953 117C78.4286 117 78.6953 117.153 78.6953 117.46V121.52C79.4286 120.973 80.3886 120.7 81.5753 120.7C82.7753 120.7 83.7686 120.953 84.5553 121.46C85.3553 121.953 85.7553 122.753 85.7553 123.86ZM91.757 121.36V130.66C91.757 131.087 91.857 131.487 92.057 131.86C92.257 132.22 92.357 132.407 92.357 132.42C92.357 132.58 92.2304 132.753 91.977 132.94C91.7237 133.113 91.5104 133.2 91.337 133.2C91.057 133.2 90.7904 132.96 90.537 132.48C90.2837 131.987 90.157 131.447 90.157 130.86V121.36C90.157 121.053 90.4237 120.9 90.957 120.9C91.4904 120.9 91.757 121.053 91.757 121.36ZM91.817 117.1V118.84C91.817 119.173 91.5237 119.34 90.937 119.34C90.3637 119.34 90.077 119.173 90.077 118.84V117.1C90.077 116.767 90.3637 116.6 90.937 116.6C91.5237 116.6 91.817 116.767 91.817 117.1ZM102.853 124.46V123.68C102.853 122.627 101.993 122.1 100.273 122.1C99.5398 122.1 98.9398 122.22 98.4731 122.46C98.0065 122.7 97.7731 123.08 97.7731 123.6V124.04C97.7731 124.76 97.8665 125.233 98.0531 125.46C98.2398 125.673 98.6398 125.853 99.2531 126L100.993 126.44C102.646 126.867 103.626 127.28 103.933 127.68C104.306 128.173 104.493 128.827 104.493 129.64V130.36C104.493 131.4 104.086 132.153 103.273 132.62C102.473 133.073 101.433 133.3 100.153 133.3C98.0731 133.3 96.7531 132.773 96.1931 131.72C95.9665 131.28 95.8531 130.747 95.8531 130.12V129.48C95.8531 129.307 95.9131 129.193 96.0331 129.14C96.1531 129.073 96.3598 129.04 96.6531 129.04C97.1731 129.04 97.4331 129.207 97.4331 129.54V130.44C97.4331 130.973 97.6665 131.353 98.1331 131.58C98.5998 131.793 99.2798 131.9 100.173 131.9C102 131.9 102.913 131.433 102.913 130.5V129.44C102.913 129.027 102.753 128.707 102.433 128.48C102.126 128.253 101.593 128.04 100.833 127.84L99.0731 127.4C97.8865 127.107 97.1065 126.76 96.7331 126.36C96.3731 125.947 96.1931 125.153 96.1931 123.98V123.74C96.2198 122.673 96.5998 121.9 97.3331 121.42C98.0665 120.94 99.0331 120.7 100.233 120.7C103.033 120.7 104.433 121.74 104.433 123.82V124.52C104.433 124.8 104.166 124.94 103.633 124.94C103.113 124.94 102.853 124.78 102.853 124.46ZM116.192 132.64V123.86C116.192 122.767 116.572 121.967 117.332 121.46C118.106 120.953 119.172 120.7 120.532 120.7C121.892 120.7 122.932 121.053 123.652 121.76C124.359 121.053 125.392 120.7 126.752 120.7C129.659 120.7 131.112 121.753 131.112 123.86V132.64C131.112 132.947 130.846 133.1 130.312 133.1C129.779 133.1 129.512 132.947 129.512 132.64V123.66C129.512 122.62 128.666 122.1 126.972 122.1C125.292 122.1 124.452 122.633 124.452 123.7V132.64C124.452 132.947 124.186 133.1 123.652 133.1C123.119 133.1 122.852 132.947 122.852 132.64V123.66C122.852 122.62 122.006 122.1 120.312 122.1C118.632 122.1 117.792 122.62 117.792 123.66V132.64C117.792 132.947 117.526 133.1 116.992 133.1C116.459 133.1 116.192 132.947 116.192 132.64ZM142.369 130.34V123.66C142.369 122.62 141.455 122.1 139.629 122.1C137.815 122.1 136.909 122.62 136.909 123.66V130.34C136.909 131.38 137.815 131.9 139.629 131.9C141.455 131.9 142.369 131.38 142.369 130.34ZM143.969 123.86V130.14C143.969 131.247 143.575 132.053 142.789 132.56C142.002 133.053 140.955 133.3 139.649 133.3C138.342 133.3 137.289 133.053 136.489 132.56C135.702 132.053 135.309 131.247 135.309 130.14V123.86C135.309 122.753 135.702 121.953 136.489 121.46C137.275 120.953 138.322 120.7 139.629 120.7C140.935 120.7 141.982 120.953 142.769 121.46C143.569 121.953 143.969 122.753 143.969 123.86ZM156.825 123.86V132.64C156.825 132.947 156.558 133.1 156.025 133.1C155.492 133.1 155.225 132.947 155.225 132.64V123.66C155.225 122.62 154.312 122.1 152.485 122.1C150.672 122.1 149.765 122.62 149.765 123.66V132.64C149.765 132.947 149.498 133.1 148.965 133.1C148.432 133.1 148.165 132.947 148.165 132.64V123.86C148.165 122.753 148.558 121.953 149.345 121.46C150.132 120.953 151.178 120.7 152.485 120.7C153.792 120.7 154.838 120.953 155.625 121.46C156.425 121.953 156.825 122.753 156.825 123.86ZM163.631 118.66V121H165.731C165.998 121 166.131 121.233 166.131 121.7C166.131 122.167 165.998 122.4 165.731 122.4H163.631V130.66C163.631 131.087 163.731 131.487 163.931 131.86C164.131 132.22 164.231 132.407 164.231 132.42C164.231 132.58 164.105 132.753 163.851 132.94C163.598 133.113 163.385 133.2 163.211 133.2C162.931 133.2 162.665 132.96 162.411 132.48C162.158 131.987 162.031 131.447 162.031 130.86V122.4H160.431C160.165 122.4 160.031 122.167 160.031 121.7C160.031 121.233 160.165 121 160.431 121H162.031V118.66C162.031 118.353 162.298 118.2 162.831 118.2C163.365 118.2 163.631 118.353 163.631 118.66ZM177.787 123.86V132.64C177.787 132.947 177.52 133.1 176.987 133.1C176.453 133.1 176.187 132.947 176.187 132.64V123.66C176.187 122.62 175.273 122.1 173.447 122.1C171.633 122.1 170.727 122.62 170.727 123.66V132.64C170.727 132.947 170.46 133.1 169.927 133.1C169.393 133.1 169.127 132.947 169.127 132.64V117.46C169.127 117.153 169.393 117 169.927 117C170.46 117 170.727 117.153 170.727 117.46V121.52C171.46 120.973 172.42 120.7 173.607 120.7C174.807 120.7 175.8 120.953 176.587 121.46C177.387 121.953 177.787 122.753 177.787 123.86Z" fill="black"/>
<g clip-path="url(#clip0_0_1)">
<path d="M324.5 88.3906C331.189 88.3906 336.609 93.8105 336.609 100.5C336.609 107.189 331.189 112.609 324.5 112.609C317.811 112.609 312.391 107.189 312.391 100.5C312.391 93.8105 317.811 88.3906 324.5 88.3906ZM318.836 102.648H324.5V106.11C324.5 106.633 325.135 106.896 325.501 106.525L331.082 100.915C331.312 100.686 331.312 100.319 331.082 100.09L325.501 94.4746C325.13 94.1035 324.5 94.3672 324.5 94.8896V98.3516H318.836C318.514 98.3516 318.25 98.6152 318.25 98.9375V102.062C318.25 102.385 318.514 102.648 318.836 102.648Z" fill="black"/>
</g>
<defs>
<clipPath id="clip0_0_1">
<rect width="25" height="25" fill="white" transform="translate(312 88)"/>
</clipPath>
</defs>
</svg>
