<svg width="345" height="182" viewBox="0 0 345 182" fill="none" xmlns="http://www.w3.org/2000/svg">
<rect width="345" height="182" rx="19" fill="#F5E7E0"/>
<path d="M27.1 30.2C25.6333 30.2 24.3733 29.9067 23.32 29.32C22.28 28.72 21.48 27.88 20.92 26.8C20.36 25.7067 20.08 24.42 20.08 22.94C20.08 21.8333 20.24 20.84 20.56 19.96C20.88 19.0667 21.34 18.3067 21.94 17.68C22.54 17.04 23.2733 16.5533 24.14 16.22C25.02 15.8733 26.0067 15.7 27.1 15.7C27.8333 15.7 28.5533 15.7933 29.26 15.98C29.9667 16.1667 30.5867 16.4333 31.12 16.78C31.4 16.9533 31.5867 17.1667 31.68 17.42C31.7733 17.66 31.7933 17.9 31.74 18.14C31.6867 18.3667 31.5733 18.56 31.4 18.72C31.24 18.88 31.0333 18.9733 30.78 19C30.54 19.0133 30.2733 18.9267 29.98 18.74C29.5667 18.4733 29.12 18.28 28.64 18.16C28.16 18.04 27.6733 17.98 27.18 17.98C26.2333 17.98 25.4333 18.1733 24.78 18.56C24.1267 18.9467 23.6333 19.5067 23.3 20.24C22.9667 20.9733 22.8 21.8733 22.8 22.94C22.8 23.9933 22.9667 24.8933 23.3 25.64C23.6333 26.3867 24.1267 26.9533 24.78 27.34C25.4333 27.7267 26.2333 27.92 27.18 27.92C27.6867 27.92 28.1867 27.86 28.68 27.74C29.1733 27.6067 29.64 27.4067 30.08 27.14C30.3733 26.9667 30.6333 26.8933 30.86 26.92C31.1 26.9333 31.3 27.0133 31.46 27.16C31.62 27.3067 31.7267 27.4933 31.78 27.72C31.8333 27.9333 31.82 28.16 31.74 28.4C31.66 28.6267 31.5 28.8267 31.26 29C30.7267 29.3867 30.0867 29.6867 29.34 29.9C28.6067 30.1 27.86 30.2 27.1 30.2ZM37.6506 30.2C36.6373 30.2 35.7573 29.9933 35.0106 29.58C34.264 29.1667 33.684 28.58 33.2706 27.82C32.8573 27.0467 32.6506 26.14 32.6506 25.1C32.6506 24.3133 32.764 23.6133 32.9906 23C33.2306 22.3733 33.5706 21.84 34.0106 21.4C34.4506 20.9467 34.9773 20.6067 35.5906 20.38C36.204 20.14 36.8906 20.02 37.6506 20.02C38.664 20.02 39.544 20.2267 40.2906 20.64C41.0373 21.0533 41.6173 21.64 42.0306 22.4C42.444 23.16 42.6506 24.06 42.6506 25.1C42.6506 25.8867 42.5306 26.5933 42.2906 27.22C42.064 27.8467 41.7306 28.3867 41.2906 28.84C40.8506 29.28 40.324 29.62 39.7106 29.86C39.0973 30.0867 38.4106 30.2 37.6506 30.2ZM37.6506 28.3C38.144 28.3 38.5773 28.18 38.9506 27.94C39.324 27.7 39.6106 27.3467 39.8106 26.88C40.024 26.4 40.1306 25.8067 40.1306 25.1C40.1306 24.0333 39.904 23.24 39.4506 22.72C38.9973 22.1867 38.3973 21.92 37.6506 21.92C37.1573 21.92 36.724 22.04 36.3506 22.28C35.9773 22.5067 35.684 22.86 35.4706 23.34C35.2706 23.8067 35.1706 24.3933 35.1706 25.1C35.1706 26.1533 35.3973 26.9533 35.8506 27.5C36.304 28.0333 36.904 28.3 37.6506 28.3ZM45.9941 30.16C45.5941 30.16 45.2874 30.0533 45.0741 29.84C44.8607 29.6133 44.7541 29.2933 44.7541 28.88V21.32C44.7541 20.9067 44.8607 20.5933 45.0741 20.38C45.2874 20.1667 45.5874 20.06 45.9741 20.06C46.3607 20.06 46.6607 20.1667 46.8741 20.38C47.0874 20.5933 47.1941 20.9067 47.1941 21.32V22.78L46.9741 22.18C47.2407 21.5133 47.6541 20.9867 48.2141 20.6C48.7741 20.2133 49.4407 20.02 50.2141 20.02C51.0007 20.02 51.6474 20.2067 52.1541 20.58C52.6607 20.9533 53.0141 21.5267 53.2141 22.3H52.9341C53.2007 21.5933 53.6407 21.04 54.2541 20.64C54.8674 20.2267 55.5741 20.02 56.3741 20.02C57.1207 20.02 57.7341 20.1667 58.2141 20.46C58.7074 20.7533 59.0741 21.2 59.3141 21.8C59.5541 22.3867 59.6741 23.1333 59.6741 24.04V28.88C59.6741 29.2933 59.5607 29.6133 59.3341 29.84C59.1207 30.0533 58.8141 30.16 58.4141 30.16C58.0141 30.16 57.7074 30.0533 57.4941 29.84C57.2807 29.6133 57.1741 29.2933 57.1741 28.88V24.14C57.1741 23.3933 57.0474 22.8467 56.7941 22.5C56.5541 22.1533 56.1407 21.98 55.5541 21.98C54.9007 21.98 54.3874 22.2133 54.0141 22.68C53.6407 23.1333 53.4541 23.7667 53.4541 24.58V28.88C53.4541 29.2933 53.3474 29.6133 53.1341 29.84C52.9207 30.0533 52.6141 30.16 52.2141 30.16C51.8141 30.16 51.5007 30.0533 51.2741 29.84C51.0607 29.6133 50.9541 29.2933 50.9541 28.88V24.14C50.9541 23.3933 50.8274 22.8467 50.5741 22.5C50.3341 22.1533 49.9274 21.98 49.3541 21.98C48.7007 21.98 48.1874 22.2133 47.8141 22.68C47.4407 23.1333 47.2541 23.7667 47.2541 24.58V28.88C47.2541 29.7333 46.8341 30.16 45.9941 30.16ZM63.5331 30.16C63.1331 30.16 62.8265 30.0533 62.6131 29.84C62.3998 29.6133 62.2931 29.2933 62.2931 28.88V21.32C62.2931 20.9067 62.3998 20.5933 62.6131 20.38C62.8265 20.1667 63.1265 20.06 63.5131 20.06C63.8998 20.06 64.1998 20.1667 64.4131 20.38C64.6265 20.5933 64.7331 20.9067 64.7331 21.32V22.78L64.5131 22.18C64.7798 21.5133 65.1931 20.9867 65.7531 20.6C66.3131 20.2133 66.9798 20.02 67.7531 20.02C68.5398 20.02 69.1865 20.2067 69.6931 20.58C70.1998 20.9533 70.5531 21.5267 70.7531 22.3H70.4731C70.7398 21.5933 71.1798 21.04 71.7931 20.64C72.4065 20.2267 73.1131 20.02 73.9131 20.02C74.6598 20.02 75.2731 20.1667 75.7531 20.46C76.2465 20.7533 76.6131 21.2 76.8531 21.8C77.0931 22.3867 77.2131 23.1333 77.2131 24.04V28.88C77.2131 29.2933 77.0998 29.6133 76.8731 29.84C76.6598 30.0533 76.3531 30.16 75.9531 30.16C75.5531 30.16 75.2465 30.0533 75.0331 29.84C74.8198 29.6133 74.7131 29.2933 74.7131 28.88V24.14C74.7131 23.3933 74.5865 22.8467 74.3331 22.5C74.0931 22.1533 73.6798 21.98 73.0931 21.98C72.4398 21.98 71.9265 22.2133 71.5531 22.68C71.1798 23.1333 70.9931 23.7667 70.9931 24.58V28.88C70.9931 29.2933 70.8865 29.6133 70.6731 29.84C70.4598 30.0533 70.1531 30.16 69.7531 30.16C69.3531 30.16 69.0398 30.0533 68.8131 29.84C68.5998 29.6133 68.4931 29.2933 68.4931 28.88V24.14C68.4931 23.3933 68.3665 22.8467 68.1131 22.5C67.8731 22.1533 67.4665 21.98 66.8931 21.98C66.2398 21.98 65.7265 22.2133 65.3531 22.68C64.9798 23.1333 64.7931 23.7667 64.7931 24.58V28.88C64.7931 29.7333 64.3731 30.16 63.5331 30.16ZM83.3322 30.2C82.5189 30.2 81.8455 30.0533 81.3122 29.76C80.7789 29.4533 80.3789 29 80.1122 28.4C79.8589 27.8 79.7322 27.0533 79.7322 26.16V21.32C79.7322 20.8933 79.8389 20.58 80.0522 20.38C80.2655 20.1667 80.5722 20.06 80.9722 20.06C81.3722 20.06 81.6789 20.1667 81.8922 20.38C82.1189 20.58 82.2322 20.8933 82.2322 21.32V26.2C82.2322 26.8933 82.3722 27.4067 82.6522 27.74C82.9322 28.0733 83.3789 28.24 83.9922 28.24C84.6589 28.24 85.2055 28.0133 85.6322 27.56C86.0589 27.0933 86.2722 26.48 86.2722 25.72V21.32C86.2722 20.8933 86.3789 20.58 86.5922 20.38C86.8055 20.1667 87.1122 20.06 87.5122 20.06C87.9122 20.06 88.2189 20.1667 88.4322 20.38C88.6589 20.58 88.7722 20.8933 88.7722 21.32V28.88C88.7722 29.7333 88.3655 30.16 87.5522 30.16C87.1655 30.16 86.8655 30.0533 86.6522 29.84C86.4389 29.6133 86.3322 29.2933 86.3322 28.88V27.36L86.6122 27.96C86.3322 28.68 85.9055 29.2333 85.3322 29.62C84.7722 30.0067 84.1055 30.2 83.3322 30.2ZM92.6142 30.16C92.2142 30.16 91.9076 30.0533 91.6942 29.84C91.4809 29.6133 91.3742 29.2933 91.3742 28.88V21.32C91.3742 20.9067 91.4809 20.5933 91.6942 20.38C91.9076 20.1667 92.2076 20.06 92.5942 20.06C92.9809 20.06 93.2809 20.1667 93.4942 20.38C93.7076 20.5933 93.8142 20.9067 93.8142 21.32V22.68L93.5942 22.18C93.8876 21.4733 94.3409 20.94 94.9542 20.58C95.5809 20.2067 96.2876 20.02 97.0742 20.02C97.8609 20.02 98.5076 20.1667 99.0142 20.46C99.5209 20.7533 99.9009 21.2 100.154 21.8C100.408 22.3867 100.534 23.1333 100.534 24.04V28.88C100.534 29.2933 100.428 29.6133 100.214 29.84C100.001 30.0533 99.6942 30.16 99.2942 30.16C98.8942 30.16 98.5809 30.0533 98.3542 29.84C98.1409 29.6133 98.0342 29.2933 98.0342 28.88V24.16C98.0342 23.4 97.8876 22.8467 97.5942 22.5C97.3142 22.1533 96.8742 21.98 96.2742 21.98C95.5409 21.98 94.9542 22.2133 94.5142 22.68C94.0876 23.1333 93.8742 23.74 93.8742 24.5V28.88C93.8742 29.7333 93.4542 30.16 92.6142 30.16ZM104.313 30.14C103.913 30.14 103.607 30.02 103.393 29.78C103.18 29.54 103.073 29.2067 103.073 28.78V21.44C103.073 21 103.18 20.6667 103.393 20.44C103.607 20.2 103.913 20.08 104.313 20.08C104.713 20.08 105.02 20.2 105.233 20.44C105.46 20.6667 105.573 21 105.573 21.44V28.78C105.573 29.2067 105.467 29.54 105.253 29.78C105.04 30.02 104.727 30.14 104.313 30.14ZM104.313 18.22C103.847 18.22 103.48 18.1067 103.213 17.88C102.96 17.64 102.833 17.3133 102.833 16.9C102.833 16.4733 102.96 16.1467 103.213 15.92C103.48 15.6933 103.847 15.58 104.313 15.58C104.793 15.58 105.16 15.6933 105.413 15.92C105.667 16.1467 105.793 16.4733 105.793 16.9C105.793 17.3133 105.667 17.64 105.413 17.88C105.16 18.1067 104.793 18.22 104.313 18.22ZM112.651 30.2C111.784 30.2 111.058 30.0533 110.471 29.76C109.898 29.4667 109.471 29.04 109.191 28.48C108.911 27.9067 108.771 27.2 108.771 26.36V22.1H107.731C107.411 22.1 107.164 22.02 106.991 21.86C106.818 21.6867 106.731 21.4533 106.731 21.16C106.731 20.8533 106.818 20.62 106.991 20.46C107.164 20.3 107.411 20.22 107.731 20.22H108.771V18.4C108.771 17.9867 108.878 17.6733 109.091 17.46C109.318 17.2467 109.631 17.14 110.031 17.14C110.431 17.14 110.738 17.2467 110.951 17.46C111.164 17.6733 111.271 17.9867 111.271 18.4V20.22H113.391C113.711 20.22 113.958 20.3 114.131 20.46C114.304 20.62 114.391 20.8533 114.391 21.16C114.391 21.4533 114.304 21.6867 114.131 21.86C113.958 22.02 113.711 22.1 113.391 22.1H111.271V26.22C111.271 26.86 111.411 27.34 111.691 27.66C111.971 27.98 112.424 28.14 113.051 28.14C113.278 28.14 113.478 28.12 113.651 28.08C113.824 28.04 113.978 28.0133 114.111 28C114.271 27.9867 114.404 28.04 114.511 28.16C114.618 28.2667 114.671 28.4933 114.671 28.84C114.671 29.1067 114.624 29.3467 114.531 29.56C114.451 29.76 114.298 29.9 114.071 29.98C113.898 30.0333 113.671 30.08 113.391 30.12C113.111 30.1733 112.864 30.2 112.651 30.2ZM118.483 33.76C118.19 33.76 117.95 33.68 117.763 33.52C117.576 33.3733 117.463 33.1733 117.423 32.92C117.396 32.6667 117.443 32.4 117.563 32.12L118.923 29.1V30.14L115.283 21.72C115.163 21.4267 115.123 21.1533 115.163 20.9C115.203 20.6467 115.323 20.4467 115.523 20.3C115.736 20.14 116.023 20.06 116.383 20.06C116.69 20.06 116.936 20.1333 117.123 20.28C117.31 20.4133 117.476 20.6733 117.623 21.06L120.323 27.8H119.723L122.483 21.04C122.63 20.6667 122.803 20.4133 123.003 20.28C123.203 20.1333 123.47 20.06 123.803 20.06C124.096 20.06 124.33 20.14 124.503 20.3C124.676 20.4467 124.783 20.6467 124.823 20.9C124.863 21.14 124.816 21.4067 124.683 21.7L119.823 32.8C119.65 33.1733 119.463 33.4267 119.263 33.56C119.063 33.6933 118.803 33.76 118.483 33.76ZM133.48 30.16C133.067 30.16 132.747 30.0467 132.52 29.82C132.307 29.58 132.2 29.2533 132.2 28.84V17.06C132.2 16.6333 132.307 16.3067 132.52 16.08C132.747 15.8533 133.067 15.74 133.48 15.74C133.893 15.74 134.207 15.8533 134.42 16.08C134.647 16.3067 134.76 16.6333 134.76 17.06V21.78H142.02V17.06C142.02 16.6333 142.127 16.3067 142.34 16.08C142.567 15.8533 142.887 15.74 143.3 15.74C143.713 15.74 144.027 15.8533 144.24 16.08C144.467 16.3067 144.58 16.6333 144.58 17.06V28.84C144.58 29.2533 144.467 29.58 144.24 29.82C144.027 30.0467 143.713 30.16 143.3 30.16C142.887 30.16 142.567 30.0467 142.34 29.82C142.127 29.58 142.02 29.2533 142.02 28.84V23.92H134.76V28.84C134.76 29.2533 134.653 29.58 134.44 29.82C134.227 30.0467 133.907 30.16 133.48 30.16ZM148.669 30.14C148.269 30.14 147.962 30.02 147.749 29.78C147.536 29.54 147.429 29.2067 147.429 28.78V21.44C147.429 21 147.536 20.6667 147.749 20.44C147.962 20.2 148.269 20.08 148.669 20.08C149.069 20.08 149.376 20.2 149.589 20.44C149.816 20.6667 149.929 21 149.929 21.44V28.78C149.929 29.2067 149.822 29.54 149.609 29.78C149.396 30.02 149.082 30.14 148.669 30.14ZM148.669 18.22C148.202 18.22 147.836 18.1067 147.569 17.88C147.316 17.64 147.189 17.3133 147.189 16.9C147.189 16.4733 147.316 16.1467 147.569 15.92C147.836 15.6933 148.202 15.58 148.669 15.58C149.149 15.58 149.516 15.6933 149.769 15.92C150.022 16.1467 150.149 16.4733 150.149 16.9C150.149 17.3133 150.022 17.64 149.769 17.88C149.516 18.1067 149.149 18.22 148.669 18.22ZM157.087 33.8C156.367 33.8 155.667 33.7333 154.987 33.6C154.32 33.4667 153.713 33.26 153.167 32.98C152.913 32.8467 152.74 32.6867 152.647 32.5C152.567 32.3133 152.54 32.12 152.567 31.92C152.607 31.7333 152.687 31.5667 152.807 31.42C152.94 31.2733 153.1 31.1733 153.287 31.12C153.473 31.0667 153.667 31.0933 153.867 31.2C154.453 31.4933 155.007 31.68 155.527 31.76C156.06 31.8533 156.513 31.9 156.887 31.9C157.78 31.9 158.447 31.68 158.887 31.24C159.34 30.8133 159.567 30.1733 159.567 29.32V27.52H159.747C159.547 28.2 159.127 28.7467 158.487 29.16C157.86 29.56 157.147 29.76 156.347 29.76C155.467 29.76 154.7 29.56 154.047 29.16C153.393 28.7467 152.887 28.1733 152.527 27.44C152.167 26.7067 151.987 25.8533 151.987 24.88C151.987 24.1467 152.087 23.4867 152.287 22.9C152.5 22.3 152.793 21.7867 153.167 21.36C153.553 20.9333 154.013 20.6067 154.547 20.38C155.093 20.14 155.693 20.02 156.347 20.02C157.173 20.02 157.893 20.2267 158.507 20.64C159.133 21.04 159.54 21.5733 159.727 22.24L159.527 22.74V21.32C159.527 20.9067 159.633 20.5933 159.847 20.38C160.073 20.1667 160.38 20.06 160.767 20.06C161.167 20.06 161.473 20.1667 161.687 20.38C161.9 20.5933 162.007 20.9067 162.007 21.32V29.02C162.007 30.6067 161.587 31.8 160.747 32.6C159.907 33.4 158.687 33.8 157.087 33.8ZM157.027 27.86C157.547 27.86 157.993 27.74 158.367 27.5C158.74 27.26 159.027 26.92 159.227 26.48C159.44 26.0267 159.547 25.4933 159.547 24.88C159.547 23.96 159.32 23.24 158.867 22.72C158.413 22.1867 157.8 21.92 157.027 21.92C156.507 21.92 156.06 22.04 155.687 22.28C155.313 22.52 155.02 22.86 154.807 23.3C154.607 23.74 154.507 24.2667 154.507 24.88C154.507 25.8 154.733 26.5267 155.187 27.06C155.64 27.5933 156.253 27.86 157.027 27.86ZM165.837 30.16C165.437 30.16 165.13 30.0533 164.917 29.84C164.704 29.6133 164.597 29.2933 164.597 28.88V17C164.597 16.5867 164.704 16.2733 164.917 16.06C165.13 15.8467 165.437 15.74 165.837 15.74C166.237 15.74 166.544 15.8467 166.757 16.06C166.984 16.2733 167.097 16.5867 167.097 17V22.18H166.817C167.11 21.4733 167.564 20.94 168.177 20.58C168.804 20.2067 169.51 20.02 170.297 20.02C171.084 20.02 171.73 20.1667 172.237 20.46C172.744 20.7533 173.124 21.2 173.377 21.8C173.63 22.3867 173.757 23.1333 173.757 24.04V28.88C173.757 29.2933 173.65 29.6133 173.437 29.84C173.224 30.0533 172.917 30.16 172.517 30.16C172.117 30.16 171.804 30.0533 171.577 29.84C171.364 29.6133 171.257 29.2933 171.257 28.88V24.16C171.257 23.4 171.11 22.8467 170.817 22.5C170.537 22.1533 170.097 21.98 169.497 21.98C168.764 21.98 168.177 22.2133 167.737 22.68C167.31 23.1333 167.097 23.74 167.097 24.5V28.88C167.097 29.7333 166.677 30.16 165.837 30.16ZM179.636 30.2C178.529 30.2 177.696 29.8867 177.136 29.26C176.576 28.62 176.296 27.6867 176.296 26.46V17C176.296 16.5867 176.403 16.2733 176.616 16.06C176.829 15.8467 177.136 15.74 177.536 15.74C177.936 15.74 178.243 15.8467 178.456 16.06C178.683 16.2733 178.796 16.5867 178.796 17V26.34C178.796 26.9533 178.923 27.4067 179.176 27.7C179.443 27.9933 179.816 28.14 180.296 28.14C180.403 28.14 180.503 28.14 180.596 28.14C180.689 28.1267 180.783 28.1133 180.876 28.1C181.063 28.0733 181.189 28.1267 181.256 28.26C181.323 28.38 181.356 28.6333 181.356 29.02C181.356 29.3533 181.289 29.6133 181.156 29.8C181.023 29.9867 180.803 30.1 180.496 30.14C180.363 30.1533 180.223 30.1667 180.076 30.18C179.929 30.1933 179.783 30.2 179.636 30.2ZM183.923 30.14C183.523 30.14 183.216 30.02 183.003 29.78C182.789 29.54 182.683 29.2067 182.683 28.78V21.44C182.683 21 182.789 20.6667 183.003 20.44C183.216 20.2 183.523 20.08 183.923 20.08C184.323 20.08 184.629 20.2 184.843 20.44C185.069 20.6667 185.183 21 185.183 21.44V28.78C185.183 29.2067 185.076 29.54 184.863 29.78C184.649 30.02 184.336 30.14 183.923 30.14ZM183.923 18.22C183.456 18.22 183.089 18.1067 182.823 17.88C182.569 17.64 182.443 17.3133 182.443 16.9C182.443 16.4733 182.569 16.1467 182.823 15.92C183.089 15.6933 183.456 15.58 183.923 15.58C184.403 15.58 184.769 15.6933 185.023 15.92C185.276 16.1467 185.403 16.4733 185.403 16.9C185.403 17.3133 185.276 17.64 185.023 17.88C184.769 18.1067 184.403 18.22 183.923 18.22ZM192.34 33.8C191.62 33.8 190.92 33.7333 190.24 33.6C189.574 33.4667 188.967 33.26 188.42 32.98C188.167 32.8467 187.994 32.6867 187.9 32.5C187.82 32.3133 187.794 32.12 187.82 31.92C187.86 31.7333 187.94 31.5667 188.06 31.42C188.194 31.2733 188.354 31.1733 188.54 31.12C188.727 31.0667 188.92 31.0933 189.12 31.2C189.707 31.4933 190.26 31.68 190.78 31.76C191.314 31.8533 191.767 31.9 192.14 31.9C193.034 31.9 193.7 31.68 194.14 31.24C194.594 30.8133 194.82 30.1733 194.82 29.32V27.52H195C194.8 28.2 194.38 28.7467 193.74 29.16C193.114 29.56 192.4 29.76 191.6 29.76C190.72 29.76 189.954 29.56 189.3 29.16C188.647 28.7467 188.14 28.1733 187.78 27.44C187.42 26.7067 187.24 25.8533 187.24 24.88C187.24 24.1467 187.34 23.4867 187.54 22.9C187.754 22.3 188.047 21.7867 188.42 21.36C188.807 20.9333 189.267 20.6067 189.8 20.38C190.347 20.14 190.947 20.02 191.6 20.02C192.427 20.02 193.147 20.2267 193.76 20.64C194.387 21.04 194.794 21.5733 194.98 22.24L194.78 22.74V21.32C194.78 20.9067 194.887 20.5933 195.1 20.38C195.327 20.1667 195.634 20.06 196.02 20.06C196.42 20.06 196.727 20.1667 196.94 20.38C197.154 20.5933 197.26 20.9067 197.26 21.32V29.02C197.26 30.6067 196.84 31.8 196 32.6C195.16 33.4 193.94 33.8 192.34 33.8ZM192.28 27.86C192.8 27.86 193.247 27.74 193.62 27.5C193.994 27.26 194.28 26.92 194.48 26.48C194.694 26.0267 194.8 25.4933 194.8 24.88C194.8 23.96 194.574 23.24 194.12 22.72C193.667 22.1867 193.054 21.92 192.28 21.92C191.76 21.92 191.314 22.04 190.94 22.28C190.567 22.52 190.274 22.86 190.06 23.3C189.86 23.74 189.76 24.2667 189.76 24.88C189.76 25.8 189.987 26.5267 190.44 27.06C190.894 27.5933 191.507 27.86 192.28 27.86ZM201.091 30.16C200.691 30.16 200.384 30.0533 200.171 29.84C199.957 29.6133 199.851 29.2933 199.851 28.88V17C199.851 16.5867 199.957 16.2733 200.171 16.06C200.384 15.8467 200.691 15.74 201.091 15.74C201.491 15.74 201.797 15.8467 202.011 16.06C202.237 16.2733 202.351 16.5867 202.351 17V22.18H202.071C202.364 21.4733 202.817 20.94 203.431 20.58C204.057 20.2067 204.764 20.02 205.551 20.02C206.337 20.02 206.984 20.1667 207.491 20.46C207.997 20.7533 208.377 21.2 208.631 21.8C208.884 22.3867 209.011 23.1333 209.011 24.04V28.88C209.011 29.2933 208.904 29.6133 208.691 29.84C208.477 30.0533 208.171 30.16 207.771 30.16C207.371 30.16 207.057 30.0533 206.831 29.84C206.617 29.6133 206.511 29.2933 206.511 28.88V24.16C206.511 23.4 206.364 22.8467 206.071 22.5C205.791 22.1533 205.351 21.98 204.751 21.98C204.017 21.98 203.431 22.2133 202.991 22.68C202.564 23.1333 202.351 23.74 202.351 24.5V28.88C202.351 29.7333 201.931 30.16 201.091 30.16ZM216.03 30.2C215.163 30.2 214.437 30.0533 213.85 29.76C213.277 29.4667 212.85 29.04 212.57 28.48C212.29 27.9067 212.15 27.2 212.15 26.36V22.1H211.11C210.79 22.1 210.543 22.02 210.37 21.86C210.197 21.6867 210.11 21.4533 210.11 21.16C210.11 20.8533 210.197 20.62 210.37 20.46C210.543 20.3 210.79 20.22 211.11 20.22H212.15V18.4C212.15 17.9867 212.257 17.6733 212.47 17.46C212.697 17.2467 213.01 17.14 213.41 17.14C213.81 17.14 214.117 17.2467 214.33 17.46C214.543 17.6733 214.65 17.9867 214.65 18.4V20.22H216.77C217.09 20.22 217.337 20.3 217.51 20.46C217.683 20.62 217.77 20.8533 217.77 21.16C217.77 21.4533 217.683 21.6867 217.51 21.86C217.337 22.02 217.09 22.1 216.77 22.1H214.65V26.22C214.65 26.86 214.79 27.34 215.07 27.66C215.35 27.98 215.803 28.14 216.43 28.14C216.657 28.14 216.857 28.12 217.03 28.08C217.203 28.04 217.357 28.0133 217.49 28C217.65 27.9867 217.783 28.04 217.89 28.16C217.997 28.2667 218.05 28.4933 218.05 28.84C218.05 29.1067 218.003 29.3467 217.91 29.56C217.83 29.76 217.677 29.9 217.45 29.98C217.277 30.0333 217.05 30.08 216.77 30.12C216.49 30.1733 216.243 30.2 216.03 30.2ZM222.806 30.2C222.232 30.2 221.626 30.14 220.986 30.02C220.346 29.9 219.772 29.6933 219.266 29.4C219.052 29.2667 218.899 29.1133 218.806 28.94C218.726 28.7533 218.692 28.5733 218.706 28.4C218.732 28.2133 218.799 28.0533 218.906 27.92C219.026 27.7867 219.172 27.7 219.346 27.66C219.532 27.62 219.732 27.6533 219.946 27.76C220.479 28.0133 220.979 28.1933 221.446 28.3C221.912 28.3933 222.372 28.44 222.826 28.44C223.466 28.44 223.939 28.3333 224.246 28.12C224.566 27.8933 224.726 27.6 224.726 27.24C224.726 26.9333 224.619 26.7 224.406 26.54C224.206 26.3667 223.899 26.24 223.486 26.16L221.486 25.78C220.659 25.62 220.026 25.32 219.586 24.88C219.159 24.4267 218.946 23.8467 218.946 23.14C218.946 22.5 219.119 21.9467 219.466 21.48C219.826 21.0133 220.319 20.6533 220.946 20.4C221.572 20.1467 222.292 20.02 223.106 20.02C223.692 20.02 224.239 20.0867 224.746 20.22C225.266 20.34 225.766 20.5333 226.246 20.8C226.446 20.9067 226.579 21.0467 226.646 21.22C226.726 21.3933 226.746 21.5733 226.706 21.76C226.666 21.9333 226.586 22.0933 226.466 22.24C226.346 22.3733 226.192 22.46 226.006 22.5C225.832 22.5267 225.632 22.4867 225.406 22.38C224.992 22.1667 224.592 22.0133 224.206 21.92C223.832 21.8267 223.472 21.78 223.126 21.78C222.472 21.78 221.986 21.8933 221.666 22.12C221.359 22.3467 221.206 22.6467 221.206 23.02C221.206 23.3 221.299 23.5333 221.486 23.72C221.672 23.9067 221.959 24.0333 222.346 24.1L224.346 24.48C225.212 24.64 225.866 24.9333 226.306 25.36C226.759 25.7867 226.986 26.36 226.986 27.08C226.986 28.0533 226.606 28.82 225.846 29.38C225.086 29.9267 224.072 30.2 222.806 30.2Z" fill="black"/>
<path d="M76.606 77.866V90.604C76.606 90.9413 76.3127 91.11 75.726 91.11C75.1393 91.11 74.846 90.9413 74.846 90.604V84.642H68.18V90.604C68.18 90.9413 67.8867 91.11 67.3 91.11C66.7133 91.11 66.42 90.9413 66.42 90.604V77.866C66.42 77.0447 66.662 76.37 67.146 75.842C67.63 75.2993 68.246 74.9253 68.994 74.72C69.742 74.5 70.622 74.39 71.634 74.39C74.9487 74.39 76.606 75.5487 76.606 77.866ZM68.18 77.646V83.102H74.846V77.646C74.846 76.502 73.7313 75.93 71.502 75.93C69.2873 75.93 68.18 76.502 68.18 77.646ZM81.4376 90.604V80.946C81.4376 79.7433 81.8556 78.8633 82.6916 78.306C83.5422 77.7487 84.7156 77.47 86.2116 77.47C87.7076 77.47 88.8516 77.8587 89.6436 78.636C90.4209 77.8587 91.5576 77.47 93.0536 77.47C96.2509 77.47 97.8496 78.6287 97.8496 80.946V90.604C97.8496 90.9413 97.5562 91.11 96.9696 91.11C96.3829 91.11 96.0896 90.9413 96.0896 90.604V80.726C96.0896 79.582 95.1582 79.01 93.2956 79.01C91.4476 79.01 90.5236 79.5967 90.5236 80.77V90.604C90.5236 90.9413 90.2302 91.11 89.6436 91.11C89.0569 91.11 88.7636 90.9413 88.7636 90.604V80.726C88.7636 79.582 87.8322 79.01 85.9696 79.01C84.1216 79.01 83.1976 79.582 83.1976 80.726V90.604C83.1976 90.9413 82.9042 91.11 82.3176 91.11C81.7309 91.11 81.4376 90.9413 81.4376 90.604ZM104.446 78.196V88.426C104.446 88.8953 104.556 89.3353 104.776 89.746C104.996 90.142 105.106 90.3473 105.106 90.362C105.106 90.538 104.966 90.7287 104.688 90.934C104.409 91.1247 104.174 91.22 103.984 91.22C103.676 91.22 103.382 90.956 103.104 90.428C102.825 89.8853 102.686 89.2913 102.686 88.646V78.196C102.686 77.8587 102.979 77.69 103.566 77.69C104.152 77.69 104.446 77.8587 104.446 78.196ZM104.512 73.51V75.424C104.512 75.7907 104.189 75.974 103.544 75.974C102.913 75.974 102.598 75.7907 102.598 75.424V73.51C102.598 73.1433 102.913 72.96 103.544 72.96C104.189 72.96 104.512 73.1433 104.512 73.51ZM111.921 75.226V77.8H114.231C114.525 77.8 114.671 78.0567 114.671 78.57C114.671 79.0833 114.525 79.34 114.231 79.34H111.921V88.426C111.921 88.8953 112.031 89.3353 112.251 89.746C112.471 90.142 112.581 90.3473 112.581 90.362C112.581 90.538 112.442 90.7287 112.163 90.934C111.885 91.1247 111.65 91.22 111.459 91.22C111.151 91.22 110.858 90.956 110.579 90.428C110.301 89.8853 110.161 89.2913 110.161 88.646V79.34H108.401C108.108 79.34 107.961 79.0833 107.961 78.57C107.961 78.0567 108.108 77.8 108.401 77.8H110.161V75.226C110.161 74.8887 110.455 74.72 111.041 74.72C111.628 74.72 111.921 74.8887 111.921 75.226ZM124.83 79.098C124.874 78.7753 125.146 78.614 125.644 78.614C126.158 78.614 126.444 78.7753 126.502 79.098L127.954 88.074C128.042 88.69 128.196 89.13 128.416 89.394C128.651 89.658 129.032 89.79 129.56 89.79C130.088 89.79 130.44 89.6653 130.616 89.416C130.807 89.1667 130.961 88.7193 131.078 88.074L132.728 78.196C132.787 77.8587 133.095 77.69 133.652 77.69C134.21 77.69 134.488 77.822 134.488 78.086L132.794 88.316C132.618 89.3867 132.303 90.1567 131.848 90.626C131.408 91.0953 130.638 91.33 129.538 91.33C128.453 91.33 127.676 91.0953 127.206 90.626C126.752 90.1567 126.458 89.3867 126.326 88.316L125.776 83.762H125.556L125.028 88.316C124.896 89.3867 124.596 90.1567 124.126 90.626C123.672 91.0953 122.894 91.33 121.794 91.33C120.709 91.33 119.939 91.0953 119.484 90.626C119.044 90.1567 118.736 89.3867 118.56 88.316L116.866 78.086C116.866 77.822 117.145 77.69 117.702 77.69C118.26 77.69 118.568 77.8587 118.626 78.196L120.276 88.074C120.394 88.7193 120.54 89.1667 120.716 89.416C120.907 89.6653 121.266 89.79 121.794 89.79C122.322 89.79 122.696 89.658 122.916 89.394C123.151 89.13 123.312 88.69 123.4 88.074L124.83 79.098ZM153.97 81.606V80.748C153.97 79.5893 153.024 79.01 151.132 79.01C150.325 79.01 149.665 79.142 149.152 79.406C148.638 79.67 148.382 80.088 148.382 80.66V81.144C148.382 81.936 148.484 82.4567 148.69 82.706C148.895 82.9407 149.335 83.1387 150.01 83.3L151.924 83.784C153.742 84.2533 154.82 84.708 155.158 85.148C155.568 85.6907 155.774 86.4093 155.774 87.304V88.096C155.774 89.24 155.326 90.0687 154.432 90.582C153.552 91.0807 152.408 91.33 151 91.33C148.712 91.33 147.26 90.7507 146.644 89.592C146.394 89.108 146.27 88.5213 146.27 87.832V87.128C146.27 86.9373 146.336 86.8127 146.468 86.754C146.6 86.6807 146.827 86.644 147.15 86.644C147.722 86.644 148.008 86.8273 148.008 87.194V88.184C148.008 88.7707 148.264 89.1887 148.778 89.438C149.291 89.6727 150.039 89.79 151.022 89.79C153.031 89.79 154.036 89.2767 154.036 88.25V87.084C154.036 86.6293 153.86 86.2773 153.508 86.028C153.17 85.7787 152.584 85.544 151.748 85.324L149.812 84.84C148.506 84.5173 147.648 84.136 147.238 83.696C146.842 83.2413 146.644 82.3687 146.644 81.078V80.814C146.673 79.6407 147.091 78.79 147.898 78.262C148.704 77.734 149.768 77.47 151.088 77.47C154.168 77.47 155.708 78.614 155.708 80.902V81.672C155.708 81.98 155.414 82.134 154.828 82.134C154.256 82.134 153.97 81.958 153.97 81.606ZM162.04 80.726V88.074C162.04 89.218 162.979 89.79 164.856 89.79C166.733 89.79 167.672 89.218 167.672 88.074V87.15C167.672 86.8127 167.965 86.644 168.552 86.644C169.139 86.644 169.432 86.8127 169.432 87.15V87.854C169.432 89.0713 169.014 89.9587 168.178 90.516C167.357 91.0587 166.249 91.33 164.856 91.33C163.477 91.33 162.37 91.0587 161.534 90.516C160.698 89.9587 160.28 89.0713 160.28 87.854V80.946C160.28 79.7287 160.698 78.8487 161.534 78.306C162.37 77.7487 163.477 77.47 164.856 77.47C166.249 77.47 167.357 77.7487 168.178 78.306C169.014 78.8487 169.432 79.7287 169.432 80.946V81.65C169.432 81.9873 169.139 82.156 168.552 82.156C167.965 82.156 167.672 81.9873 167.672 81.65V80.726C167.672 79.582 166.733 79.01 164.856 79.01C162.979 79.01 162.04 79.582 162.04 80.726ZM181.152 88.074V80.726C181.152 79.582 180.147 79.01 178.138 79.01C176.143 79.01 175.146 79.582 175.146 80.726V88.074C175.146 89.218 176.143 89.79 178.138 89.79C180.147 89.79 181.152 89.218 181.152 88.074ZM182.912 80.946V87.854C182.912 89.0713 182.479 89.9587 181.614 90.516C180.748 91.0587 179.597 91.33 178.16 91.33C176.722 91.33 175.564 91.0587 174.684 90.516C173.818 89.9587 173.386 89.0713 173.386 87.854V80.946C173.386 79.7287 173.818 78.8487 174.684 78.306C175.549 77.7487 176.7 77.47 178.138 77.47C179.575 77.47 180.726 77.7487 181.592 78.306C182.472 78.8487 182.912 79.7287 182.912 80.946ZM193.379 81.826V80.726C193.379 79.582 192.697 79.01 191.333 79.01C189.969 79.01 189.287 79.582 189.287 80.726V90.824C189.287 91.1613 188.994 91.33 188.407 91.33C187.821 91.33 187.527 91.1613 187.527 90.824V80.946C187.527 79.7287 187.872 78.8487 188.561 78.306C189.265 77.7487 190.189 77.47 191.333 77.47C193.871 77.47 195.139 78.614 195.139 80.902V81.826C195.139 82.1633 194.846 82.332 194.259 82.332C193.673 82.332 193.379 82.1633 193.379 81.826ZM207.406 80.902V81.562C207.406 82.8087 207.15 83.6667 206.636 84.136C206.123 84.6053 205.184 84.906 203.82 85.038L199.53 85.456V88.074C199.53 89.218 200.484 89.79 202.39 89.79C204.561 89.79 205.646 89.2913 205.646 88.294V87.458C205.646 87.1207 205.94 86.952 206.526 86.952C207.113 86.952 207.406 87.1207 207.406 87.458V88.074C207.406 90.2447 205.793 91.33 202.566 91.33C201.144 91.33 199.985 91.0513 199.09 90.494C198.21 89.9367 197.77 89.0567 197.77 87.854V80.946C197.77 79.7287 198.24 78.8487 199.178 78.306C200.117 77.7487 201.342 77.47 202.852 77.47C204.363 77.47 205.5 77.734 206.262 78.262C207.025 78.79 207.406 79.67 207.406 80.902ZM199.53 80.726V83.916L203.666 83.498C204.502 83.41 205.038 83.234 205.272 82.97C205.522 82.706 205.646 82.2367 205.646 81.562V80.726C205.646 79.582 204.627 79.01 202.588 79.01C200.55 79.01 199.53 79.582 199.53 80.726ZM221.326 73.906V87.854C221.326 89.0713 220.893 89.9587 220.028 90.516C219.162 91.0587 218.011 91.33 216.574 91.33C215.136 91.33 213.978 91.0587 213.098 90.516C212.232 89.9587 211.8 89.0713 211.8 87.854V81.276C211.8 80.0587 212.232 79.1787 213.098 78.636C213.963 78.0787 215.114 77.8 216.552 77.8H218.466C218.759 77.8 218.906 78.0567 218.906 78.57C218.906 79.0833 218.759 79.34 218.466 79.34H216.552C214.557 79.34 213.56 79.912 213.56 81.056V88.074C213.56 89.218 214.557 89.79 216.552 89.79C218.561 89.79 219.566 89.218 219.566 88.074V73.906C219.566 73.5687 219.859 73.4 220.446 73.4C221.032 73.4 221.326 73.5687 221.326 73.906ZM236.763 74.72C236.822 74.5733 236.939 74.5 237.115 74.5C237.291 74.5 237.511 74.544 237.775 74.632C238.2 74.8227 238.413 75.0207 238.413 75.226C238.413 75.27 238.398 75.3213 238.369 75.38L235.861 80.924C235.04 82.728 234.629 83.938 234.629 84.554V84.664C234.629 85.1187 234.746 85.4487 234.981 85.654C235.23 85.8447 235.744 85.94 236.521 85.94H240.459V79.824C240.459 79.4867 240.752 79.318 241.339 79.318C241.926 79.318 242.219 79.4867 242.219 79.824V85.94H243.385C243.678 85.94 243.825 86.1967 243.825 86.71C243.825 87.2233 243.678 87.48 243.385 87.48H242.219V90.604C242.219 90.9413 241.926 91.11 241.339 91.11C240.752 91.11 240.459 90.9413 240.459 90.604V87.48H236.521C235.216 87.48 234.277 87.26 233.705 86.82C233.148 86.38 232.869 85.676 232.869 84.708V84.422C232.869 83.7473 233.338 82.354 234.277 80.242L236.763 74.72ZM256.796 77.866V87.854C256.796 89.0713 256.32 89.9587 255.366 90.516C254.428 91.0587 253.181 91.33 251.626 91.33C248.282 91.33 246.61 90.1713 246.61 87.854V77.866C246.61 76.6487 247.08 75.7687 248.018 75.226C248.972 74.6687 250.226 74.39 251.78 74.39C255.124 74.39 256.796 75.5487 256.796 77.866ZM255.036 88.074V77.646C255.036 77.074 254.743 76.634 254.156 76.326L250.614 89.746C250.82 89.7753 251.157 89.79 251.626 89.79C253.9 89.79 255.036 89.218 255.036 88.074ZM248.37 77.646V88.074C248.37 88.6607 248.649 89.0933 249.206 89.372L252.726 75.974C252.345 75.9447 252.03 75.93 251.78 75.93C249.507 75.93 248.37 76.502 248.37 77.646ZM69.28 117.46H71.194C73.1887 117.46 74.186 116.888 74.186 115.744V108.726C74.186 107.582 73.1813 107.01 71.172 107.01C69.1773 107.01 68.18 107.582 68.18 108.726V124.104C68.18 124.441 67.8867 124.61 67.3 124.61C66.7133 124.61 66.42 124.441 66.42 124.104V108.946C66.42 107.729 66.8527 106.849 67.718 106.306C68.5833 105.749 69.7347 105.47 71.172 105.47C72.6093 105.47 73.7607 105.749 74.626 106.306C75.506 106.849 75.946 107.729 75.946 108.946V115.524C75.946 116.741 75.5133 117.629 74.648 118.186C73.7827 118.729 72.6313 119 71.194 119H69.28C68.9867 119 68.84 118.743 68.84 118.23C68.84 117.717 68.9867 117.46 69.28 117.46ZM88.1027 116.074V108.726C88.1027 107.582 87.0981 107.01 85.0887 107.01C83.0941 107.01 82.0967 107.582 82.0967 108.726V116.074C82.0967 117.218 83.0941 117.79 85.0887 117.79C87.0981 117.79 88.1027 117.218 88.1027 116.074ZM89.8627 108.946V115.854C89.8627 117.071 89.4301 117.959 88.5647 118.516C87.6994 119.059 86.5481 119.33 85.1107 119.33C83.6734 119.33 82.5147 119.059 81.6347 118.516C80.7694 117.959 80.3367 117.071 80.3367 115.854V108.946C80.3367 107.729 80.7694 106.849 81.6347 106.306C82.5001 105.749 83.6514 105.47 85.0887 105.47C86.5261 105.47 87.6774 105.749 88.5427 106.306C89.4227 106.849 89.8627 107.729 89.8627 108.946ZM96.2386 106.196V116.426C96.2386 116.895 96.3486 117.335 96.5686 117.746C96.7886 118.142 96.8986 118.347 96.8986 118.362C96.8986 118.538 96.7593 118.729 96.4806 118.934C96.2019 119.125 95.9673 119.22 95.7766 119.22C95.4686 119.22 95.1753 118.956 94.8966 118.428C94.6179 117.885 94.4786 117.291 94.4786 116.646V106.196C94.4786 105.859 94.7719 105.69 95.3586 105.69C95.9453 105.69 96.2386 105.859 96.2386 106.196ZM96.3046 101.51V103.424C96.3046 103.791 95.9819 103.974 95.3366 103.974C94.7059 103.974 94.3906 103.791 94.3906 103.424V101.51C94.3906 101.143 94.7059 100.96 95.3366 100.96C95.9819 100.96 96.3046 101.143 96.3046 101.51ZM110.6 108.946V118.604C110.6 118.941 110.307 119.11 109.72 119.11C109.134 119.11 108.84 118.941 108.84 118.604V108.726C108.84 107.582 107.836 107.01 105.826 107.01C103.832 107.01 102.834 107.582 102.834 108.726V118.604C102.834 118.941 102.541 119.11 101.954 119.11C101.368 119.11 101.074 118.941 101.074 118.604V108.946C101.074 107.729 101.507 106.849 102.372 106.306C103.238 105.749 104.389 105.47 105.826 105.47C107.264 105.47 108.415 105.749 109.28 106.306C110.16 106.849 110.6 107.729 110.6 108.946ZM118.087 103.226V105.8H120.397C120.691 105.8 120.837 106.057 120.837 106.57C120.837 107.083 120.691 107.34 120.397 107.34H118.087V116.426C118.087 116.895 118.197 117.335 118.417 117.746C118.637 118.142 118.747 118.347 118.747 118.362C118.747 118.538 118.608 118.729 118.329 118.934C118.051 119.125 117.816 119.22 117.625 119.22C117.317 119.22 117.024 118.956 116.745 118.428C116.467 117.885 116.327 117.291 116.327 116.646V107.34H114.567C114.274 107.34 114.127 107.083 114.127 106.57C114.127 106.057 114.274 105.8 114.567 105.8H116.327V103.226C116.327 102.889 116.621 102.72 117.207 102.72C117.794 102.72 118.087 102.889 118.087 103.226ZM131.282 109.606V108.748C131.282 107.589 130.336 107.01 128.444 107.01C127.638 107.01 126.978 107.142 126.464 107.406C125.951 107.67 125.694 108.088 125.694 108.66V109.144C125.694 109.936 125.797 110.457 126.002 110.706C126.208 110.941 126.648 111.139 127.322 111.3L129.236 111.784C131.055 112.253 132.133 112.708 132.47 113.148C132.881 113.691 133.086 114.409 133.086 115.304V116.096C133.086 117.24 132.639 118.069 131.744 118.582C130.864 119.081 129.72 119.33 128.312 119.33C126.024 119.33 124.572 118.751 123.956 117.592C123.707 117.108 123.582 116.521 123.582 115.832V115.128C123.582 114.937 123.648 114.813 123.78 114.754C123.912 114.681 124.14 114.644 124.462 114.644C125.034 114.644 125.32 114.827 125.32 115.194V116.184C125.32 116.771 125.577 117.189 126.09 117.438C126.604 117.673 127.352 117.79 128.334 117.79C130.344 117.79 131.348 117.277 131.348 116.25V115.084C131.348 114.629 131.172 114.277 130.82 114.028C130.483 113.779 129.896 113.544 129.06 113.324L127.124 112.84C125.819 112.517 124.961 112.136 124.55 111.696C124.154 111.241 123.956 110.369 123.956 109.078V108.814C123.986 107.641 124.404 106.79 125.21 106.262C126.017 105.734 127.08 105.47 128.4 105.47C131.48 105.47 133.02 106.614 133.02 108.902V109.672C133.02 109.98 132.727 110.134 132.14 110.134C131.568 110.134 131.282 109.958 131.282 109.606ZM148.595 103.226V105.8H150.905C151.198 105.8 151.345 106.057 151.345 106.57C151.345 107.083 151.198 107.34 150.905 107.34H148.595V116.426C148.595 116.895 148.705 117.335 148.925 117.746C149.145 118.142 149.255 118.347 149.255 118.362C149.255 118.538 149.116 118.729 148.837 118.934C148.558 119.125 148.324 119.22 148.133 119.22C147.825 119.22 147.532 118.956 147.253 118.428C146.974 117.885 146.835 117.291 146.835 116.646V107.34H145.075C144.782 107.34 144.635 107.083 144.635 106.57C144.635 106.057 144.782 105.8 145.075 105.8H146.835V103.226C146.835 102.889 147.128 102.72 147.715 102.72C148.302 102.72 148.595 102.889 148.595 103.226ZM164.166 108.946V118.604C164.166 118.941 163.873 119.11 163.286 119.11C162.699 119.11 162.406 118.941 162.406 118.604V108.726C162.406 107.582 161.401 107.01 159.392 107.01C157.397 107.01 156.4 107.582 156.4 108.726V118.604C156.4 118.941 156.107 119.11 155.52 119.11C154.933 119.11 154.64 118.941 154.64 118.604V101.906C154.64 101.569 154.933 101.4 155.52 101.4C156.107 101.4 156.4 101.569 156.4 101.906V106.372C157.207 105.771 158.263 105.47 159.568 105.47C160.888 105.47 161.981 105.749 162.846 106.306C163.726 106.849 164.166 107.729 164.166 108.946ZM170.768 106.196V116.426C170.768 116.895 170.878 117.335 171.098 117.746C171.318 118.142 171.428 118.347 171.428 118.362C171.428 118.538 171.289 118.729 171.01 118.934C170.731 119.125 170.497 119.22 170.306 119.22C169.998 119.22 169.705 118.956 169.426 118.428C169.147 117.885 169.008 117.291 169.008 116.646V106.196C169.008 105.859 169.301 105.69 169.888 105.69C170.475 105.69 170.768 105.859 170.768 106.196ZM170.834 101.51V103.424C170.834 103.791 170.511 103.974 169.866 103.974C169.235 103.974 168.92 103.791 168.92 103.424V101.51C168.92 101.143 169.235 100.96 169.866 100.96C170.511 100.96 170.834 101.143 170.834 101.51ZM182.974 109.606V108.748C182.974 107.589 182.028 107.01 180.136 107.01C179.329 107.01 178.669 107.142 178.156 107.406C177.642 107.67 177.386 108.088 177.386 108.66V109.144C177.386 109.936 177.488 110.457 177.694 110.706C177.899 110.941 178.339 111.139 179.014 111.3L180.928 111.784C182.746 112.253 183.824 112.708 184.162 113.148C184.572 113.691 184.778 114.409 184.778 115.304V116.096C184.778 117.24 184.33 118.069 183.436 118.582C182.556 119.081 181.412 119.33 180.004 119.33C177.716 119.33 176.264 118.751 175.648 117.592C175.398 117.108 175.274 116.521 175.274 115.832V115.128C175.274 114.937 175.34 114.813 175.472 114.754C175.604 114.681 175.831 114.644 176.154 114.644C176.726 114.644 177.012 114.827 177.012 115.194V116.184C177.012 116.771 177.268 117.189 177.782 117.438C178.295 117.673 179.043 117.79 180.026 117.79C182.035 117.79 183.04 117.277 183.04 116.25V115.084C183.04 114.629 182.864 114.277 182.512 114.028C182.174 113.779 181.588 113.544 180.752 113.324L178.816 112.84C177.51 112.517 176.652 112.136 176.242 111.696C175.846 111.241 175.648 110.369 175.648 109.078V108.814C175.677 107.641 176.095 106.79 176.902 106.262C177.708 105.734 178.772 105.47 180.092 105.47C183.172 105.47 184.712 106.614 184.712 108.902V109.672C184.712 109.98 184.418 110.134 183.832 110.134C183.26 110.134 182.974 109.958 182.974 109.606ZM204.731 107.098C204.775 106.775 205.046 106.614 205.545 106.614C206.058 106.614 206.344 106.775 206.403 107.098L207.855 116.074C207.943 116.69 208.097 117.13 208.317 117.394C208.551 117.658 208.933 117.79 209.461 117.79C209.989 117.79 210.341 117.665 210.517 117.416C210.707 117.167 210.861 116.719 210.979 116.074L212.629 106.196C212.687 105.859 212.995 105.69 213.553 105.69C214.11 105.69 214.389 105.822 214.389 106.086L212.695 116.316C212.519 117.387 212.203 118.157 211.749 118.626C211.309 119.095 210.539 119.33 209.439 119.33C208.353 119.33 207.576 119.095 207.107 118.626C206.652 118.157 206.359 117.387 206.227 116.316L205.677 111.762H205.457L204.929 116.316C204.797 117.387 204.496 118.157 204.027 118.626C203.572 119.095 202.795 119.33 201.695 119.33C200.609 119.33 199.839 119.095 199.385 118.626C198.945 118.157 198.637 117.387 198.461 116.316L196.767 106.086C196.767 105.822 197.045 105.69 197.603 105.69C198.16 105.69 198.468 105.859 198.527 106.196L200.177 116.074C200.294 116.719 200.441 117.167 200.617 117.416C200.807 117.665 201.167 117.79 201.695 117.79C202.223 117.79 202.597 117.658 202.817 117.394C203.051 117.13 203.213 116.69 203.301 116.074L204.731 107.098ZM227.774 108.902V109.562C227.774 110.809 227.517 111.667 227.004 112.136C226.49 112.605 225.552 112.906 224.188 113.038L219.898 113.456V116.074C219.898 117.218 220.851 117.79 222.758 117.79C224.928 117.79 226.014 117.291 226.014 116.294V115.458C226.014 115.121 226.307 114.952 226.894 114.952C227.48 114.952 227.774 115.121 227.774 115.458V116.074C227.774 118.245 226.16 119.33 222.934 119.33C221.511 119.33 220.352 119.051 219.458 118.494C218.578 117.937 218.138 117.057 218.138 115.854V108.946C218.138 107.729 218.607 106.849 219.546 106.306C220.484 105.749 221.709 105.47 223.22 105.47C224.73 105.47 225.867 105.734 226.63 106.262C227.392 106.79 227.774 107.67 227.774 108.902ZM219.898 108.726V111.916L224.034 111.498C224.87 111.41 225.405 111.234 225.64 110.97C225.889 110.706 226.014 110.237 226.014 109.562V108.726C226.014 107.582 224.994 107.01 222.956 107.01C220.917 107.01 219.898 107.582 219.898 108.726ZM241.803 108.902V109.562C241.803 110.809 241.546 111.667 241.033 112.136C240.519 112.605 239.581 112.906 238.217 113.038L233.927 113.456V116.074C233.927 117.218 234.88 117.79 236.787 117.79C238.957 117.79 240.043 117.291 240.043 116.294V115.458C240.043 115.121 240.336 114.952 240.923 114.952C241.509 114.952 241.803 115.121 241.803 115.458V116.074C241.803 118.245 240.189 119.33 236.963 119.33C235.54 119.33 234.381 119.051 233.487 118.494C232.607 117.937 232.167 117.057 232.167 115.854V108.946C232.167 107.729 232.636 106.849 233.575 106.306C234.513 105.749 235.738 105.47 237.249 105.47C238.759 105.47 239.896 105.734 240.659 106.262C241.421 106.79 241.803 107.67 241.803 108.902ZM233.927 108.726V111.916L238.063 111.498C238.899 111.41 239.434 111.234 239.669 110.97C239.918 110.706 240.043 110.237 240.043 109.562V108.726C240.043 107.582 239.023 107.01 236.985 107.01C234.946 107.01 233.927 107.582 233.927 108.726ZM248.176 101.906V118.604C248.176 118.941 247.883 119.11 247.296 119.11C246.709 119.11 246.416 118.941 246.416 118.604V101.906C246.416 101.569 246.709 101.4 247.296 101.4C247.883 101.4 248.176 101.569 248.176 101.906ZM255.832 118.714C255.832 118.978 255.575 119.11 255.062 119.11C254.549 119.11 254.241 118.941 254.138 118.604L252.84 114.138C252.693 113.625 252.503 113.302 252.268 113.17C252.048 113.023 251.542 112.95 250.75 112.95H249.364C249.071 112.95 248.924 112.693 248.924 112.18C248.924 111.667 249.071 111.41 249.364 111.41H250.2C250.816 111.395 251.219 111.322 251.41 111.19C251.601 111.043 251.784 110.721 251.96 110.222L253.434 106.196C253.551 105.859 253.859 105.69 254.358 105.69C254.871 105.69 255.128 105.822 255.128 106.086C255.128 106.101 255.055 106.328 254.908 106.768L253.478 110.838C253.346 111.205 253.163 111.483 252.928 111.674C253.603 111.923 254.079 112.539 254.358 113.522L255.678 118.12C255.781 118.501 255.832 118.699 255.832 118.714ZM269.399 113.082C269.399 113.405 269.157 113.566 268.673 113.566C268.189 113.566 267.947 113.405 267.947 113.082L267.573 101.686C267.573 101.275 267.94 101.07 268.673 101.07C269.406 101.07 269.773 101.283 269.773 101.708L269.399 113.082ZM269.619 116.932V118.802C269.619 119.154 269.304 119.33 268.673 119.33C268.057 119.33 267.749 119.154 267.749 118.802V116.932C267.749 116.58 268.057 116.404 268.673 116.404C269.304 116.404 269.619 116.58 269.619 116.932Z" fill="black"/>
<g clip-path="url(#clip0_0_1)">
<path d="M324.5 88.3906C331.189 88.3906 336.609 93.8105 336.609 100.5C336.609 107.189 331.189 112.609 324.5 112.609C317.811 112.609 312.391 107.189 312.391 100.5C312.391 93.8105 317.811 88.3906 324.5 88.3906ZM318.836 102.648H324.5V106.11C324.5 106.633 325.135 106.896 325.501 106.525L331.082 100.915C331.312 100.686 331.312 100.319 331.082 100.09L325.501 94.4746C325.13 94.1035 324.5 94.3672 324.5 94.8896V98.3516H318.836C318.514 98.3516 318.25 98.6152 318.25 98.9375V102.062C318.25 102.385 318.514 102.648 318.836 102.648Z" fill="black"/>
</g>
<defs>
<clipPath id="clip0_0_1">
<rect width="25" height="25" fill="white" transform="translate(312 88)"/>
</clipPath>
</defs>
</svg>
