<svg width="337" height="59" viewBox="0 0 337 59" fill="none" xmlns="http://www.w3.org/2000/svg">
<path d="M288.888 58.108C288.224 58.108 287.656 57.948 287.184 57.628C286.72 57.3 286.368 56.828 286.128 56.212C285.888 55.596 285.768 54.852 285.768 53.98C285.768 53.244 285.844 52.596 285.996 52.036C286.148 51.476 286.372 51.004 286.668 50.62C286.964 50.228 287.324 49.932 287.748 49.732C288.172 49.532 288.652 49.432 289.188 49.432C289.556 49.432 289.932 49.504 290.316 49.648C290.708 49.792 291.052 49.996 291.348 50.26C291.436 50.324 291.488 50.404 291.504 50.5C291.528 50.588 291.528 50.676 291.504 50.764C291.48 50.844 291.436 50.912 291.372 50.968C291.316 51.024 291.244 51.056 291.156 51.064C291.068 51.064 290.976 51.028 290.88 50.956C290.608 50.724 290.328 50.56 290.04 50.464C289.752 50.36 289.46 50.308 289.164 50.308C288.644 50.308 288.2 50.436 287.832 50.692C287.472 50.948 287.196 51.336 287.004 51.856C286.82 52.368 286.728 53.012 286.728 53.788V54.904H286.62C286.668 54.448 286.8 54.056 287.016 53.728C287.24 53.392 287.524 53.136 287.868 52.96C288.212 52.784 288.6 52.696 289.032 52.696C289.528 52.696 289.968 52.808 290.352 53.032C290.736 53.256 291.036 53.572 291.252 53.98C291.468 54.38 291.576 54.84 291.576 55.36C291.576 55.888 291.464 56.36 291.24 56.776C291.016 57.192 290.7 57.52 290.292 57.76C289.884 57.992 289.416 58.108 288.888 58.108ZM288.828 57.268C289.18 57.268 289.492 57.192 289.764 57.04C290.036 56.88 290.248 56.66 290.4 56.38C290.552 56.092 290.628 55.764 290.628 55.396C290.628 55.028 290.552 54.704 290.4 54.424C290.248 54.144 290.036 53.924 289.764 53.764C289.492 53.604 289.18 53.524 288.828 53.524C288.476 53.524 288.164 53.604 287.892 53.764C287.62 53.924 287.408 54.144 287.256 54.424C287.104 54.704 287.028 55.028 287.028 55.396C287.028 55.764 287.104 56.092 287.256 56.38C287.408 56.66 287.62 56.88 287.892 57.04C288.164 57.192 288.476 57.268 288.828 57.268ZM295.975 58.108C295.519 58.108 295.063 58.04 294.607 57.904C294.159 57.768 293.751 57.556 293.383 57.268C293.287 57.204 293.223 57.128 293.191 57.04C293.159 56.952 293.155 56.864 293.179 56.776C293.203 56.688 293.247 56.616 293.311 56.56C293.375 56.496 293.451 56.46 293.539 56.452C293.635 56.444 293.735 56.476 293.839 56.548C294.167 56.78 294.507 56.952 294.859 57.064C295.211 57.176 295.579 57.232 295.963 57.232C296.355 57.232 296.691 57.16 296.971 57.016C297.259 56.864 297.475 56.656 297.619 56.392C297.771 56.12 297.847 55.804 297.847 55.444C297.847 54.892 297.687 54.44 297.367 54.088C297.047 53.736 296.607 53.56 296.047 53.56C295.703 53.56 295.387 53.624 295.099 53.752C294.811 53.88 294.547 54.084 294.307 54.364C294.251 54.428 294.183 54.484 294.103 54.532C294.031 54.572 293.947 54.592 293.851 54.592C293.715 54.592 293.607 54.556 293.527 54.484C293.455 54.404 293.419 54.3 293.419 54.172V49.996C293.419 49.844 293.459 49.732 293.539 49.66C293.619 49.58 293.731 49.54 293.875 49.54H297.955C298.107 49.54 298.219 49.576 298.291 49.648C298.371 49.72 298.411 49.824 298.411 49.96C298.411 50.096 298.371 50.2 298.291 50.272C298.219 50.344 298.107 50.38 297.955 50.38H294.391V53.752H294.127C294.335 53.416 294.623 53.16 294.991 52.984C295.359 52.8 295.771 52.708 296.227 52.708C296.763 52.708 297.223 52.82 297.607 53.044C297.999 53.268 298.299 53.584 298.507 53.992C298.723 54.392 298.831 54.86 298.831 55.396C298.831 55.924 298.715 56.392 298.483 56.8C298.251 57.208 297.923 57.528 297.499 57.76C297.075 57.992 296.567 58.108 295.975 58.108ZM302.991 58.012C302.935 58.116 302.867 58.184 302.787 58.216C302.707 58.256 302.627 58.264 302.547 58.24C302.467 58.224 302.399 58.184 302.343 58.12C302.287 58.064 302.251 57.992 302.235 57.904C302.227 57.816 302.251 57.72 302.307 57.616L306.939 49.552C306.995 49.448 307.063 49.38 307.143 49.348C307.223 49.308 307.303 49.3 307.383 49.324C307.463 49.34 307.531 49.38 307.587 49.444C307.643 49.508 307.675 49.584 307.683 49.672C307.699 49.76 307.679 49.852 307.623 49.948L302.991 58.012ZM302.103 54.616C301.463 54.616 300.963 54.388 300.603 53.932C300.243 53.476 300.063 52.84 300.063 52.024C300.063 51.48 300.143 51.016 300.303 50.632C300.471 50.248 300.707 49.956 301.011 49.756C301.315 49.548 301.679 49.444 302.103 49.444C302.735 49.444 303.231 49.672 303.591 50.128C303.959 50.576 304.143 51.208 304.143 52.024C304.143 52.568 304.059 53.032 303.891 53.416C303.731 53.8 303.499 54.096 303.195 54.304C302.891 54.512 302.527 54.616 302.103 54.616ZM302.103 53.908C302.351 53.908 302.563 53.836 302.739 53.692C302.923 53.548 303.063 53.336 303.159 53.056C303.255 52.776 303.303 52.432 303.303 52.024C303.303 51.4 303.195 50.932 302.979 50.62C302.763 50.308 302.471 50.152 302.103 50.152C301.855 50.152 301.639 50.224 301.455 50.368C301.279 50.504 301.143 50.712 301.047 50.992C300.951 51.264 300.903 51.608 300.903 52.024C300.903 52.648 301.007 53.12 301.215 53.44C301.431 53.752 301.727 53.908 302.103 53.908ZM307.839 58.108C307.207 58.108 306.707 57.88 306.339 57.424C305.979 56.968 305.799 56.332 305.799 55.516C305.799 54.972 305.879 54.508 306.039 54.124C306.207 53.74 306.443 53.448 306.747 53.248C307.059 53.04 307.423 52.936 307.839 52.936C308.479 52.936 308.979 53.164 309.339 53.62C309.699 54.068 309.879 54.7 309.879 55.516C309.879 56.06 309.799 56.528 309.639 56.92C309.479 57.304 309.247 57.6 308.943 57.808C308.639 58.008 308.271 58.108 307.839 58.108ZM307.839 57.4C308.095 57.4 308.311 57.332 308.487 57.196C308.663 57.052 308.799 56.84 308.895 56.56C308.991 56.28 309.039 55.932 309.039 55.516C309.039 54.892 308.931 54.424 308.715 54.112C308.507 53.8 308.215 53.644 307.839 53.644C307.591 53.644 307.375 53.716 307.191 53.86C307.015 53.996 306.879 54.204 306.783 54.484C306.695 54.756 306.651 55.1 306.651 55.516C306.651 56.148 306.755 56.62 306.963 56.932C307.179 57.244 307.471 57.4 307.839 57.4Z" fill="black"/>
<path d="M2.82 20.16C2.40667 20.16 2.08667 20.0467 1.86 19.82C1.64667 19.58 1.54 19.2533 1.54 18.84V7.2C1.54 6.77333 1.65333 6.45333 1.88 6.24C2.10667 6.01333 2.42667 5.9 2.84 5.9H7.66C9.20667 5.9 10.4 6.28667 11.24 7.06C12.08 7.83333 12.5 8.91333 12.5 10.3C12.5 11.6867 12.08 12.7733 11.24 13.56C10.4 14.3333 9.20667 14.72 7.66 14.72H4.1V18.84C4.1 19.2533 3.99333 19.58 3.78 19.82C3.56667 20.0467 3.24667 20.16 2.82 20.16ZM4.1 12.7H7.26C8.16667 12.7 8.85333 12.5 9.32 12.1C9.78667 11.6867 10.02 11.0867 10.02 10.3C10.02 9.51333 9.78667 8.92 9.32 8.52C8.85333 8.12 8.16667 7.92 7.26 7.92H4.1V12.7ZM15.4316 20.16C15.0182 20.16 14.6982 20.0533 14.4716 19.84C14.2582 19.6133 14.1516 19.2933 14.1516 18.88V11.32C14.1516 10.9067 14.2582 10.5933 14.4716 10.38C14.6849 10.1667 14.9849 10.06 15.3716 10.06C15.7582 10.06 16.0582 10.1667 16.2716 10.38C16.4849 10.5933 16.5916 10.9067 16.5916 11.32V12.58H16.3916C16.5782 11.78 16.9449 11.1733 17.4916 10.76C18.0382 10.3467 18.7649 10.1 19.6716 10.02C19.9516 9.99333 20.1716 10.0667 20.3316 10.24C20.5049 10.4 20.6049 10.6533 20.6316 11C20.6582 11.3333 20.5782 11.6067 20.3916 11.82C20.2182 12.02 19.9516 12.14 19.5916 12.18L19.1516 12.22C18.3382 12.3 17.7249 12.5533 17.3116 12.98C16.8982 13.3933 16.6916 13.98 16.6916 14.74V18.88C16.6916 19.2933 16.5849 19.6133 16.3716 19.84C16.1582 20.0533 15.8449 20.16 15.4316 20.16ZM26.2873 20.2C25.274 20.2 24.394 19.9933 23.6473 19.58C22.9007 19.1667 22.3207 18.58 21.9073 17.82C21.494 17.0467 21.2873 16.14 21.2873 15.1C21.2873 14.3133 21.4007 13.6133 21.6273 13C21.8673 12.3733 22.2073 11.84 22.6473 11.4C23.0873 10.9467 23.614 10.6067 24.2273 10.38C24.8407 10.14 25.5273 10.02 26.2873 10.02C27.3007 10.02 28.1807 10.2267 28.9273 10.64C29.674 11.0533 30.254 11.64 30.6673 12.4C31.0807 13.16 31.2873 14.06 31.2873 15.1C31.2873 15.8867 31.1673 16.5933 30.9273 17.22C30.7007 17.8467 30.3673 18.3867 29.9273 18.84C29.4873 19.28 28.9607 19.62 28.3473 19.86C27.734 20.0867 27.0473 20.2 26.2873 20.2ZM26.2873 18.3C26.7807 18.3 27.214 18.18 27.5873 17.94C27.9607 17.7 28.2473 17.3467 28.4473 16.88C28.6607 16.4 28.7673 15.8067 28.7673 15.1C28.7673 14.0333 28.5407 13.24 28.0873 12.72C27.634 12.1867 27.034 11.92 26.2873 11.92C25.794 11.92 25.3607 12.04 24.9873 12.28C24.614 12.5067 24.3207 12.86 24.1073 13.34C23.9073 13.8067 23.8073 14.3933 23.8073 15.1C23.8073 16.1533 24.034 16.9533 24.4873 17.5C24.9407 18.0333 25.5407 18.3 26.2873 18.3ZM37.9108 23.8C37.1908 23.8 36.4908 23.7333 35.8108 23.6C35.1441 23.4667 34.5374 23.26 33.9908 22.98C33.7374 22.8467 33.5641 22.6867 33.4708 22.5C33.3908 22.3133 33.3641 22.12 33.3908 21.92C33.4308 21.7333 33.5108 21.5667 33.6308 21.42C33.7641 21.2733 33.9241 21.1733 34.1108 21.12C34.2974 21.0667 34.4908 21.0933 34.6908 21.2C35.2774 21.4933 35.8308 21.68 36.3508 21.76C36.8841 21.8533 37.3374 21.9 37.7108 21.9C38.6041 21.9 39.2708 21.68 39.7108 21.24C40.1641 20.8133 40.3908 20.1733 40.3908 19.32V17.52H40.5708C40.3708 18.2 39.9508 18.7467 39.3108 19.16C38.6841 19.56 37.9708 19.76 37.1708 19.76C36.2908 19.76 35.5241 19.56 34.8708 19.16C34.2174 18.7467 33.7108 18.1733 33.3508 17.44C32.9908 16.7067 32.8108 15.8533 32.8108 14.88C32.8108 14.1467 32.9108 13.4867 33.1108 12.9C33.3241 12.3 33.6174 11.7867 33.9908 11.36C34.3774 10.9333 34.8374 10.6067 35.3708 10.38C35.9174 10.14 36.5174 10.02 37.1708 10.02C37.9974 10.02 38.7174 10.2267 39.3308 10.64C39.9574 11.04 40.3641 11.5733 40.5508 12.24L40.3508 12.74V11.32C40.3508 10.9067 40.4574 10.5933 40.6708 10.38C40.8974 10.1667 41.2041 10.06 41.5908 10.06C41.9908 10.06 42.2974 10.1667 42.5108 10.38C42.7241 10.5933 42.8308 10.9067 42.8308 11.32V19.02C42.8308 20.6067 42.4108 21.8 41.5708 22.6C40.7308 23.4 39.5108 23.8 37.9108 23.8ZM37.8508 17.86C38.3708 17.86 38.8174 17.74 39.1908 17.5C39.5641 17.26 39.8508 16.92 40.0508 16.48C40.2641 16.0267 40.3708 15.4933 40.3708 14.88C40.3708 13.96 40.1441 13.24 39.6908 12.72C39.2374 12.1867 38.6241 11.92 37.8508 11.92C37.3308 11.92 36.8841 12.04 36.5108 12.28C36.1374 12.52 35.8441 12.86 35.6308 13.3C35.4308 13.74 35.3308 14.2667 35.3308 14.88C35.3308 15.8 35.5574 16.5267 36.0108 17.06C36.4641 17.5933 37.0774 17.86 37.8508 17.86ZM46.7011 20.16C46.2878 20.16 45.9678 20.0533 45.7411 19.84C45.5278 19.6133 45.4211 19.2933 45.4211 18.88V11.32C45.4211 10.9067 45.5278 10.5933 45.7411 10.38C45.9544 10.1667 46.2544 10.06 46.6411 10.06C47.0278 10.06 47.3278 10.1667 47.5411 10.38C47.7544 10.5933 47.8611 10.9067 47.8611 11.32V12.58H47.6611C47.8478 11.78 48.2144 11.1733 48.7611 10.76C49.3078 10.3467 50.0344 10.1 50.9411 10.02C51.2211 9.99333 51.4411 10.0667 51.6011 10.24C51.7744 10.4 51.8744 10.6533 51.9011 11C51.9278 11.3333 51.8478 11.6067 51.6611 11.82C51.4878 12.02 51.2211 12.14 50.8611 12.18L50.4211 12.22C49.6078 12.3 48.9944 12.5533 48.5811 12.98C48.1678 13.3933 47.9611 13.98 47.9611 14.74V18.88C47.9611 19.2933 47.8544 19.6133 47.6411 19.84C47.4278 20.0533 47.1144 20.16 46.7011 20.16ZM57.9169 20.2C56.8102 20.2 55.8569 19.9933 55.0569 19.58C54.2569 19.1667 53.6369 18.58 53.1969 17.82C52.7702 17.06 52.5569 16.16 52.5569 15.12C52.5569 14.1067 52.7635 13.22 53.1769 12.46C53.6035 11.7 54.1835 11.1067 54.9169 10.68C55.6635 10.24 56.5102 10.02 57.4569 10.02C58.1502 10.02 58.7702 10.1333 59.3169 10.36C59.8769 10.5867 60.3502 10.9133 60.7369 11.34C61.1369 11.7667 61.4369 12.2867 61.6369 12.9C61.8502 13.5 61.9569 14.18 61.9569 14.94C61.9569 15.18 61.8702 15.3667 61.6969 15.5C61.5369 15.62 61.3035 15.68 60.9969 15.68H54.5769V14.24H60.1969L59.8769 14.54C59.8769 13.9267 59.7835 13.4133 59.5969 13C59.4235 12.5867 59.1635 12.2733 58.8169 12.06C58.4835 11.8333 58.0635 11.72 57.5569 11.72C56.9969 11.72 56.5169 11.8533 56.1169 12.12C55.7302 12.3733 55.4302 12.74 55.2169 13.22C55.0169 13.6867 54.9169 14.2467 54.9169 14.9V15.04C54.9169 16.1333 55.1702 16.9533 55.6769 17.5C56.1969 18.0333 56.9569 18.3 57.9569 18.3C58.3035 18.3 58.6902 18.26 59.1169 18.18C59.5569 18.0867 59.9702 17.9333 60.3569 17.72C60.6369 17.56 60.8835 17.4933 61.0969 17.52C61.3102 17.5333 61.4769 17.6067 61.5969 17.74C61.7302 17.8733 61.8102 18.04 61.8369 18.24C61.8635 18.4267 61.8235 18.62 61.7169 18.82C61.6235 19.02 61.4569 19.1933 61.2169 19.34C60.7502 19.6333 60.2102 19.8533 59.5969 20C58.9969 20.1333 58.4369 20.2 57.9169 20.2ZM67.5167 20.2C66.9434 20.2 66.3367 20.14 65.6967 20.02C65.0567 19.9 64.4834 19.6933 63.9767 19.4C63.7634 19.2667 63.6101 19.1133 63.5167 18.94C63.4367 18.7533 63.4034 18.5733 63.4167 18.4C63.4434 18.2133 63.5101 18.0533 63.6167 17.92C63.7367 17.7867 63.8834 17.7 64.0567 17.66C64.2434 17.62 64.4434 17.6533 64.6567 17.76C65.1901 18.0133 65.6901 18.1933 66.1567 18.3C66.6234 18.3933 67.0834 18.44 67.5367 18.44C68.1767 18.44 68.6501 18.3333 68.9567 18.12C69.2767 17.8933 69.4367 17.6 69.4367 17.24C69.4367 16.9333 69.3301 16.7 69.1167 16.54C68.9167 16.3667 68.6101 16.24 68.1967 16.16L66.1967 15.78C65.3701 15.62 64.7367 15.32 64.2967 14.88C63.8701 14.4267 63.6567 13.8467 63.6567 13.14C63.6567 12.5 63.8301 11.9467 64.1767 11.48C64.5367 11.0133 65.0301 10.6533 65.6567 10.4C66.2834 10.1467 67.0034 10.02 67.8167 10.02C68.4034 10.02 68.9501 10.0867 69.4567 10.22C69.9767 10.34 70.4767 10.5333 70.9567 10.8C71.1567 10.9067 71.2901 11.0467 71.3567 11.22C71.4367 11.3933 71.4567 11.5733 71.4167 11.76C71.3767 11.9333 71.2967 12.0933 71.1767 12.24C71.0567 12.3733 70.9034 12.46 70.7167 12.5C70.5434 12.5267 70.3434 12.4867 70.1167 12.38C69.7034 12.1667 69.3034 12.0133 68.9167 11.92C68.5434 11.8267 68.1834 11.78 67.8367 11.78C67.1834 11.78 66.6967 11.8933 66.3767 12.12C66.0701 12.3467 65.9167 12.6467 65.9167 13.02C65.9167 13.3 66.0101 13.5333 66.1967 13.72C66.3834 13.9067 66.6701 14.0333 67.0567 14.1L69.0567 14.48C69.9234 14.64 70.5767 14.9333 71.0167 15.36C71.4701 15.7867 71.6967 16.36 71.6967 17.08C71.6967 18.0533 71.3167 18.82 70.5567 19.38C69.7967 19.9267 68.7834 20.2 67.5167 20.2ZM77.2823 20.2C76.709 20.2 76.1023 20.14 75.4623 20.02C74.8223 19.9 74.249 19.6933 73.7423 19.4C73.529 19.2667 73.3757 19.1133 73.2823 18.94C73.2023 18.7533 73.169 18.5733 73.1823 18.4C73.209 18.2133 73.2757 18.0533 73.3823 17.92C73.5023 17.7867 73.649 17.7 73.8223 17.66C74.009 17.62 74.209 17.6533 74.4223 17.76C74.9557 18.0133 75.4557 18.1933 75.9223 18.3C76.389 18.3933 76.849 18.44 77.3023 18.44C77.9423 18.44 78.4157 18.3333 78.7223 18.12C79.0423 17.8933 79.2023 17.6 79.2023 17.24C79.2023 16.9333 79.0957 16.7 78.8823 16.54C78.6823 16.3667 78.3757 16.24 77.9623 16.16L75.9623 15.78C75.1357 15.62 74.5023 15.32 74.0623 14.88C73.6357 14.4267 73.4223 13.8467 73.4223 13.14C73.4223 12.5 73.5957 11.9467 73.9423 11.48C74.3023 11.0133 74.7957 10.6533 75.4223 10.4C76.049 10.1467 76.769 10.02 77.5823 10.02C78.169 10.02 78.7157 10.0867 79.2223 10.22C79.7423 10.34 80.2423 10.5333 80.7223 10.8C80.9223 10.9067 81.0557 11.0467 81.1223 11.22C81.2023 11.3933 81.2223 11.5733 81.1823 11.76C81.1423 11.9333 81.0623 12.0933 80.9423 12.24C80.8223 12.3733 80.669 12.46 80.4823 12.5C80.309 12.5267 80.109 12.4867 79.8823 12.38C79.469 12.1667 79.069 12.0133 78.6823 11.92C78.309 11.8267 77.949 11.78 77.6023 11.78C76.949 11.78 76.4623 11.8933 76.1423 12.12C75.8357 12.3467 75.6823 12.6467 75.6823 13.02C75.6823 13.3 75.7757 13.5333 75.9623 13.72C76.149 13.9067 76.4357 14.0333 76.8223 14.1L78.8223 14.48C79.689 14.64 80.3423 14.9333 80.7823 15.36C81.2357 15.7867 81.4623 16.36 81.4623 17.08C81.4623 18.0533 81.0823 18.82 80.3223 19.38C79.5623 19.9267 78.549 20.2 77.2823 20.2ZM84.668 20.1C84.2146 20.1 83.848 19.96 83.568 19.68C83.3013 19.4 83.168 19.04 83.168 18.6C83.168 18.1733 83.3013 17.8267 83.568 17.56C83.848 17.28 84.2146 17.14 84.668 17.14C85.1346 17.14 85.4946 17.28 85.748 17.56C86.0146 17.8267 86.148 18.1733 86.148 18.6C86.148 19.04 86.0146 19.4 85.748 19.68C85.4946 19.96 85.1346 20.1 84.668 20.1ZM84.668 13.08C84.2146 13.08 83.848 12.94 83.568 12.66C83.3013 12.38 83.168 12.0267 83.168 11.6C83.168 11.16 83.3013 10.8067 83.568 10.54C83.848 10.26 84.2146 10.12 84.668 10.12C85.1346 10.12 85.4946 10.26 85.748 10.54C86.0146 10.8067 86.148 11.16 86.148 11.6C86.148 12.0267 86.0146 12.38 85.748 12.66C85.4946 12.94 85.1346 13.08 84.668 13.08Z" fill="black"/>
<rect x="4" y="33" width="311" height="7" rx="3.5" fill="#030C28"/>
<rect x="4" y="33" width="178" height="7" rx="3.5" fill="#B7153E"/>
</svg>
