<svg width="27" height="27" viewBox="0 0 27 27" fill="none" xmlns="http://www.w3.org/2000/svg">
<path d="M11.9099 1.00601L11.3257 4.70553C10.4374 4.92458 9.58955 5.25316 8.82693 5.71154L5.77644 3.53726L3.56971 5.74399L5.71154 8.79447C5.2491 9.56115 4.89619 10.4008 4.67308 11.2933L1.00601 11.9099V15.0252L4.67308 15.6743C4.89619 16.5667 5.2491 17.4064 5.71154 18.1731L3.53726 21.2236L5.74399 23.4303L8.79447 21.2885C9.55709 21.7468 10.4049 22.0754 11.2933 22.2945L11.9099 25.994H15.0252L15.7067 22.2945C16.591 22.0714 17.4145 21.7185 18.1731 21.256L21.256 23.4303L23.4627 21.2236L21.256 18.1731C21.7103 17.4145 22.0754 16.587 22.2945 15.7067L25.994 15.0252V11.9099L22.2945 11.2933C22.0754 10.413 21.7103 9.58549 21.256 8.82693L23.4303 5.74399L21.2236 3.53726L18.1731 5.74399C17.4145 5.28561 16.5627 4.92864 15.6743 4.70553L15.0252 1.00601H11.9099ZM13.5 6.71755C17.2441 6.71755 20.2825 9.75586 20.2825 13.5C20.2825 17.2441 17.2441 20.2825 13.5 20.2825C9.75586 20.2825 6.71755 17.2401 6.71755 13.5C6.71755 9.75992 9.75586 6.71755 13.5 6.71755ZM13.5 8.3726C10.6767 8.3726 8.3726 10.6767 8.3726 13.5C8.3726 16.3233 10.6767 18.6274 13.5 18.6274C16.3233 18.6274 18.6274 16.3233 18.6274 13.5C18.6274 10.6767 16.3233 8.3726 13.5 8.3726ZM13.4676 11.3582C14.6561 11.3582 15.6418 12.3074 15.6418 13.5C15.6418 14.6886 14.6561 15.6418 13.4676 15.6418C12.279 15.6418 11.3257 14.6886 11.3257 13.5C11.3257 12.3074 12.279 11.3582 13.4676 11.3582Z" fill="black"/>
</svg>
