<svg width="30" height="31" viewBox="0 0 30 31" fill="none" xmlns="http://www.w3.org/2000/svg">
<path d="M28.125 5.8125V21.3125C28.125 24.4497 24.5142 27.125 20.5065 27.125L24.1968 30.1355C24.5452 30.4198 24.3493 31 23.9062 31H6.09375C5.64973 31 5.45555 30.4191 5.8033 30.1355L9.49348 27.125C5.49727 27.125 1.875 24.4582 1.875 21.3125V5.8125C1.875 2.60237 5.625 0 9.375 0H20.625C24.4336 0 28.125 2.60237 28.125 5.8125ZM25.3125 14.0469V7.26562C25.3125 6.46308 24.6829 5.8125 23.9062 5.8125H6.09375C5.31709 5.8125 4.6875 6.46308 4.6875 7.26562V14.0469C4.6875 14.8494 5.31709 15.5 6.09375 15.5H23.9062C24.6829 15.5 25.3125 14.8494 25.3125 14.0469ZM15 17.9219C13.1878 17.9219 11.7188 19.4399 11.7188 21.3125C11.7188 23.1851 13.1878 24.7031 15 24.7031C16.8122 24.7031 18.2812 23.1851 18.2812 21.3125C18.2812 19.4399 16.8122 17.9219 15 17.9219Z" fill="black"/>
</svg>
