<svg width="31" height="31" viewBox="0 0 31 31" fill="none" xmlns="http://www.w3.org/2000/svg">
<g clip-path="url(#clip0_8_185)">
<path d="M18.4063 5.8125C20.0108 5.8125 21.3125 4.51074 21.3125 2.90625C21.3125 1.30176 20.0108 0 18.4063 0C16.8018 0 15.5 1.30176 15.5 2.90625C15.5 4.51074 16.8018 5.8125 18.4063 5.8125ZM24.1279 14.84L22.7172 14.1256L22.1299 12.3455C21.2399 9.64512 18.7574 7.75605 15.942 7.75C13.7623 7.74395 12.5574 8.36152 10.293 9.27578C8.98517 9.80254 7.91349 10.8016 7.2838 12.073L6.87814 12.8965C6.40587 13.8531 6.78732 15.0156 7.7379 15.4939C8.68243 15.9723 9.83283 15.5848 10.3111 14.6281L10.7168 13.8047C10.9287 13.3809 11.2799 13.0479 11.7158 12.8723L13.3385 12.2184L12.4182 15.8936C12.1033 17.1529 12.4424 18.491 13.3203 19.4537L16.9471 23.4135C17.383 23.8918 17.6918 24.467 17.8492 25.0906L18.9572 29.5287C19.2176 30.5641 20.2711 31.1998 21.3065 30.9395C22.3418 30.6791 22.9776 29.6256 22.7172 28.5902L21.3731 23.2016C21.2156 22.5779 20.9068 21.9967 20.4709 21.5244L17.716 18.5152L18.7574 14.3557L19.0904 15.3547C19.4113 16.3295 20.1016 17.1348 21.0098 17.5949L22.4205 18.3094C23.3651 18.7877 24.5154 18.4002 24.9938 17.4436C25.46 16.493 25.0785 15.3184 24.1279 14.84ZM10.2688 23.359C10.075 23.8494 9.78439 24.2914 9.409 24.6607L6.38165 27.6941C5.62482 28.451 5.62482 29.6801 6.38165 30.4369C7.13849 31.1938 8.36154 31.1938 9.11837 30.4369L12.7149 26.8404C13.0842 26.4711 13.3748 26.0291 13.5746 25.5387L14.392 23.4922C11.0438 19.8412 12.0488 20.9613 11.5221 20.2408L10.2688 23.359Z" fill="black"/>
</g>
<defs>
<clipPath id="clip0_8_185">
<rect width="31" height="31" fill="white"/>
</clipPath>
</defs>
</svg>
