<svg width="123" height="102" viewBox="0 0 123 102" fill="none" xmlns="http://www.w3.org/2000/svg">
<g clip-path="url(#clip0_16_288)">
<path d="M34.6235 67.8267C42.3305 67.8267 48.5782 61.3987 48.5782 53.4694C48.5782 45.5401 42.3305 39.1122 34.6235 39.1122C26.9165 39.1122 20.6688 45.5401 20.6688 53.4694C20.6688 61.3987 26.9165 67.8267 34.6235 67.8267Z" fill="#E6E6E6"/>
<path d="M30.8533 74.4348L34.2859 76.6233V61.8301L30.4383 59.3771C30.1202 59.1743 29.8878 58.8559 29.787 58.4851C30.1546 58.4129 30.5352 58.4853 30.8533 58.6881L34.2859 60.8766V55.1402C34.2859 54.0305 34.4182 52.925 34.6798 51.8484C34.9414 52.925 35.0737 54.0305 35.0737 55.1402V64.503L40.1379 61.2744C40.5422 61.0166 41.0101 60.8838 41.4857 60.8918C41.281 61.3336 40.9572 61.7056 40.5528 61.9634L35.0737 65.4565V100.441H34.2859V77.5768L30.4383 75.1237C30.1202 74.9209 29.8878 74.6026 29.787 74.2318C30.1546 74.1595 30.5352 74.232 30.8533 74.4348Z" fill="#CCCCCC"/>
<path d="M13.9547 69.0457C21.6617 69.0457 27.9094 62.6177 27.9094 54.6884C27.9094 46.7591 21.6617 40.3312 13.9547 40.3312C6.24774 40.3312 0 46.7591 0 54.6884C0 62.6177 6.24774 69.0457 13.9547 69.0457Z" fill="#E6E6E6"/>
<path d="M17.725 75.6538L14.2923 77.8423V63.0491L18.1399 60.5961C18.458 60.3933 18.6905 60.0749 18.7912 59.7041C18.4236 59.6319 18.0431 59.7043 17.725 59.9071L14.2923 62.0956V56.3592C14.2923 55.2495 14.16 54.144 13.8984 53.0674C13.6368 54.144 13.5045 55.2495 13.5045 56.3592V65.722L8.44041 62.4934C8.03604 62.2356 7.56818 62.1028 7.09253 62.1109C7.29727 62.5526 7.6211 62.9246 8.02547 63.1824L13.5046 66.6755V100.518H14.2923V78.7958L18.1399 76.3427C18.458 76.1399 18.6905 75.8216 18.7912 75.4508C18.4236 75.3785 18.0431 75.451 17.725 75.6538Z" fill="#CCCCCC"/>
<path d="M24.0916 49.4391C37.3611 49.4391 48.1181 38.3718 48.1181 24.7196C48.1181 11.0673 37.3611 0 24.0916 0C10.8222 0 0.0651245 11.0673 0.0651245 24.7196C0.0651245 38.3718 10.8222 49.4391 24.0916 49.4391Z" fill="#E6E6E6"/>
<path d="M30.5831 60.8167L24.673 64.5847V39.1145L31.2976 34.8911C31.8453 34.5419 32.2455 33.9938 32.4189 33.3553C31.786 33.231 31.1308 33.3557 30.5831 33.7049L24.673 37.4729V27.5963C24.673 25.6857 24.4452 23.7822 23.9948 21.9286C23.5444 23.7822 23.3166 25.6857 23.3166 27.5963V43.7167L14.5974 38.1579C13.9012 37.714 13.0957 37.4853 12.2767 37.4991C12.6292 38.2598 13.1868 38.9002 13.883 39.344L23.3166 45.3584V100.573H24.673V66.2263L31.2976 62.0028C31.8453 61.6537 32.2455 61.1056 32.4189 60.4671C31.786 60.3427 31.1308 60.4675 30.5831 60.8167Z" fill="#CCCCCC"/>
<path d="M123 100.441H9.58252V100.737H123V100.441Z" fill="#3F3D56"/>
<path d="M93.7906 44.598L88.1615 47.9417L91.4114 53.7331L97.0405 50.3894L93.7906 44.598Z" fill="#FF6584"/>
<path d="M93.862 54.9401L90.4684 48.8928L96.3463 45.4014L99.7398 51.4488L93.862 54.9401ZM90.8607 49.001L93.9672 54.5365L99.3476 51.3406L96.2411 45.805L90.8607 49.001Z" fill="#2F2E41"/>
<path d="M88.596 71.1905C90.1026 71.1905 91.3238 69.934 91.3238 68.3841C91.3238 66.8341 90.1026 65.5776 88.596 65.5776C87.0895 65.5776 85.8683 66.8341 85.8683 68.3841C85.8683 69.934 87.0895 71.1905 88.596 71.1905Z" fill="#D0CDE1"/>
<path d="M90.606 71.3382C90.0381 71.3382 89.483 71.165 89.0108 70.8404C88.5386 70.5158 88.1706 70.0544 87.9532 69.5146C87.7359 68.9748 87.6791 68.3808 87.7899 67.8078C87.9006 67.2347 88.1741 66.7083 88.5757 66.2952C88.9772 65.882 89.4889 65.6007 90.0458 65.4867C90.6028 65.3727 91.1802 65.4312 91.7048 65.6548C92.2295 65.8784 92.6779 66.257 92.9934 66.7429C93.3089 67.2287 93.4773 67.7998 93.4773 68.3841C93.4773 69.1676 93.1748 69.919 92.6363 70.473C92.0979 71.027 91.3675 71.3382 90.606 71.3382ZM90.606 65.7254C90.0949 65.7254 89.5953 65.8813 89.1703 66.1734C88.7453 66.4656 88.4141 66.8808 88.2185 67.3666C88.0229 67.8525 87.9718 68.387 88.0715 68.9028C88.1712 69.4185 88.4173 69.8923 88.7787 70.2641C89.1401 70.6359 89.6006 70.8892 90.1019 70.9917C90.6031 71.0943 91.1227 71.0417 91.5949 70.8404C92.0671 70.6392 92.4707 70.2984 92.7547 69.8612C93.0386 69.424 93.1902 68.9099 93.1902 68.3841C93.1902 67.6789 92.9179 67.0027 92.4333 66.5041C91.9487 66.0055 91.2914 65.7254 90.606 65.7254Z" fill="#2F2E41"/>
<path d="M105.804 101.113H79.388C79.0644 101.113 78.7543 100.98 78.5255 100.745C78.2967 100.51 78.168 100.191 78.1677 99.8577V74.5996C78.168 74.2668 78.2967 73.9476 78.5255 73.7123C78.7543 73.4769 79.0644 73.3445 79.388 73.3441H105.804C106.128 73.3445 106.438 73.4769 106.667 73.7123C106.895 73.9476 107.024 74.2668 107.025 74.5996V99.8577C107.024 100.191 106.895 100.51 106.667 100.745C106.438 100.98 106.128 101.113 105.804 101.113Z" fill="#B7153E"/>
<path d="M94.4623 102H90.7295C90.406 102 90.0958 101.867 89.8671 101.632C89.6383 101.396 89.5096 101.077 89.5092 100.744V73.8493C89.5096 73.5164 89.6383 73.1973 89.8671 72.9619C90.0958 72.7265 90.406 72.5941 90.7295 72.5938H94.4623C94.7858 72.5941 95.096 72.7265 95.3247 72.9619C95.5535 73.1973 95.6822 73.5164 95.6826 73.8493V100.744C95.6822 101.077 95.5535 101.396 95.3247 101.632C95.096 101.867 94.7858 102 94.4623 102Z" fill="#3F3D56"/>
<path d="M112.823 70.8438C112.668 73.4495 109.247 75.3551 109.247 75.3551C109.247 75.3551 106.077 73.0362 106.231 70.4306C106.385 67.8249 109.806 65.9193 109.806 65.9193C109.806 65.9193 112.977 68.2382 112.823 70.8438Z" fill="#3F3D56"/>
<path d="M112.978 78.9736C110.445 78.8229 108.582 75.3092 108.582 75.3092C108.582 75.3092 110.826 72.0397 113.359 72.1904C115.892 72.341 117.755 75.8547 117.755 75.8547C117.755 75.8547 115.511 79.1242 112.978 78.9736Z" fill="#3F3D56"/>
<path opacity="0.1" d="M106.953 76.4342V86.0765L97.6309 73.418H104.732L106.953 76.4342Z" fill="black"/>
<path d="M114.866 92.9397C114.678 92.9401 114.492 92.8955 114.323 92.8093C114.154 92.7231 114.006 92.5977 113.892 92.4429L94.4715 66.0711C94.3747 65.9396 94.304 65.7899 94.2635 65.6304C94.223 65.4709 94.2134 65.3047 94.2352 65.1414C94.2571 64.978 94.3101 64.8207 94.391 64.6785C94.472 64.5362 94.5794 64.4117 94.7072 64.3121L97.568 62.0821C97.6957 61.9825 97.8412 61.9098 97.9963 61.8681C98.1513 61.8264 98.3128 61.8165 98.4716 61.839C98.6304 61.8616 98.7832 61.9161 98.9215 61.9994C99.0598 62.0827 99.1808 62.1933 99.2775 62.3247L118.698 88.6965C118.795 88.8279 118.866 88.9776 118.906 89.1371C118.947 89.2966 118.957 89.4628 118.935 89.6261C118.913 89.7895 118.86 89.9468 118.779 90.0891C118.698 90.2313 118.59 90.3558 118.463 90.4554L115.602 92.6854C115.39 92.8507 115.132 92.9401 114.866 92.9397Z" fill="#B7153E"/>
<path d="M107.093 72.4478L102.172 76.2834L105.9 81.3459L110.821 77.5102L107.093 72.4478Z" fill="#3F3D56"/>
<path d="M81.7807 53.1561L80.0984 59.6156L86.3768 61.3464L88.0591 54.8869L81.7807 53.1561Z" fill="#D0CDE1"/>
<path d="M83.7134 62.3122L77.1577 60.5049L78.9143 53.76L85.47 55.5673L83.7134 62.3122ZM77.5093 60.2961L83.5104 61.9504L85.1184 55.7761L79.1173 54.1218L77.5093 60.2961Z" fill="#2F2E41"/>
<path d="M56.0984 77.9896C56.2709 77.8196 56.4051 77.6127 56.4915 77.3835C56.5779 77.1544 56.6144 76.9085 56.5985 76.6633C56.5825 76.418 56.5145 76.1794 56.3992 75.9641C56.2839 75.7488 56.1242 75.5622 55.9312 75.4173L53.2947 53.5521L49.8884 54.5941L53.5658 75.8727C53.3508 76.2224 53.2679 76.6411 53.3328 77.0495C53.3978 77.4579 53.6061 77.8276 53.9183 78.0885C54.2304 78.3494 54.6248 78.4835 55.0266 78.4653C55.4284 78.447 55.8098 78.2778 56.0984 77.9896Z" fill="#FFB8B8"/>
<path d="M59.2559 98.8887H61.2482L62.1964 90.9827H59.2559V98.8887Z" fill="#FFB8B8"/>
<path d="M65.0905 100.792H58.829V98.3031H62.8926C63.4755 98.3031 64.0345 98.5414 64.4467 98.9655C64.8589 99.3895 65.0905 99.9647 65.0905 100.564V100.792Z" fill="#2F2E41"/>
<path d="M45.4788 95.6962L47.3462 96.4108L50.9138 89.3408L48.1579 88.286L45.4788 95.6962Z" fill="#FFB8B8"/>
<path d="M50.3024 99.5727L44.4338 97.3269L45.2772 94.994L49.0858 96.4516C49.6321 96.6607 50.0754 97.0845 50.318 97.6298C50.5606 98.1751 50.5827 98.7972 50.3795 99.3593L50.3024 99.5727Z" fill="#2F2E41"/>
<path d="M55.682 47.876C57.7625 47.876 59.449 46.1408 59.449 44.0003C59.449 41.8598 57.7625 40.1246 55.682 40.1246C53.6015 40.1246 51.915 41.8598 51.915 44.0003C51.915 46.1408 53.6015 47.876 55.682 47.876Z" fill="#FFB8B8"/>
<path d="M49.7899 53.9472C49.672 50.3774 53.3186 47.9009 56.3868 49.5723C56.7777 49.7853 60.814 53.3134 60.9662 55.5045C61.1183 57.6955 61.4225 61.295 61.4225 61.295L65.6817 94.0038L56.5549 93.5343L57.6571 83.9926L51.7247 93.6957L44.5379 91.3433L53.3605 65.2075C53.3605 65.2075 49.9687 59.3572 49.7899 53.9472Z" fill="#2F2E41"/>
<path d="M49.8617 55.1901L50.4478 63.0287C50.4539 63.1106 50.4898 63.187 50.5484 63.2428C50.6069 63.2986 50.6838 63.3296 50.7636 63.3296H53.3423C53.3944 63.3296 53.4457 63.3164 53.4916 63.2911C53.5376 63.2658 53.5768 63.2292 53.6057 63.1846C53.6346 63.14 53.6524 63.0888 53.6575 63.0354C53.6625 62.9821 53.6547 62.9283 53.6347 62.8787L50.47 55.0401C50.4411 54.9685 50.3883 54.9099 50.3212 54.8747C50.2541 54.8395 50.1769 54.8301 50.1037 54.8482C50.0304 54.8663 49.9658 54.9106 49.9215 54.9733C49.8771 55.0359 49.8559 55.1128 49.8617 55.1901Z" fill="#2F2E41"/>
<path d="M63.1044 76.6314C63.2564 76.4418 63.3661 76.2202 63.4259 75.9822C63.4856 75.7442 63.4939 75.4957 63.4502 75.254C63.4064 75.0124 63.3117 74.7836 63.1727 74.5836C63.0337 74.3837 62.8538 74.2176 62.6457 74.097L57.5402 52.6995L54.2759 54.1445L60.3484 74.834C60.1746 75.2072 60.1399 75.633 60.2509 76.0308C60.3618 76.4285 60.6108 76.7706 60.9505 76.9922C61.2902 77.2137 61.6971 77.2993 62.0941 77.2329C62.4911 77.1664 62.8505 76.9524 63.1044 76.6314Z" fill="#FFB8B8"/>
<path d="M54.7295 50.8095C54.7295 50.8095 53.6647 53.0005 54.7295 56.913C55.7943 60.8256 56.5548 64.1121 56.5548 64.1121C56.5548 64.1121 58.9887 62.5471 60.0534 63.0166C61.1182 63.4861 58.3691 52.5868 58.3691 52.5868C58.3691 52.5868 56.7069 48.9315 54.7295 50.8095Z" fill="#2F2E41"/>
<path d="M56.5659 44.6051C56.6168 43.8009 57.6029 43.7733 58.3861 43.7657C59.1694 43.7581 60.1058 43.7869 60.549 43.1224C60.8419 42.6832 60.786 42.0736 60.544 41.6028C60.302 41.132 59.904 40.7699 59.5125 40.4215C58.5016 39.5221 57.4597 38.6299 56.246 38.0543C55.0323 37.4786 53.6101 37.246 52.3514 37.7081C50.8051 38.2758 48.7149 41.1978 48.5344 42.8767C48.3539 44.5555 49.0061 46.2669 50.1053 47.5215C51.2046 48.776 53.7206 48.2698 55.304 48.7161C54.3414 47.3144 54.9759 44.7675 56.5179 44.1129L56.5659 44.6051Z" fill="#2F2E41"/>
</g>
<defs>
<clipPath id="clip0_16_288">
<rect width="123" height="102" fill="white"/>
</clipPath>
</defs>
</svg>
