<svg width="302" height="132" viewBox="0 0 302 132" fill="none" xmlns="http://www.w3.org/2000/svg">
<path d="M13.18 15.16C12.7667 15.16 12.4467 15.0467 12.22 14.82C12.0067 14.58 11.9 14.2467 11.9 13.82V7.74L12.44 9.28L7.62 2.5C7.44667 2.26 7.36667 2.00667 7.38 1.74C7.40667 1.46 7.52 1.22667 7.72 1.04C7.92 0.839999 8.2 0.739999 8.56 0.739999C8.82667 0.739999 9.06667 0.806666 9.28 0.94C9.50667 1.07333 9.72 1.28 9.92 1.56L13.5 6.64H12.94L16.54 1.56C16.7533 1.26667 16.96 1.06 17.16 0.94C17.36 0.806666 17.6067 0.739999 17.9 0.739999C18.2467 0.739999 18.5133 0.833332 18.7 1.02C18.9 1.19333 19 1.41333 19 1.68C19.0133 1.94667 18.92 2.22667 18.72 2.52L13.94 9.28L14.46 7.74V13.82C14.46 14.7133 14.0333 15.16 13.18 15.16ZM23.4631 15.2C22.4498 15.2 21.5698 14.9933 20.8231 14.58C20.0765 14.1667 19.4965 13.58 19.0831 12.82C18.6698 12.0467 18.4631 11.14 18.4631 10.1C18.4631 9.31333 18.5765 8.61333 18.8031 8C19.0431 7.37333 19.3831 6.84 19.8231 6.4C20.2631 5.94667 20.7898 5.60667 21.4031 5.38C22.0165 5.14 22.7031 5.02 23.4631 5.02C24.4765 5.02 25.3565 5.22667 26.1031 5.64C26.8498 6.05333 27.4298 6.64 27.8431 7.4C28.2565 8.16 28.4631 9.06 28.4631 10.1C28.4631 10.8867 28.3431 11.5933 28.1031 12.22C27.8765 12.8467 27.5431 13.3867 27.1031 13.84C26.6631 14.28 26.1365 14.62 25.5231 14.86C24.9098 15.0867 24.2231 15.2 23.4631 15.2ZM23.4631 13.3C23.9565 13.3 24.3898 13.18 24.7631 12.94C25.1365 12.7 25.4231 12.3467 25.6231 11.88C25.8365 11.4 25.9431 10.8067 25.9431 10.1C25.9431 9.03333 25.7165 8.24 25.2631 7.72C24.8098 7.18667 24.2098 6.92 23.4631 6.92C22.9698 6.92 22.5365 7.04 22.1631 7.28C21.7898 7.50667 21.4965 7.86 21.2831 8.34C21.0831 8.80667 20.9831 9.39333 20.9831 10.1C20.9831 11.1533 21.2098 11.9533 21.6631 12.5C22.1165 13.0333 22.7165 13.3 23.4631 13.3ZM34.0666 15.2C33.2532 15.2 32.5799 15.0533 32.0466 14.76C31.5132 14.4533 31.1132 14 30.8466 13.4C30.5932 12.8 30.4666 12.0533 30.4666 11.16V6.32C30.4666 5.89333 30.5732 5.58 30.7866 5.38C30.9999 5.16667 31.3066 5.06 31.7066 5.06C32.1066 5.06 32.4132 5.16667 32.6266 5.38C32.8532 5.58 32.9666 5.89333 32.9666 6.32V11.2C32.9666 11.8933 33.1066 12.4067 33.3866 12.74C33.6666 13.0733 34.1132 13.24 34.7266 13.24C35.3932 13.24 35.9399 13.0133 36.3666 12.56C36.7932 12.0933 37.0066 11.48 37.0066 10.72V6.32C37.0066 5.89333 37.1132 5.58 37.3266 5.38C37.5399 5.16667 37.8466 5.06 38.2466 5.06C38.6466 5.06 38.9532 5.16667 39.1666 5.38C39.3932 5.58 39.5066 5.89333 39.5066 6.32V13.88C39.5066 14.7333 39.0999 15.16 38.2866 15.16C37.8999 15.16 37.5999 15.0533 37.3866 14.84C37.1732 14.6133 37.0666 14.2933 37.0666 13.88V12.36L37.3466 12.96C37.0666 13.68 36.6399 14.2333 36.0666 14.62C35.5066 15.0067 34.8399 15.2 34.0666 15.2ZM43.3886 15.16C42.9753 15.16 42.6553 15.0533 42.4286 14.84C42.2153 14.6133 42.1086 14.2933 42.1086 13.88V6.32C42.1086 5.90667 42.2153 5.59333 42.4286 5.38C42.6419 5.16667 42.9419 5.06 43.3286 5.06C43.7153 5.06 44.0153 5.16667 44.2286 5.38C44.4419 5.59333 44.5486 5.90667 44.5486 6.32V7.58H44.3486C44.5353 6.78 44.9019 6.17333 45.4486 5.76C45.9953 5.34667 46.7219 5.1 47.6286 5.02C47.9086 4.99333 48.1286 5.06667 48.2886 5.24C48.4619 5.4 48.5619 5.65333 48.5886 6C48.6153 6.33333 48.5353 6.60667 48.3486 6.82C48.1753 7.02 47.9086 7.14 47.5486 7.18L47.1086 7.22C46.2953 7.3 45.6819 7.55333 45.2686 7.98C44.8553 8.39333 44.6486 8.98 44.6486 9.74V13.88C44.6486 14.2933 44.5419 14.6133 44.3286 14.84C44.1153 15.0533 43.8019 15.16 43.3886 15.16ZM62.3903 15.2C60.8303 15.2 59.5103 14.9067 58.4303 14.32C57.3636 13.7333 56.5503 12.9 55.9903 11.82C55.4303 10.74 55.1503 9.46 55.1503 7.98C55.1503 6.86 55.3103 5.85333 55.6303 4.96C55.9636 4.06667 56.437 3.30667 57.0503 2.68C57.677 2.04 58.437 1.55333 59.3303 1.22C60.2236 0.873333 61.237 0.699999 62.3703 0.699999C63.117 0.699999 63.8636 0.793333 64.6103 0.979999C65.3703 1.15333 66.0836 1.45333 66.7503 1.88C66.977 2.02667 67.1236 2.20667 67.1903 2.42C67.2703 2.63333 67.2836 2.85333 67.2303 3.08C67.177 3.29333 67.077 3.48 66.9303 3.64C66.7836 3.8 66.597 3.9 66.3703 3.94C66.157 3.98 65.917 3.92667 65.6503 3.78C65.1436 3.48667 64.6303 3.27333 64.1103 3.14C63.5903 3.00667 63.0103 2.94 62.3703 2.94C61.3836 2.94 60.5503 3.14 59.8703 3.54C59.1903 3.92667 58.677 4.49333 58.3303 5.24C57.997 5.98667 57.8303 6.9 57.8303 7.98C57.8303 9.62 58.2236 10.8667 59.0103 11.72C59.797 12.5733 60.9636 13 62.5103 13C63.0436 13 63.5836 12.9467 64.1303 12.84C64.677 12.7333 65.2103 12.5867 65.7303 12.4L65.2303 13.54V9.28H63.0303C62.697 9.28 62.437 9.19333 62.2503 9.02C62.077 8.84667 61.9903 8.61333 61.9903 8.32C61.9903 8.01333 62.077 7.78 62.2503 7.62C62.437 7.46 62.697 7.38 63.0303 7.38H66.3303C66.6636 7.38 66.917 7.47333 67.0903 7.66C67.277 7.83333 67.3703 8.08667 67.3703 8.42V13.28C67.3703 13.5733 67.3103 13.82 67.1903 14.02C67.0836 14.22 66.9036 14.3667 66.6503 14.46C66.0636 14.6733 65.3903 14.8533 64.6303 15C63.8703 15.1333 63.1236 15.2 62.3903 15.2ZM74.5569 15.2C73.5435 15.2 72.6635 14.9933 71.9169 14.58C71.1702 14.1667 70.5902 13.58 70.1769 12.82C69.7635 12.0467 69.5569 11.14 69.5569 10.1C69.5569 9.31333 69.6702 8.61333 69.8969 8C70.1369 7.37333 70.4769 6.84 70.9169 6.4C71.3569 5.94667 71.8835 5.60667 72.4969 5.38C73.1102 5.14 73.7969 5.02 74.5569 5.02C75.5702 5.02 76.4502 5.22667 77.1969 5.64C77.9435 6.05333 78.5235 6.64 78.9369 7.4C79.3502 8.16 79.5569 9.06 79.5569 10.1C79.5569 10.8867 79.4369 11.5933 79.1969 12.22C78.9702 12.8467 78.6369 13.3867 78.1969 13.84C77.7569 14.28 77.2302 14.62 76.6169 14.86C76.0035 15.0867 75.3169 15.2 74.5569 15.2ZM74.5569 13.3C75.0502 13.3 75.4835 13.18 75.8569 12.94C76.2302 12.7 76.5169 12.3467 76.7169 11.88C76.9302 11.4 77.0369 10.8067 77.0369 10.1C77.0369 9.03333 76.8102 8.24 76.3569 7.72C75.9035 7.18667 75.3035 6.92 74.5569 6.92C74.0635 6.92 73.6302 7.04 73.2569 7.28C72.8835 7.50667 72.5902 7.86 72.3769 8.34C72.1769 8.80667 72.0769 9.39333 72.0769 10.1C72.0769 11.1533 72.3035 11.9533 72.7569 12.5C73.2102 13.0333 73.8102 13.3 74.5569 13.3ZM84.8403 15.2C84.1336 15.2 83.5003 15.0667 82.9403 14.8C82.3936 14.52 81.9603 14.1467 81.6403 13.68C81.3336 13.2133 81.1803 12.6867 81.1803 12.1C81.1803 11.38 81.367 10.8133 81.7403 10.4C82.1136 9.97333 82.7203 9.66667 83.5603 9.48C84.4003 9.29333 85.527 9.2 86.9403 9.2H87.9403V10.64H86.9603C86.1336 10.64 85.4736 10.68 84.9803 10.76C84.487 10.84 84.1336 10.98 83.9203 11.18C83.7203 11.3667 83.6203 11.6333 83.6203 11.98C83.6203 12.42 83.7736 12.78 84.0803 13.06C84.387 13.34 84.8136 13.48 85.3603 13.48C85.8003 13.48 86.187 13.38 86.5203 13.18C86.867 12.9667 87.1403 12.68 87.3403 12.32C87.5403 11.96 87.6403 11.5467 87.6403 11.08V8.78C87.6403 8.11333 87.4936 7.63333 87.2003 7.34C86.907 7.04667 86.4136 6.9 85.7203 6.9C85.3336 6.9 84.9136 6.94667 84.4603 7.04C84.0203 7.13333 83.5536 7.29333 83.0603 7.52C82.807 7.64 82.5803 7.67333 82.3803 7.62C82.1936 7.56667 82.047 7.46 81.9403 7.3C81.8336 7.12667 81.7803 6.94 81.7803 6.74C81.7803 6.54 81.8336 6.34667 81.9403 6.16C82.047 5.96 82.227 5.81333 82.4803 5.72C83.0936 5.46667 83.6803 5.28667 84.2403 5.18C84.8136 5.07333 85.3336 5.02 85.8003 5.02C86.7603 5.02 87.547 5.16667 88.1603 5.46C88.787 5.75333 89.2536 6.2 89.5603 6.8C89.867 7.38667 90.0203 8.14667 90.0203 9.08V13.88C90.0203 14.2933 89.9203 14.6133 89.7203 14.84C89.5203 15.0533 89.2336 15.16 88.8603 15.16C88.487 15.16 88.1936 15.0533 87.9803 14.84C87.7803 14.6133 87.6803 14.2933 87.6803 13.88V12.92H87.8403C87.747 13.3867 87.5603 13.7933 87.2803 14.14C87.0136 14.4733 86.6736 14.7333 86.2603 14.92C85.847 15.1067 85.3736 15.2 84.8403 15.2ZM95.8978 15.2C94.7911 15.2 93.9578 14.8867 93.3978 14.26C92.8378 13.62 92.5578 12.6867 92.5578 11.46V2C92.5578 1.58667 92.6645 1.27333 92.8778 1.06C93.0911 0.846666 93.3978 0.739999 93.7978 0.739999C94.1978 0.739999 94.5045 0.846666 94.7178 1.06C94.9445 1.27333 95.0578 1.58667 95.0578 2V11.34C95.0578 11.9533 95.1845 12.4067 95.4378 12.7C95.7045 12.9933 96.0778 13.14 96.5578 13.14C96.6645 13.14 96.7645 13.14 96.8578 13.14C96.9511 13.1267 97.0445 13.1133 97.1378 13.1C97.3245 13.0733 97.4511 13.1267 97.5178 13.26C97.5845 13.38 97.6178 13.6333 97.6178 14.02C97.6178 14.3533 97.5511 14.6133 97.4178 14.8C97.2845 14.9867 97.0645 15.1 96.7578 15.14C96.6245 15.1533 96.4845 15.1667 96.3378 15.18C96.1911 15.1933 96.0445 15.2 95.8978 15.2ZM102.427 15.2C101.854 15.2 101.247 15.14 100.607 15.02C99.9669 14.9 99.3935 14.6933 98.8869 14.4C98.6735 14.2667 98.5202 14.1133 98.4269 13.94C98.3469 13.7533 98.3135 13.5733 98.3269 13.4C98.3535 13.2133 98.4202 13.0533 98.5269 12.92C98.6469 12.7867 98.7935 12.7 98.9669 12.66C99.1535 12.62 99.3535 12.6533 99.5669 12.76C100.1 13.0133 100.6 13.1933 101.067 13.3C101.534 13.3933 101.994 13.44 102.447 13.44C103.087 13.44 103.56 13.3333 103.867 13.12C104.187 12.8933 104.347 12.6 104.347 12.24C104.347 11.9333 104.24 11.7 104.027 11.54C103.827 11.3667 103.52 11.24 103.107 11.16L101.107 10.78C100.28 10.62 99.6469 10.32 99.2069 9.88C98.7802 9.42667 98.5669 8.84667 98.5669 8.14C98.5669 7.5 98.7402 6.94667 99.0869 6.48C99.4469 6.01333 99.9402 5.65333 100.567 5.4C101.194 5.14667 101.914 5.02 102.727 5.02C103.314 5.02 103.86 5.08667 104.367 5.22C104.887 5.34 105.387 5.53333 105.867 5.8C106.067 5.90667 106.2 6.04667 106.267 6.22C106.347 6.39333 106.367 6.57333 106.327 6.76C106.287 6.93333 106.207 7.09333 106.087 7.24C105.967 7.37333 105.814 7.46 105.627 7.5C105.454 7.52667 105.254 7.48667 105.027 7.38C104.614 7.16667 104.214 7.01333 103.827 6.92C103.454 6.82667 103.094 6.78 102.747 6.78C102.094 6.78 101.607 6.89333 101.287 7.12C100.98 7.34667 100.827 7.64667 100.827 8.02C100.827 8.3 100.92 8.53333 101.107 8.72C101.294 8.90667 101.58 9.03333 101.967 9.1L103.967 9.48C104.834 9.64 105.487 9.93333 105.927 10.36C106.38 10.7867 106.607 11.36 106.607 12.08C106.607 13.0533 106.227 13.82 105.467 14.38C104.707 14.9267 103.694 15.2 102.427 15.2Z" fill="black"/>
<mask id="path-2-inside-1_0_1" fill="white">
<path d="M53.5 28C61.785 28 69.9525 29.9235 77.3345 33.6132C84.7165 37.3029 91.1036 42.654 95.9734 49.2291C100.843 55.8041 104.058 63.4164 105.354 71.4436C106.65 79.4708 105.991 87.6849 103.43 95.4144C100.87 103.144 96.4815 110.169 90.6231 115.916C84.7647 121.663 77.603 125.968 69.7234 128.479C61.8439 130.991 53.4702 131.637 45.2872 130.366C37.1042 129.095 29.344 125.941 22.6413 121.164L25.7272 116.998C31.7596 121.297 38.7437 124.135 46.1085 125.279C53.4732 126.424 61.0095 125.842 68.1011 123.581C75.1927 121.321 81.6382 117.447 86.9108 112.274C92.1834 107.102 96.1332 100.779 98.4374 93.8229C100.742 86.8664 101.335 79.4737 100.168 72.2493C99.0018 65.0248 96.1089 58.1737 91.7261 52.2562C87.3432 46.3386 81.5949 41.5226 74.951 38.2018C68.3072 34.8811 60.9565 33.15 53.5 33.15V28Z"/>
</mask>
<path d="M53.5 28C61.785 28 69.9525 29.9235 77.3345 33.6132C84.7165 37.3029 91.1036 42.654 95.9734 49.2291C100.843 55.8041 104.058 63.4164 105.354 71.4436C106.65 79.4708 105.991 87.6849 103.43 95.4144C100.87 103.144 96.4815 110.169 90.6231 115.916C84.7647 121.663 77.603 125.968 69.7234 128.479C61.8439 130.991 53.4702 131.637 45.2872 130.366C37.1042 129.095 29.344 125.941 22.6413 121.164L25.7272 116.998C31.7596 121.297 38.7437 124.135 46.1085 125.279C53.4732 126.424 61.0095 125.842 68.1011 123.581C75.1927 121.321 81.6382 117.447 86.9108 112.274C92.1834 107.102 96.1332 100.779 98.4374 93.8229C100.742 86.8664 101.335 79.4737 100.168 72.2493C99.0018 65.0248 96.1089 58.1737 91.7261 52.2562C87.3432 46.3386 81.5949 41.5226 74.951 38.2018C68.3072 34.8811 60.9565 33.15 53.5 33.15V28Z" fill="#B7153E" stroke="#C2C1C1" stroke-width="2" mask="url(#path-2-inside-1_0_1)"/>
<path d="M106 79.5C106 107.943 82.4949 131 53.5 131C24.5051 131 1 107.943 1 79.5C1 51.0573 24.5051 28 53.5 28C82.4949 28 106 51.0573 106 79.5ZM6.25 79.5C6.25 105.098 27.4045 125.85 53.5 125.85C79.5955 125.85 100.75 105.098 100.75 79.5C100.75 53.9016 79.5955 33.15 53.5 33.15C27.4045 33.15 6.25 53.9016 6.25 79.5Z" stroke="#B7153E"/>
<path d="M37.824 87.24C36.432 87.24 35.24 86.912 34.248 86.256C33.272 85.584 32.528 84.624 32.016 83.376C31.504 82.128 31.248 80.616 31.248 78.84C31.248 77.4 31.408 76.128 31.728 75.024C32.064 73.904 32.544 72.96 33.168 72.192C33.792 71.424 34.552 70.84 35.448 70.44C36.36 70.04 37.384 69.84 38.52 69.84C39.224 69.84 39.936 69.952 40.656 70.176C41.392 70.384 42.08 70.704 42.72 71.136C42.976 71.296 43.144 71.504 43.224 71.76C43.304 72.016 43.312 72.272 43.248 72.528C43.2 72.768 43.088 72.984 42.912 73.176C42.752 73.352 42.544 73.464 42.288 73.512C42.032 73.544 41.752 73.472 41.448 73.296C40.904 72.976 40.392 72.752 39.912 72.624C39.432 72.496 38.952 72.432 38.472 72.432C37.544 72.432 36.76 72.648 36.12 73.08C35.48 73.512 34.992 74.16 34.656 75.024C34.336 75.888 34.176 76.968 34.176 78.264V80.064H33.888C34.016 79.248 34.28 78.552 34.68 77.976C35.096 77.384 35.624 76.936 36.264 76.632C36.904 76.312 37.616 76.152 38.4 76.152C39.376 76.152 40.24 76.384 40.992 76.848C41.744 77.312 42.336 77.952 42.768 78.768C43.2 79.584 43.416 80.52 43.416 81.576C43.416 82.664 43.176 83.64 42.696 84.504C42.232 85.352 41.576 86.024 40.728 86.52C39.896 87 38.928 87.24 37.824 87.24ZM37.656 84.792C38.232 84.792 38.736 84.664 39.168 84.408C39.616 84.152 39.96 83.792 40.2 83.328C40.44 82.848 40.56 82.304 40.56 81.696C40.56 81.072 40.44 80.528 40.2 80.064C39.96 79.6 39.616 79.24 39.168 78.984C38.736 78.712 38.232 78.576 37.656 78.576C37.08 78.576 36.576 78.712 36.144 78.984C35.712 79.24 35.368 79.6 35.112 80.064C34.872 80.528 34.752 81.072 34.752 81.696C34.752 82.304 34.872 82.848 35.112 83.328C35.368 83.792 35.712 84.152 36.144 84.408C36.576 84.664 37.08 84.792 37.656 84.792ZM51.7346 87.24C50.8866 87.24 50.0226 87.128 49.1426 86.904C48.2626 86.68 47.4546 86.336 46.7186 85.872C46.4146 85.68 46.2066 85.456 46.0946 85.2C45.9986 84.928 45.9746 84.664 46.0226 84.408C46.0866 84.136 46.2066 83.912 46.3826 83.736C46.5746 83.544 46.7986 83.432 47.0546 83.4C47.3266 83.368 47.6226 83.44 47.9426 83.616C48.5346 83.952 49.1346 84.208 49.7426 84.384C50.3506 84.56 50.9986 84.648 51.6866 84.648C52.3586 84.648 52.9346 84.528 53.4146 84.288C53.8946 84.048 54.2626 83.712 54.5186 83.28C54.7746 82.848 54.9026 82.344 54.9026 81.768C54.9026 80.872 54.6306 80.152 54.0866 79.608C53.5426 79.048 52.7986 78.768 51.8546 78.768C51.3426 78.768 50.8466 78.856 50.3666 79.032C49.8866 79.192 49.4146 79.48 48.9506 79.896C48.8066 80.024 48.6226 80.152 48.3986 80.28C48.1746 80.392 47.9346 80.448 47.6786 80.448C47.2786 80.448 46.9746 80.344 46.7666 80.136C46.5586 79.928 46.4546 79.64 46.4546 79.272V71.424C46.4546 70.992 46.5666 70.664 46.7906 70.44C47.0306 70.2 47.3666 70.08 47.7986 70.08H55.6946C56.1266 70.08 56.4546 70.192 56.6786 70.416C56.9186 70.624 57.0386 70.936 57.0386 71.352C57.0386 71.752 56.9186 72.064 56.6786 72.288C56.4546 72.512 56.1266 72.624 55.6946 72.624H49.4546V78H48.6626C49.0786 77.44 49.6306 77.008 50.3186 76.704C51.0066 76.4 51.7586 76.248 52.5746 76.248C53.6466 76.248 54.5746 76.48 55.3586 76.944C56.1586 77.392 56.7746 78.024 57.2066 78.84C57.6546 79.64 57.8786 80.576 57.8786 81.648C57.8786 82.752 57.6306 83.728 57.1346 84.576C56.6386 85.408 55.9266 86.064 54.9986 86.544C54.0866 87.008 52.9986 87.24 51.7346 87.24ZM66.6773 86.808C66.5173 87.096 66.3173 87.28 66.0773 87.36C65.8533 87.456 65.6213 87.472 65.3813 87.408C65.1573 87.36 64.9653 87.248 64.8053 87.072C64.6453 86.912 64.5493 86.712 64.5173 86.472C64.4853 86.216 64.5493 85.944 64.7093 85.656L73.5653 70.296C73.7253 70.008 73.9173 69.816 74.1413 69.72C74.3813 69.624 74.6133 69.608 74.8373 69.672C75.0613 69.72 75.2533 69.832 75.4133 70.008C75.5733 70.184 75.6693 70.4 75.7013 70.656C75.7493 70.896 75.6933 71.152 75.5333 71.424L66.6773 86.808ZM64.1093 80.184C62.7653 80.184 61.7173 79.72 60.9653 78.792C60.2133 77.864 59.8373 76.6 59.8373 75C59.8373 73.928 60.0053 73.008 60.3413 72.24C60.6773 71.472 61.1653 70.88 61.8053 70.464C62.4453 70.048 63.2133 69.84 64.1093 69.84C65.4533 69.84 66.5013 70.304 67.2533 71.232C68.0053 72.144 68.3813 73.4 68.3813 75C68.3813 76.072 68.2133 77 67.8773 77.784C67.5413 78.552 67.0533 79.144 66.4133 79.56C65.7733 79.976 65.0053 80.184 64.1093 80.184ZM64.1093 78.168C64.4933 78.168 64.8213 78.056 65.0933 77.832C65.3653 77.592 65.5733 77.24 65.7173 76.776C65.8613 76.312 65.9333 75.72 65.9333 75C65.9333 73.928 65.7733 73.136 65.4533 72.624C65.1333 72.112 64.6853 71.856 64.1093 71.856C63.7253 71.856 63.3973 71.968 63.1253 72.192C62.8533 72.416 62.6453 72.76 62.5013 73.224C62.3573 73.688 62.2853 74.28 62.2853 75C62.2853 76.088 62.4453 76.888 62.7653 77.4C63.0853 77.912 63.5333 78.168 64.1093 78.168ZM76.1573 87.24C74.8133 87.24 73.7653 86.776 73.0133 85.848C72.2613 84.92 71.8853 83.656 71.8853 82.056C71.8853 80.984 72.0533 80.064 72.3893 79.296C72.7253 78.528 73.2133 77.936 73.8533 77.52C74.4933 77.104 75.2613 76.896 76.1573 76.896C77.5013 76.896 78.5493 77.36 79.3013 78.288C80.0533 79.2 80.4293 80.456 80.4293 82.056C80.4293 83.128 80.2613 84.056 79.9253 84.84C79.5893 85.608 79.1013 86.2 78.4613 86.616C77.8213 87.032 77.0533 87.24 76.1573 87.24ZM76.1573 85.224C76.5413 85.224 76.8693 85.112 77.1413 84.888C77.4133 84.664 77.6213 84.32 77.7653 83.856C77.9093 83.376 77.9813 82.776 77.9813 82.056C77.9813 80.984 77.8213 80.192 77.5013 79.68C77.1813 79.168 76.7333 78.912 76.1573 78.912C75.7733 78.912 75.4453 79.024 75.1733 79.248C74.9013 79.472 74.6933 79.816 74.5493 80.28C74.4053 80.744 74.3333 81.336 74.3333 82.056C74.3333 83.144 74.4933 83.944 74.8133 84.456C75.1333 84.968 75.5813 85.224 76.1573 85.224Z" fill="black"/>
<path d="M151.18 36.18C149.673 36.18 148.4 35.8933 147.36 35.32C146.333 34.7467 145.553 33.92 145.02 32.84C144.487 31.76 144.22 30.4667 144.22 28.96C144.22 27.84 144.367 26.8333 144.66 25.94C144.967 25.0467 145.407 24.2933 145.98 23.68C146.567 23.0533 147.273 22.5733 148.1 22.24C148.94 21.8933 149.887 21.72 150.94 21.72C151.78 21.72 152.593 21.84 153.38 22.08C154.167 22.3067 154.867 22.6733 155.48 23.18C155.64 23.3 155.74 23.4333 155.78 23.58C155.82 23.7267 155.813 23.8733 155.76 24.02C155.72 24.1667 155.647 24.2933 155.54 24.4C155.447 24.4933 155.32 24.5467 155.16 24.56C155.013 24.5733 154.86 24.5267 154.7 24.42C154.153 23.9933 153.573 23.6867 152.96 23.5C152.347 23.3 151.667 23.2 150.92 23.2C149.853 23.2 148.947 23.4267 148.2 23.88C147.467 24.3333 146.907 24.9867 146.52 25.84C146.147 26.6933 145.96 27.7333 145.96 28.96C145.96 30.8267 146.393 32.2533 147.26 33.24C148.14 34.2267 149.46 34.72 151.22 34.72C151.86 34.72 152.487 34.66 153.1 34.54C153.713 34.4067 154.293 34.2267 154.84 34L154.48 34.94V29.96H151.62C151.38 29.96 151.2 29.9 151.08 29.78C150.96 29.66 150.9 29.5 150.9 29.3C150.9 29.0867 150.96 28.9267 151.08 28.82C151.2 28.7133 151.38 28.66 151.62 28.66H155.2C155.427 28.66 155.6 28.72 155.72 28.84C155.84 28.96 155.9 29.1333 155.9 29.36V34.58C155.9 34.78 155.867 34.9467 155.8 35.08C155.733 35.2133 155.62 35.3133 155.46 35.38C154.9 35.6067 154.227 35.8 153.44 35.96C152.667 36.1067 151.913 36.18 151.18 36.18ZM163.072 36.18C162.125 36.18 161.305 35.9733 160.612 35.56C159.918 35.1467 159.378 34.5667 158.992 33.82C158.618 33.06 158.432 32.1667 158.432 31.14C158.432 30.3667 158.538 29.6733 158.752 29.06C158.965 28.4333 159.278 27.9 159.692 27.46C160.105 27.02 160.592 26.6867 161.152 26.46C161.725 26.22 162.365 26.1 163.072 26.1C164.018 26.1 164.838 26.3067 165.532 26.72C166.225 27.1333 166.758 27.72 167.132 28.48C167.518 29.2267 167.712 30.1133 167.712 31.14C167.712 31.9133 167.605 32.6067 167.392 33.22C167.178 33.8333 166.865 34.3667 166.452 34.82C166.038 35.26 165.545 35.6 164.972 35.84C164.412 36.0667 163.778 36.18 163.072 36.18ZM163.072 34.88C163.672 34.88 164.198 34.7333 164.652 34.44C165.105 34.1467 165.452 33.72 165.692 33.16C165.945 32.6 166.072 31.9267 166.072 31.14C166.072 29.9267 165.798 29 165.252 28.36C164.718 27.72 163.992 27.4 163.072 27.4C162.458 27.4 161.925 27.5467 161.472 27.84C161.032 28.12 160.685 28.54 160.432 29.1C160.192 29.6467 160.072 30.3267 160.072 31.14C160.072 32.34 160.345 33.2667 160.892 33.92C161.438 34.56 162.165 34.88 163.072 34.88ZM173.205 36.18C172.538 36.18 171.938 36.0533 171.405 35.8C170.885 35.5333 170.472 35.1733 170.165 34.72C169.858 34.2667 169.705 33.76 169.705 33.2C169.705 32.48 169.885 31.9133 170.245 31.5C170.618 31.0867 171.225 30.7933 172.065 30.62C172.918 30.4467 174.078 30.36 175.545 30.36H176.445V31.42H175.565C174.485 31.42 173.632 31.4733 173.005 31.58C172.392 31.6733 171.958 31.84 171.705 32.08C171.465 32.32 171.345 32.66 171.345 33.1C171.345 33.6467 171.532 34.0933 171.905 34.44C172.292 34.7867 172.812 34.96 173.465 34.96C173.998 34.96 174.465 34.8333 174.865 34.58C175.278 34.3267 175.598 33.98 175.825 33.54C176.065 33.1 176.185 32.5933 176.185 32.02V29.74C176.185 28.9133 176.018 28.32 175.685 27.96C175.352 27.5867 174.805 27.4 174.045 27.4C173.578 27.4 173.112 27.46 172.645 27.58C172.178 27.7 171.685 27.8933 171.165 28.16C170.978 28.2533 170.818 28.2867 170.685 28.26C170.552 28.22 170.445 28.1467 170.365 28.04C170.285 27.9333 170.238 27.8133 170.225 27.68C170.212 27.5333 170.238 27.3933 170.305 27.26C170.385 27.1267 170.505 27.02 170.665 26.94C171.252 26.6467 171.832 26.4333 172.405 26.3C172.978 26.1667 173.525 26.1 174.045 26.1C174.885 26.1 175.578 26.24 176.125 26.52C176.672 26.7867 177.078 27.2 177.345 27.76C177.612 28.3067 177.745 29.0133 177.745 29.88V35.3C177.745 35.5667 177.678 35.7733 177.545 35.92C177.425 36.0667 177.245 36.14 177.005 36.14C176.752 36.14 176.558 36.0667 176.425 35.92C176.292 35.7733 176.225 35.5667 176.225 35.3V33.74H176.405C176.298 34.2467 176.092 34.68 175.785 35.04C175.492 35.4 175.125 35.68 174.685 35.88C174.245 36.08 173.752 36.18 173.205 36.18ZM183.71 36.18C182.75 36.18 182.017 35.8867 181.51 35.3C181.004 34.7133 180.75 33.8733 180.75 32.78V22.58C180.75 22.3133 180.817 22.1133 180.95 21.98C181.084 21.8333 181.284 21.76 181.55 21.76C181.804 21.76 182.004 21.8333 182.15 21.98C182.297 22.1133 182.37 22.3133 182.37 22.58V32.66C182.37 33.38 182.51 33.92 182.79 34.28C183.084 34.6267 183.51 34.8 184.07 34.8C184.19 34.8 184.297 34.7933 184.39 34.78C184.484 34.7667 184.577 34.76 184.67 34.76C184.817 34.7467 184.917 34.78 184.97 34.86C185.037 34.94 185.07 35.1 185.07 35.34C185.07 35.58 185.017 35.76 184.91 35.88C184.804 36 184.63 36.08 184.39 36.12C184.284 36.1333 184.17 36.1467 184.05 36.16C183.93 36.1733 183.817 36.18 183.71 36.18ZM193.405 36C193.165 36 192.978 35.94 192.845 35.82C192.711 35.6867 192.645 35.5067 192.645 35.28C192.645 35.0533 192.711 34.8867 192.845 34.78C192.978 34.66 193.165 34.6 193.405 34.6H196.005V23.26H196.865L193.965 25.18C193.791 25.2733 193.625 25.3133 193.465 25.3C193.318 25.2867 193.191 25.2333 193.085 25.14C192.991 25.0333 192.925 24.9133 192.885 24.78C192.845 24.6333 192.851 24.4867 192.905 24.34C192.958 24.18 193.071 24.0467 193.245 23.94L196.005 22.12C196.178 22.0133 196.345 21.9267 196.505 21.86C196.665 21.7933 196.825 21.76 196.985 21.76C197.171 21.76 197.325 21.82 197.445 21.94C197.578 22.0467 197.645 22.22 197.645 22.46V34.6H200.045C200.285 34.6 200.471 34.66 200.605 34.78C200.738 34.8867 200.805 35.0533 200.805 35.28C200.805 35.52 200.738 35.7 200.605 35.82C200.471 35.94 200.285 36 200.045 36H193.405Z" fill="black"/>
<path d="M151.18 36.18C149.673 36.18 148.4 35.8933 147.36 35.32C146.333 34.7467 145.553 33.92 145.02 32.84C144.487 31.76 144.22 30.4667 144.22 28.96C144.22 27.84 144.367 26.8333 144.66 25.94C144.967 25.0467 145.407 24.2933 145.98 23.68C146.567 23.0533 147.273 22.5733 148.1 22.24C148.94 21.8933 149.887 21.72 150.94 21.72C151.78 21.72 152.593 21.84 153.38 22.08C154.167 22.3067 154.867 22.6733 155.48 23.18C155.64 23.3 155.74 23.4333 155.78 23.58C155.82 23.7267 155.813 23.8733 155.76 24.02C155.72 24.1667 155.647 24.2933 155.54 24.4C155.447 24.4933 155.32 24.5467 155.16 24.56C155.013 24.5733 154.86 24.5267 154.7 24.42C154.153 23.9933 153.573 23.6867 152.96 23.5C152.347 23.3 151.667 23.2 150.92 23.2C149.853 23.2 148.947 23.4267 148.2 23.88C147.467 24.3333 146.907 24.9867 146.52 25.84C146.147 26.6933 145.96 27.7333 145.96 28.96C145.96 30.8267 146.393 32.2533 147.26 33.24C148.14 34.2267 149.46 34.72 151.22 34.72C151.86 34.72 152.487 34.66 153.1 34.54C153.713 34.4067 154.293 34.2267 154.84 34L154.48 34.94V29.96H151.62C151.38 29.96 151.2 29.9 151.08 29.78C150.96 29.66 150.9 29.5 150.9 29.3C150.9 29.0867 150.96 28.9267 151.08 28.82C151.2 28.7133 151.38 28.66 151.62 28.66H155.2C155.427 28.66 155.6 28.72 155.72 28.84C155.84 28.96 155.9 29.1333 155.9 29.36V34.58C155.9 34.78 155.867 34.9467 155.8 35.08C155.733 35.2133 155.62 35.3133 155.46 35.38C154.9 35.6067 154.227 35.8 153.44 35.96C152.667 36.1067 151.913 36.18 151.18 36.18ZM163.072 36.18C162.125 36.18 161.305 35.9733 160.612 35.56C159.918 35.1467 159.378 34.5667 158.992 33.82C158.618 33.06 158.432 32.1667 158.432 31.14C158.432 30.3667 158.538 29.6733 158.752 29.06C158.965 28.4333 159.278 27.9 159.692 27.46C160.105 27.02 160.592 26.6867 161.152 26.46C161.725 26.22 162.365 26.1 163.072 26.1C164.018 26.1 164.838 26.3067 165.532 26.72C166.225 27.1333 166.758 27.72 167.132 28.48C167.518 29.2267 167.712 30.1133 167.712 31.14C167.712 31.9133 167.605 32.6067 167.392 33.22C167.178 33.8333 166.865 34.3667 166.452 34.82C166.038 35.26 165.545 35.6 164.972 35.84C164.412 36.0667 163.778 36.18 163.072 36.18ZM163.072 34.88C163.672 34.88 164.198 34.7333 164.652 34.44C165.105 34.1467 165.452 33.72 165.692 33.16C165.945 32.6 166.072 31.9267 166.072 31.14C166.072 29.9267 165.798 29 165.252 28.36C164.718 27.72 163.992 27.4 163.072 27.4C162.458 27.4 161.925 27.5467 161.472 27.84C161.032 28.12 160.685 28.54 160.432 29.1C160.192 29.6467 160.072 30.3267 160.072 31.14C160.072 32.34 160.345 33.2667 160.892 33.92C161.438 34.56 162.165 34.88 163.072 34.88ZM173.205 36.18C172.538 36.18 171.938 36.0533 171.405 35.8C170.885 35.5333 170.472 35.1733 170.165 34.72C169.858 34.2667 169.705 33.76 169.705 33.2C169.705 32.48 169.885 31.9133 170.245 31.5C170.618 31.0867 171.225 30.7933 172.065 30.62C172.918 30.4467 174.078 30.36 175.545 30.36H176.445V31.42H175.565C174.485 31.42 173.632 31.4733 173.005 31.58C172.392 31.6733 171.958 31.84 171.705 32.08C171.465 32.32 171.345 32.66 171.345 33.1C171.345 33.6467 171.532 34.0933 171.905 34.44C172.292 34.7867 172.812 34.96 173.465 34.96C173.998 34.96 174.465 34.8333 174.865 34.58C175.278 34.3267 175.598 33.98 175.825 33.54C176.065 33.1 176.185 32.5933 176.185 32.02V29.74C176.185 28.9133 176.018 28.32 175.685 27.96C175.352 27.5867 174.805 27.4 174.045 27.4C173.578 27.4 173.112 27.46 172.645 27.58C172.178 27.7 171.685 27.8933 171.165 28.16C170.978 28.2533 170.818 28.2867 170.685 28.26C170.552 28.22 170.445 28.1467 170.365 28.04C170.285 27.9333 170.238 27.8133 170.225 27.68C170.212 27.5333 170.238 27.3933 170.305 27.26C170.385 27.1267 170.505 27.02 170.665 26.94C171.252 26.6467 171.832 26.4333 172.405 26.3C172.978 26.1667 173.525 26.1 174.045 26.1C174.885 26.1 175.578 26.24 176.125 26.52C176.672 26.7867 177.078 27.2 177.345 27.76C177.612 28.3067 177.745 29.0133 177.745 29.88V35.3C177.745 35.5667 177.678 35.7733 177.545 35.92C177.425 36.0667 177.245 36.14 177.005 36.14C176.752 36.14 176.558 36.0667 176.425 35.92C176.292 35.7733 176.225 35.5667 176.225 35.3V33.74H176.405C176.298 34.2467 176.092 34.68 175.785 35.04C175.492 35.4 175.125 35.68 174.685 35.88C174.245 36.08 173.752 36.18 173.205 36.18ZM183.71 36.18C182.75 36.18 182.017 35.8867 181.51 35.3C181.004 34.7133 180.75 33.8733 180.75 32.78V22.58C180.75 22.3133 180.817 22.1133 180.95 21.98C181.084 21.8333 181.284 21.76 181.55 21.76C181.804 21.76 182.004 21.8333 182.15 21.98C182.297 22.1133 182.37 22.3133 182.37 22.58V32.66C182.37 33.38 182.51 33.92 182.79 34.28C183.084 34.6267 183.51 34.8 184.07 34.8C184.19 34.8 184.297 34.7933 184.39 34.78C184.484 34.7667 184.577 34.76 184.67 34.76C184.817 34.7467 184.917 34.78 184.97 34.86C185.037 34.94 185.07 35.1 185.07 35.34C185.07 35.58 185.017 35.76 184.91 35.88C184.804 36 184.63 36.08 184.39 36.12C184.284 36.1333 184.17 36.1467 184.05 36.16C183.93 36.1733 183.817 36.18 183.71 36.18ZM193.405 36C193.165 36 192.978 35.94 192.845 35.82C192.711 35.6867 192.645 35.5067 192.645 35.28C192.645 35.0533 192.711 34.8867 192.845 34.78C192.978 34.66 193.165 34.6 193.405 34.6H196.005V23.26H196.865L193.965 25.18C193.791 25.2733 193.625 25.3133 193.465 25.3C193.318 25.2867 193.191 25.2333 193.085 25.14C192.991 25.0333 192.925 24.9133 192.885 24.78C192.845 24.6333 192.851 24.4867 192.905 24.34C192.958 24.18 193.071 24.0467 193.245 23.94L196.005 22.12C196.178 22.0133 196.345 21.9267 196.505 21.86C196.665 21.7933 196.825 21.76 196.985 21.76C197.171 21.76 197.325 21.82 197.445 21.94C197.578 22.0467 197.645 22.22 197.645 22.46V34.6H200.045C200.285 34.6 200.471 34.66 200.605 34.78C200.738 34.8867 200.805 35.0533 200.805 35.28C200.805 35.52 200.738 35.7 200.605 35.82C200.471 35.94 200.285 36 200.045 36H193.405Z" fill="black"/>
<rect x="143" y="54" width="85" height="9" rx="4.5" fill="#B7153E"/>
<path d="M152.18 96.18C150.673 96.18 149.4 95.8933 148.36 95.32C147.333 94.7467 146.553 93.92 146.02 92.84C145.487 91.76 145.22 90.4667 145.22 88.96C145.22 87.84 145.367 86.8333 145.66 85.94C145.967 85.0467 146.407 84.2933 146.98 83.68C147.567 83.0533 148.273 82.5733 149.1 82.24C149.94 81.8933 150.887 81.72 151.94 81.72C152.78 81.72 153.593 81.84 154.38 82.08C155.167 82.3067 155.867 82.6733 156.48 83.18C156.64 83.3 156.74 83.4333 156.78 83.58C156.82 83.7267 156.813 83.8733 156.76 84.02C156.72 84.1667 156.647 84.2933 156.54 84.4C156.447 84.4933 156.32 84.5467 156.16 84.56C156.013 84.5733 155.86 84.5267 155.7 84.42C155.153 83.9933 154.573 83.6867 153.96 83.5C153.347 83.3 152.667 83.2 151.92 83.2C150.853 83.2 149.947 83.4267 149.2 83.88C148.467 84.3333 147.907 84.9867 147.52 85.84C147.147 86.6933 146.96 87.7333 146.96 88.96C146.96 90.8267 147.393 92.2533 148.26 93.24C149.14 94.2267 150.46 94.72 152.22 94.72C152.86 94.72 153.487 94.66 154.1 94.54C154.713 94.4067 155.293 94.2267 155.84 94L155.48 94.94V89.96H152.62C152.38 89.96 152.2 89.9 152.08 89.78C151.96 89.66 151.9 89.5 151.9 89.3C151.9 89.0867 151.96 88.9267 152.08 88.82C152.2 88.7133 152.38 88.66 152.62 88.66H156.2C156.427 88.66 156.6 88.72 156.72 88.84C156.84 88.96 156.9 89.1333 156.9 89.36V94.58C156.9 94.78 156.867 94.9467 156.8 95.08C156.733 95.2133 156.62 95.3133 156.46 95.38C155.9 95.6067 155.227 95.8 154.44 95.96C153.667 96.1067 152.913 96.18 152.18 96.18ZM164.072 96.18C163.125 96.18 162.305 95.9733 161.612 95.56C160.918 95.1467 160.378 94.5667 159.992 93.82C159.618 93.06 159.432 92.1667 159.432 91.14C159.432 90.3667 159.538 89.6733 159.752 89.06C159.965 88.4333 160.278 87.9 160.692 87.46C161.105 87.02 161.592 86.6867 162.152 86.46C162.725 86.22 163.365 86.1 164.072 86.1C165.018 86.1 165.838 86.3067 166.532 86.72C167.225 87.1333 167.758 87.72 168.132 88.48C168.518 89.2267 168.712 90.1133 168.712 91.14C168.712 91.9133 168.605 92.6067 168.392 93.22C168.178 93.8333 167.865 94.3667 167.452 94.82C167.038 95.26 166.545 95.6 165.972 95.84C165.412 96.0667 164.778 96.18 164.072 96.18ZM164.072 94.88C164.672 94.88 165.198 94.7333 165.652 94.44C166.105 94.1467 166.452 93.72 166.692 93.16C166.945 92.6 167.072 91.9267 167.072 91.14C167.072 89.9267 166.798 89 166.252 88.36C165.718 87.72 164.992 87.4 164.072 87.4C163.458 87.4 162.925 87.5467 162.472 87.84C162.032 88.12 161.685 88.54 161.432 89.1C161.192 89.6467 161.072 90.3267 161.072 91.14C161.072 92.34 161.345 93.2667 161.892 93.92C162.438 94.56 163.165 94.88 164.072 94.88ZM174.205 96.18C173.538 96.18 172.938 96.0533 172.405 95.8C171.885 95.5333 171.472 95.1733 171.165 94.72C170.858 94.2667 170.705 93.76 170.705 93.2C170.705 92.48 170.885 91.9133 171.245 91.5C171.618 91.0867 172.225 90.7933 173.065 90.62C173.918 90.4467 175.078 90.36 176.545 90.36H177.445V91.42H176.565C175.485 91.42 174.632 91.4733 174.005 91.58C173.392 91.6733 172.958 91.84 172.705 92.08C172.465 92.32 172.345 92.66 172.345 93.1C172.345 93.6467 172.532 94.0933 172.905 94.44C173.292 94.7867 173.812 94.96 174.465 94.96C174.998 94.96 175.465 94.8333 175.865 94.58C176.278 94.3267 176.598 93.98 176.825 93.54C177.065 93.1 177.185 92.5933 177.185 92.02V89.74C177.185 88.9133 177.018 88.32 176.685 87.96C176.352 87.5867 175.805 87.4 175.045 87.4C174.578 87.4 174.112 87.46 173.645 87.58C173.178 87.7 172.685 87.8933 172.165 88.16C171.978 88.2533 171.818 88.2867 171.685 88.26C171.552 88.22 171.445 88.1467 171.365 88.04C171.285 87.9333 171.238 87.8133 171.225 87.68C171.212 87.5333 171.238 87.3933 171.305 87.26C171.385 87.1267 171.505 87.02 171.665 86.94C172.252 86.6467 172.832 86.4333 173.405 86.3C173.978 86.1667 174.525 86.1 175.045 86.1C175.885 86.1 176.578 86.24 177.125 86.52C177.672 86.7867 178.078 87.2 178.345 87.76C178.612 88.3067 178.745 89.0133 178.745 89.88V95.3C178.745 95.5667 178.678 95.7733 178.545 95.92C178.425 96.0667 178.245 96.14 178.005 96.14C177.752 96.14 177.558 96.0667 177.425 95.92C177.292 95.7733 177.225 95.5667 177.225 95.3V93.74H177.405C177.298 94.2467 177.092 94.68 176.785 95.04C176.492 95.4 176.125 95.68 175.685 95.88C175.245 96.08 174.752 96.18 174.205 96.18ZM184.71 96.18C183.75 96.18 183.017 95.8867 182.51 95.3C182.004 94.7133 181.75 93.8733 181.75 92.78V82.58C181.75 82.3133 181.817 82.1133 181.95 81.98C182.084 81.8333 182.284 81.76 182.55 81.76C182.804 81.76 183.004 81.8333 183.15 81.98C183.297 82.1133 183.37 82.3133 183.37 82.58V92.66C183.37 93.38 183.51 93.92 183.79 94.28C184.084 94.6267 184.51 94.8 185.07 94.8C185.19 94.8 185.297 94.7933 185.39 94.78C185.484 94.7667 185.577 94.76 185.67 94.76C185.817 94.7467 185.917 94.78 185.97 94.86C186.037 94.94 186.07 95.1 186.07 95.34C186.07 95.58 186.017 95.76 185.91 95.88C185.804 96 185.63 96.08 185.39 96.12C185.284 96.1333 185.17 96.1467 185.05 96.16C184.93 96.1733 184.817 96.18 184.71 96.18ZM193.885 96C193.591 96 193.371 95.9333 193.225 95.8C193.091 95.6533 193.025 95.46 193.025 95.22C193.025 95.0733 193.058 94.9333 193.125 94.8C193.205 94.6533 193.311 94.5067 193.445 94.36L197.925 89.56C198.605 88.8267 199.091 88.1533 199.385 87.54C199.691 86.9133 199.845 86.28 199.845 85.64C199.845 84.84 199.598 84.2333 199.105 83.82C198.625 83.3933 197.918 83.18 196.985 83.18C196.385 83.18 195.818 83.2733 195.285 83.46C194.751 83.6467 194.238 83.9333 193.745 84.32C193.571 84.4533 193.411 84.5133 193.265 84.5C193.131 84.4867 193.011 84.4333 192.905 84.34C192.798 84.2467 192.725 84.1267 192.685 83.98C192.645 83.8333 192.645 83.6867 192.685 83.54C192.738 83.3933 192.845 83.26 193.005 83.14C193.525 82.7133 194.151 82.3733 194.885 82.12C195.618 81.8533 196.365 81.72 197.125 81.72C198.071 81.72 198.871 81.8667 199.525 82.16C200.178 82.4533 200.671 82.8867 201.005 83.46C201.338 84.02 201.505 84.7067 201.505 85.52C201.505 86.08 201.411 86.6333 201.225 87.18C201.051 87.7133 200.778 88.26 200.405 88.82C200.045 89.38 199.571 89.96 198.985 90.56L194.725 95.06V94.6H201.465C201.718 94.6 201.905 94.66 202.025 94.78C202.158 94.8867 202.225 95.0533 202.225 95.28C202.225 95.52 202.158 95.7 202.025 95.82C201.905 95.94 201.718 96 201.465 96H193.885Z" fill="black"/>
<rect x="143" y="116" width="125" height="9" rx="4.5" fill="#B7153E"/>
<path d="M143 120.5C143 118.015 145.015 116 147.5 116H263.5C265.985 116 268 118.015 268 120.5C268 122.985 265.985 125 263.5 125H147.5C145.015 125 143 122.985 143 120.5Z" fill="#B7153E"/>
<path d="M248.78 63.108C248.324 63.108 247.868 63.04 247.412 62.904C246.964 62.768 246.556 62.556 246.188 62.268C246.092 62.204 246.028 62.128 245.996 62.04C245.964 61.952 245.96 61.864 245.984 61.776C246.008 61.688 246.052 61.616 246.116 61.56C246.18 61.496 246.256 61.46 246.344 61.452C246.44 61.444 246.54 61.476 246.644 61.548C246.972 61.78 247.312 61.952 247.664 62.064C248.016 62.176 248.384 62.232 248.768 62.232C249.16 62.232 249.496 62.16 249.776 62.016C250.064 61.864 250.28 61.656 250.424 61.392C250.576 61.12 250.652 60.804 250.652 60.444C250.652 59.892 250.492 59.44 250.172 59.088C249.852 58.736 249.412 58.56 248.852 58.56C248.508 58.56 248.192 58.624 247.904 58.752C247.616 58.88 247.352 59.084 247.112 59.364C247.056 59.428 246.988 59.484 246.908 59.532C246.836 59.572 246.752 59.592 246.656 59.592C246.52 59.592 246.412 59.556 246.332 59.484C246.26 59.404 246.224 59.3 246.224 59.172V54.996C246.224 54.844 246.264 54.732 246.344 54.66C246.424 54.58 246.536 54.54 246.68 54.54H250.76C250.912 54.54 251.024 54.576 251.096 54.648C251.176 54.72 251.216 54.824 251.216 54.96C251.216 55.096 251.176 55.2 251.096 55.272C251.024 55.344 250.912 55.38 250.76 55.38H247.196V58.752H246.932C247.14 58.416 247.428 58.16 247.796 57.984C248.164 57.8 248.576 57.708 249.032 57.708C249.568 57.708 250.028 57.82 250.412 58.044C250.804 58.268 251.104 58.584 251.312 58.992C251.528 59.392 251.636 59.86 251.636 60.396C251.636 60.924 251.52 61.392 251.288 61.8C251.056 62.208 250.728 62.528 250.304 62.76C249.88 62.992 249.372 63.108 248.78 63.108ZM255.975 63.108C255.519 63.108 255.063 63.04 254.607 62.904C254.159 62.768 253.751 62.556 253.383 62.268C253.287 62.204 253.223 62.128 253.191 62.04C253.159 61.952 253.155 61.864 253.179 61.776C253.203 61.688 253.247 61.616 253.311 61.56C253.375 61.496 253.451 61.46 253.539 61.452C253.635 61.444 253.735 61.476 253.839 61.548C254.167 61.78 254.507 61.952 254.859 62.064C255.211 62.176 255.579 62.232 255.963 62.232C256.355 62.232 256.691 62.16 256.971 62.016C257.259 61.864 257.475 61.656 257.619 61.392C257.771 61.12 257.847 60.804 257.847 60.444C257.847 59.892 257.687 59.44 257.367 59.088C257.047 58.736 256.607 58.56 256.047 58.56C255.703 58.56 255.387 58.624 255.099 58.752C254.811 58.88 254.547 59.084 254.307 59.364C254.251 59.428 254.183 59.484 254.103 59.532C254.031 59.572 253.947 59.592 253.851 59.592C253.715 59.592 253.607 59.556 253.527 59.484C253.455 59.404 253.419 59.3 253.419 59.172V54.996C253.419 54.844 253.459 54.732 253.539 54.66C253.619 54.58 253.731 54.54 253.875 54.54H257.955C258.107 54.54 258.219 54.576 258.291 54.648C258.371 54.72 258.411 54.824 258.411 54.96C258.411 55.096 258.371 55.2 258.291 55.272C258.219 55.344 258.107 55.38 257.955 55.38H254.391V58.752H254.127C254.335 58.416 254.623 58.16 254.991 57.984C255.359 57.8 255.771 57.708 256.227 57.708C256.763 57.708 257.223 57.82 257.607 58.044C257.999 58.268 258.299 58.584 258.507 58.992C258.723 59.392 258.831 59.86 258.831 60.396C258.831 60.924 258.715 61.392 258.483 61.8C258.251 62.208 257.923 62.528 257.499 62.76C257.075 62.992 256.567 63.108 255.975 63.108ZM262.991 63.012C262.935 63.116 262.867 63.184 262.787 63.216C262.707 63.256 262.627 63.264 262.547 63.24C262.467 63.224 262.399 63.184 262.343 63.12C262.287 63.064 262.251 62.992 262.235 62.904C262.227 62.816 262.251 62.72 262.307 62.616L266.939 54.552C266.995 54.448 267.063 54.38 267.143 54.348C267.223 54.308 267.303 54.3 267.383 54.324C267.463 54.34 267.531 54.38 267.587 54.444C267.643 54.508 267.675 54.584 267.683 54.672C267.699 54.76 267.679 54.852 267.623 54.948L262.991 63.012ZM262.103 59.616C261.463 59.616 260.963 59.388 260.603 58.932C260.243 58.476 260.063 57.84 260.063 57.024C260.063 56.48 260.143 56.016 260.303 55.632C260.471 55.248 260.707 54.956 261.011 54.756C261.315 54.548 261.679 54.444 262.103 54.444C262.735 54.444 263.231 54.672 263.591 55.128C263.959 55.576 264.143 56.208 264.143 57.024C264.143 57.568 264.059 58.032 263.891 58.416C263.731 58.8 263.499 59.096 263.195 59.304C262.891 59.512 262.527 59.616 262.103 59.616ZM262.103 58.908C262.351 58.908 262.563 58.836 262.739 58.692C262.923 58.548 263.063 58.336 263.159 58.056C263.255 57.776 263.303 57.432 263.303 57.024C263.303 56.4 263.195 55.932 262.979 55.62C262.763 55.308 262.471 55.152 262.103 55.152C261.855 55.152 261.639 55.224 261.455 55.368C261.279 55.504 261.143 55.712 261.047 55.992C260.951 56.264 260.903 56.608 260.903 57.024C260.903 57.648 261.007 58.12 261.215 58.44C261.431 58.752 261.727 58.908 262.103 58.908ZM267.839 63.108C267.207 63.108 266.707 62.88 266.339 62.424C265.979 61.968 265.799 61.332 265.799 60.516C265.799 59.972 265.879 59.508 266.039 59.124C266.207 58.74 266.443 58.448 266.747 58.248C267.059 58.04 267.423 57.936 267.839 57.936C268.479 57.936 268.979 58.164 269.339 58.62C269.699 59.068 269.879 59.7 269.879 60.516C269.879 61.06 269.799 61.528 269.639 61.92C269.479 62.304 269.247 62.6 268.943 62.808C268.639 63.008 268.271 63.108 267.839 63.108ZM267.839 62.4C268.095 62.4 268.311 62.332 268.487 62.196C268.663 62.052 268.799 61.84 268.895 61.56C268.991 61.28 269.039 60.932 269.039 60.516C269.039 59.892 268.931 59.424 268.715 59.112C268.507 58.8 268.215 58.644 267.839 58.644C267.591 58.644 267.375 58.716 267.191 58.86C267.015 58.996 266.879 59.204 266.783 59.484C266.695 59.756 266.651 60.1 266.651 60.516C266.651 61.148 266.755 61.62 266.963 61.932C267.179 62.244 267.471 62.4 267.839 62.4Z" fill="black"/>
<path d="M279.016 123.084C278.904 123.084 278.808 123.056 278.728 123C278.648 122.944 278.596 122.868 278.572 122.772C278.556 122.668 278.58 122.556 278.644 122.436L282.496 114.96V115.392H278.176C278.032 115.392 277.92 115.356 277.84 115.284C277.76 115.204 277.72 115.096 277.72 114.96C277.72 114.824 277.76 114.72 277.84 114.648C277.92 114.576 278.032 114.54 278.176 114.54H282.94C283.084 114.54 283.2 114.576 283.288 114.648C283.376 114.72 283.42 114.824 283.42 114.96C283.42 115.072 283.404 115.172 283.372 115.26C283.348 115.34 283.312 115.432 283.264 115.536L279.568 122.748C279.512 122.86 279.44 122.944 279.352 123C279.264 123.056 279.152 123.084 279.016 123.084ZM287.975 123.108C287.519 123.108 287.063 123.04 286.607 122.904C286.159 122.768 285.751 122.556 285.383 122.268C285.287 122.204 285.223 122.128 285.191 122.04C285.159 121.952 285.155 121.864 285.179 121.776C285.203 121.688 285.247 121.616 285.311 121.56C285.375 121.496 285.451 121.46 285.539 121.452C285.635 121.444 285.735 121.476 285.839 121.548C286.167 121.78 286.507 121.952 286.859 122.064C287.211 122.176 287.579 122.232 287.963 122.232C288.355 122.232 288.691 122.16 288.971 122.016C289.259 121.864 289.475 121.656 289.619 121.392C289.771 121.12 289.847 120.804 289.847 120.444C289.847 119.892 289.687 119.44 289.367 119.088C289.047 118.736 288.607 118.56 288.047 118.56C287.703 118.56 287.387 118.624 287.099 118.752C286.811 118.88 286.547 119.084 286.307 119.364C286.251 119.428 286.183 119.484 286.103 119.532C286.031 119.572 285.947 119.592 285.851 119.592C285.715 119.592 285.607 119.556 285.527 119.484C285.455 119.404 285.419 119.3 285.419 119.172V114.996C285.419 114.844 285.459 114.732 285.539 114.66C285.619 114.58 285.731 114.54 285.875 114.54H289.955C290.107 114.54 290.219 114.576 290.291 114.648C290.371 114.72 290.411 114.824 290.411 114.96C290.411 115.096 290.371 115.2 290.291 115.272C290.219 115.344 290.107 115.38 289.955 115.38H286.391V118.752H286.127C286.335 118.416 286.623 118.16 286.991 117.984C287.359 117.8 287.771 117.708 288.227 117.708C288.763 117.708 289.223 117.82 289.607 118.044C289.999 118.268 290.299 118.584 290.507 118.992C290.723 119.392 290.831 119.86 290.831 120.396C290.831 120.924 290.715 121.392 290.483 121.8C290.251 122.208 289.923 122.528 289.499 122.76C289.075 122.992 288.567 123.108 287.975 123.108ZM294.991 123.012C294.935 123.116 294.867 123.184 294.787 123.216C294.707 123.256 294.627 123.264 294.547 123.24C294.467 123.224 294.399 123.184 294.343 123.12C294.287 123.064 294.251 122.992 294.235 122.904C294.227 122.816 294.251 122.72 294.307 122.616L298.939 114.552C298.995 114.448 299.063 114.38 299.143 114.348C299.223 114.308 299.303 114.3 299.383 114.324C299.463 114.34 299.531 114.38 299.587 114.444C299.643 114.508 299.675 114.584 299.683 114.672C299.699 114.76 299.679 114.852 299.623 114.948L294.991 123.012ZM294.103 119.616C293.463 119.616 292.963 119.388 292.603 118.932C292.243 118.476 292.063 117.84 292.063 117.024C292.063 116.48 292.143 116.016 292.303 115.632C292.471 115.248 292.707 114.956 293.011 114.756C293.315 114.548 293.679 114.444 294.103 114.444C294.735 114.444 295.231 114.672 295.591 115.128C295.959 115.576 296.143 116.208 296.143 117.024C296.143 117.568 296.059 118.032 295.891 118.416C295.731 118.8 295.499 119.096 295.195 119.304C294.891 119.512 294.527 119.616 294.103 119.616ZM294.103 118.908C294.351 118.908 294.563 118.836 294.739 118.692C294.923 118.548 295.063 118.336 295.159 118.056C295.255 117.776 295.303 117.432 295.303 117.024C295.303 116.4 295.195 115.932 294.979 115.62C294.763 115.308 294.471 115.152 294.103 115.152C293.855 115.152 293.639 115.224 293.455 115.368C293.279 115.504 293.143 115.712 293.047 115.992C292.951 116.264 292.903 116.608 292.903 117.024C292.903 117.648 293.007 118.12 293.215 118.44C293.431 118.752 293.727 118.908 294.103 118.908ZM299.839 123.108C299.207 123.108 298.707 122.88 298.339 122.424C297.979 121.968 297.799 121.332 297.799 120.516C297.799 119.972 297.879 119.508 298.039 119.124C298.207 118.74 298.443 118.448 298.747 118.248C299.059 118.04 299.423 117.936 299.839 117.936C300.479 117.936 300.979 118.164 301.339 118.62C301.699 119.068 301.879 119.7 301.879 120.516C301.879 121.06 301.799 121.528 301.639 121.92C301.479 122.304 301.247 122.6 300.943 122.808C300.639 123.008 300.271 123.108 299.839 123.108ZM299.839 122.4C300.095 122.4 300.311 122.332 300.487 122.196C300.663 122.052 300.799 121.84 300.895 121.56C300.991 121.28 301.039 120.932 301.039 120.516C301.039 119.892 300.931 119.424 300.715 119.112C300.507 118.8 300.215 118.644 299.839 118.644C299.591 118.644 299.375 118.716 299.191 118.86C299.015 118.996 298.879 119.204 298.783 119.484C298.695 119.756 298.651 120.1 298.651 120.516C298.651 121.148 298.755 121.62 298.963 121.932C299.179 122.244 299.471 122.4 299.839 122.4Z" fill="black"/>
</svg>
